{"glyphs":{"0":{"ha":891,"x_min":54,"x_max":837,"o":"m 445 -14 q 155 115 255 -14 q 54 514 54 244 q 445 1042 54 1042 q 837 514 837 1042 q 445 -14 837 -14 m 446 195 q 525 225 494 195 q 571 324 556 254 q 587 513 587 394 q 571 703 587 633 q 525 803 556 774 q 446 833 494 833 q 366 803 397 833 q 320 704 335 774 q 304 515 304 634 q 320 324 304 394 q 366 225 335 254 q 446 195 397 195 z "},"1":{"ha":544,"x_min":13,"x_max":461,"o":"m 301 1032 l 461 1032 l 461 0 l 206 0 l 206 733 l 13 606 l 13 842 l 301 1032 z "},"2":{"ha":717,"x_min":14,"x_max":685,"o":"m 685 216 l 685 0 l 27 0 l 27 140 l 281 474 q 364 608 339 551 q 390 712 390 664 q 350 803 390 774 q 222 833 310 833 q 113 823 167 833 q 14 796 58 813 l 14 1005 q 127 1031 59 1021 q 256 1042 196 1042 q 543 968 446 1042 q 641 735 641 894 q 610 578 641 657 q 508 406 580 499 l 359 216 l 685 216 z "},"3":{"ha":722,"x_min":22,"x_max":688,"o":"m 490 531 q 638 447 587 509 q 688 287 688 385 q 641 124 688 192 q 500 22 593 57 q 272 -14 407 -14 q 22 19 143 -14 l 22 212 q 142 189 77 197 q 263 181 208 181 q 403 211 360 181 q 447 303 447 241 q 403 395 447 365 q 258 426 358 426 l 117 426 l 117 624 l 239 624 q 373 653 331 624 q 415 738 415 683 q 375 820 415 794 q 251 847 336 847 q 140 838 198 847 q 35 812 83 828 l 35 1005 q 152 1032 83 1022 q 283 1042 220 1042 q 562 970 467 1042 q 657 765 657 899 q 613 616 657 677 q 490 531 569 554 z "},"4":{"ha":853,"x_min":22,"x_max":835,"o":"m 835 399 l 835 203 l 713 203 l 713 0 l 487 0 l 487 203 l 22 203 l 22 344 l 349 1028 l 590 1028 l 296 399 l 487 399 l 513 681 l 713 681 l 713 399 l 835 399 z "},"5":{"ha":732,"x_min":42,"x_max":706,"o":"m 317 631 q 540 581 454 619 q 665 476 625 542 q 706 313 706 410 q 600 69 706 151 q 292 -14 494 -14 q 42 22 165 -14 l 42 215 q 162 191 97 200 q 283 181 228 181 q 421 212 378 181 q 465 304 465 242 q 441 375 465 348 q 355 418 417 402 q 176 442 293 435 l 69 448 l 103 1028 l 667 1028 l 667 826 l 330 826 l 317 631 z "},"6":{"ha":841,"x_min":60,"x_max":810,"o":"m 494 627 q 655 593 584 627 q 768 490 726 560 q 810 316 810 420 q 766 140 810 214 q 642 26 722 65 q 454 -14 561 -14 q 165 107 269 -14 q 60 484 60 228 q 190 903 60 764 q 558 1042 319 1042 q 758 1013 683 1042 l 758 815 q 569 842 672 842 q 378 778 442 842 q 309 575 315 713 q 394 614 346 600 q 494 627 443 627 m 456 174 q 546 207 512 174 q 581 308 581 241 q 544 408 581 375 q 444 441 508 441 q 373 431 408 441 q 309 400 338 421 q 331 264 313 313 q 380 194 349 214 q 456 174 411 174 z "},"7":{"ha":682,"x_min":8,"x_max":642,"o":"m 8 1028 l 642 1028 l 642 888 l 344 0 l 83 0 l 372 812 l 8 812 l 8 1028 z "},"8":{"ha":891,"x_min":46,"x_max":843,"o":"m 673 546 q 805 436 766 498 q 843 285 843 374 q 797 130 843 197 q 662 24 751 62 q 448 -14 573 -14 q 225 21 315 -14 q 90 117 135 56 q 46 259 46 178 q 90 399 46 337 q 219 499 134 460 q 106 609 140 547 q 72 752 72 672 q 116 905 72 840 q 247 1006 160 970 q 458 1042 334 1042 q 650 1010 569 1042 q 774 919 731 978 q 817 778 817 860 q 673 546 817 628 m 458 864 q 349 836 386 864 q 311 760 311 808 q 327 702 311 726 q 385 657 342 678 q 510 609 427 635 q 578 676 557 640 q 600 757 600 712 q 564 836 600 809 q 458 864 527 864 m 448 164 q 568 192 528 164 q 607 272 607 220 q 589 333 607 308 q 526 380 571 358 q 399 425 482 401 l 378 431 q 307 366 331 405 q 283 285 283 327 q 324 195 283 226 q 448 164 366 164 z "},"9":{"ha":841,"x_min":31,"x_max":781,"o":"m 387 1042 q 676 921 572 1042 q 781 544 781 800 q 651 125 781 264 q 283 -14 522 -14 q 83 15 158 -14 l 83 213 q 272 185 169 185 q 463 250 399 185 q 532 453 526 315 q 447 414 495 428 q 347 401 398 401 q 186 434 257 401 q 73 538 115 468 q 31 712 31 608 q 75 888 31 814 q 199 1002 119 963 q 387 1042 280 1042 m 260 720 q 297 620 260 653 q 397 587 333 587 q 468 597 433 587 q 532 628 503 607 q 510 764 528 715 q 461 834 492 814 q 385 854 430 854 q 295 820 329 854 q 260 720 260 787 z "},"\u0000":{"ha":0,"x_min":0,"x_max":0,"o":""},"\r":{"ha":328,"x_min":0,"x_max":0,"o":""}," ":{"ha":328,"x_min":0,"x_max":0,"o":""},"A":{"ha":962,"x_min":1,"x_max":960,"o":"m 710 0 l 642 254 l 316 254 l 249 0 l 1 0 l 292 1028 l 669 1028 l 960 0 l 710 0 m 371 463 l 587 463 l 478 869 l 371 463 z "},"Á":{"ha":962,"x_min":1,"x_max":960,"o":"m 710 0 l 642 254 l 316 254 l 249 0 l 1 0 l 292 1028 l 669 1028 l 960 0 l 710 0 m 371 463 l 587 463 l 478 869 l 371 463 m 368 1104 l 487 1319 l 747 1319 l 592 1104 l 368 1104 z "},"Ă":{"ha":962,"x_min":1,"x_max":960,"o":"m 710 0 l 642 254 l 316 254 l 249 0 l 1 0 l 292 1028 l 669 1028 l 960 0 l 710 0 m 371 463 l 587 463 l 478 869 l 371 463 m 481 1105 q 296 1161 363 1105 q 218 1317 229 1217 l 369 1317 q 403 1248 377 1270 q 481 1226 430 1226 q 558 1248 531 1226 q 591 1317 584 1270 l 742 1317 q 665 1160 731 1216 q 481 1105 598 1105 z "},"Ắ":{"ha":962,"x_min":1,"x_max":960,"o":"m 710 0 l 642 254 l 316 254 l 249 0 l 1 0 l 292 1028 l 669 1028 l 960 0 l 710 0 m 371 463 l 587 463 l 478 869 l 371 463 m 418 1271 l 488 1436 l 648 1436 l 543 1271 l 418 1271 m 481 1105 q 301 1154 366 1105 q 224 1290 236 1203 l 358 1290 q 394 1228 367 1249 q 481 1208 422 1208 q 567 1228 539 1208 q 609 1290 594 1248 l 737 1290 q 660 1154 725 1203 q 481 1105 595 1105 z "},"Ặ":{"ha":962,"x_min":1,"x_max":960,"o":"m 710 0 l 642 254 l 316 254 l 249 0 l 1 0 l 292 1028 l 669 1028 l 960 0 l 710 0 m 371 463 l 587 463 l 478 869 l 371 463 m 481 -308 q 367 -279 407 -308 q 328 -194 328 -250 q 367 -108 328 -137 q 481 -79 407 -79 q 593 -108 554 -79 q 633 -194 633 -137 q 593 -279 633 -250 q 481 -308 554 -308 m 481 1105 q 296 1161 363 1105 q 218 1317 229 1217 l 369 1317 q 403 1248 377 1270 q 481 1226 430 1226 q 558 1248 531 1226 q 591 1317 584 1270 l 742 1317 q 665 1160 731 1216 q 481 1105 598 1105 z "},"Ằ":{"ha":962,"x_min":1,"x_max":960,"o":"m 710 0 l 642 254 l 316 254 l 249 0 l 1 0 l 292 1028 l 669 1028 l 960 0 l 710 0 m 371 463 l 587 463 l 478 869 l 371 463 m 418 1271 l 313 1436 l 473 1436 l 543 1271 l 418 1271 m 481 1105 q 301 1154 366 1105 q 224 1290 236 1203 l 352 1290 q 394 1228 366 1248 q 481 1208 422 1208 q 566 1228 540 1208 q 603 1290 593 1249 l 737 1290 q 660 1154 725 1203 q 481 1105 595 1105 z "},"Ẳ":{"ha":962,"x_min":1,"x_max":960,"o":"m 710 0 l 642 254 l 316 254 l 249 0 l 1 0 l 292 1028 l 669 1028 l 960 0 l 710 0 m 371 463 l 587 463 l 478 869 l 371 463 m 419 1271 q 441 1316 421 1300 q 494 1347 460 1332 q 519 1360 511 1354 q 528 1372 528 1365 q 511 1388 528 1383 q 458 1393 494 1393 q 329 1380 395 1393 l 329 1459 q 400 1470 358 1466 q 478 1474 443 1474 q 616 1453 572 1474 q 660 1388 660 1433 q 644 1350 660 1364 q 597 1320 628 1335 q 557 1297 571 1307 q 542 1271 544 1286 l 419 1271 m 480 1105 q 301 1154 366 1105 q 224 1290 236 1203 l 358 1290 q 394 1228 367 1249 q 480 1208 421 1208 q 567 1228 539 1208 q 609 1290 594 1248 l 737 1290 q 660 1154 725 1203 q 480 1105 594 1105 z "},"Ẵ":{"ha":962,"x_min":1,"x_max":960,"o":"m 710 0 l 642 254 l 316 254 l 249 0 l 1 0 l 292 1028 l 669 1028 l 960 0 l 710 0 m 371 463 l 587 463 l 478 869 l 371 463 m 585 1322 q 529 1328 556 1322 q 467 1344 503 1333 q 415 1358 436 1353 q 374 1363 394 1363 q 300 1353 333 1363 q 224 1317 267 1342 l 224 1426 q 295 1461 261 1451 q 376 1470 328 1470 q 431 1464 404 1470 q 494 1447 458 1458 q 548 1432 528 1437 q 588 1428 567 1428 q 661 1438 628 1428 q 737 1474 694 1449 l 737 1365 q 666 1331 700 1340 q 585 1322 633 1322 m 480 1105 q 301 1154 366 1105 q 224 1290 236 1203 l 358 1290 q 394 1228 367 1249 q 480 1208 421 1208 q 566 1228 540 1208 q 603 1290 593 1249 l 737 1290 q 660 1154 725 1203 q 480 1105 594 1105 z "},"Â":{"ha":962,"x_min":1,"x_max":960,"o":"m 710 0 l 642 254 l 316 254 l 249 0 l 1 0 l 292 1028 l 669 1028 l 960 0 l 710 0 m 371 463 l 587 463 l 478 869 l 371 463 m 742 1104 l 565 1104 l 481 1230 l 395 1104 l 219 1104 l 375 1319 l 585 1319 l 742 1104 z "},"Ấ":{"ha":962,"x_min":1,"x_max":960,"o":"m 710 0 l 642 254 l 316 254 l 249 0 l 1 0 l 292 1028 l 669 1028 l 960 0 l 710 0 m 371 463 l 587 463 l 478 869 l 371 463 m 722 1433 l 883 1433 l 778 1266 l 653 1266 l 722 1433 m 375 1293 l 585 1293 l 742 1104 l 565 1104 l 481 1215 l 395 1104 l 219 1104 l 375 1293 z "},"Ậ":{"ha":962,"x_min":1,"x_max":960,"o":"m 710 0 l 642 254 l 316 254 l 249 0 l 1 0 l 292 1028 l 669 1028 l 960 0 l 710 0 m 371 463 l 587 463 l 478 869 l 371 463 m 481 -308 q 367 -279 407 -308 q 328 -194 328 -250 q 367 -108 328 -137 q 481 -79 407 -79 q 593 -108 554 -79 q 633 -194 633 -137 q 593 -279 633 -250 q 481 -308 554 -308 m 742 1104 l 565 1104 l 481 1230 l 395 1104 l 219 1104 l 375 1319 l 585 1319 l 742 1104 z "},"Ầ":{"ha":962,"x_min":1,"x_max":960,"o":"m 710 0 l 642 254 l 316 254 l 249 0 l 1 0 l 292 1028 l 669 1028 l 960 0 l 710 0 m 371 463 l 587 463 l 478 869 l 371 463 m 804 1266 l 678 1266 l 574 1433 l 734 1433 l 804 1266 m 375 1293 l 585 1293 l 742 1104 l 565 1104 l 481 1215 l 395 1104 l 219 1104 l 375 1293 z "},"Ẩ":{"ha":962,"x_min":1,"x_max":960,"o":"m 710 0 l 642 254 l 316 254 l 249 0 l 1 0 l 292 1028 l 669 1028 l 960 0 l 710 0 m 371 463 l 587 463 l 478 869 l 371 463 m 712 1469 q 850 1449 806 1469 q 894 1383 894 1428 q 877 1345 894 1359 q 831 1315 861 1331 q 791 1292 805 1303 q 776 1266 778 1281 l 652 1266 q 674 1311 654 1295 q 728 1342 694 1328 q 753 1355 745 1349 q 762 1367 762 1360 q 691 1388 762 1388 q 563 1375 624 1388 l 563 1454 q 634 1465 592 1461 q 712 1469 677 1469 m 375 1293 l 585 1293 l 742 1104 l 565 1104 l 481 1215 l 395 1104 l 219 1104 l 375 1293 z "},"Ẫ":{"ha":962,"x_min":1,"x_max":960,"o":"m 710 0 l 642 254 l 316 254 l 249 0 l 1 0 l 292 1028 l 669 1028 l 960 0 l 710 0 m 371 463 l 587 463 l 478 869 l 371 463 m 592 1428 q 666 1438 633 1428 q 742 1474 699 1449 l 742 1365 q 672 1331 706 1340 q 590 1322 638 1322 q 534 1327 560 1322 q 466 1344 508 1333 q 412 1358 434 1353 q 369 1363 390 1363 q 294 1353 328 1363 q 219 1317 261 1342 l 219 1426 q 289 1461 255 1451 q 371 1470 324 1470 q 429 1464 401 1470 q 494 1447 457 1458 q 548 1433 526 1438 q 592 1428 570 1428 m 375 1293 l 585 1293 l 742 1104 l 565 1104 l 481 1215 l 395 1104 l 219 1104 l 375 1293 z "},"Ȁ":{"ha":962,"x_min":1,"x_max":960,"o":"m 710 0 l 642 254 l 316 254 l 249 0 l 1 0 l 292 1028 l 669 1028 l 960 0 l 710 0 m 371 463 l 587 463 l 478 869 l 371 463 m 240 1104 l 140 1319 l 339 1319 l 428 1104 l 240 1104 m 533 1104 l 432 1319 l 632 1319 l 721 1104 l 533 1104 z "},"Ä":{"ha":962,"x_min":1,"x_max":960,"o":"m 710 0 l 642 254 l 316 254 l 249 0 l 1 0 l 292 1028 l 669 1028 l 960 0 l 710 0 m 371 463 l 587 463 l 478 869 l 371 463 m 303 1101 q 204 1131 239 1101 q 169 1215 169 1160 q 204 1300 169 1270 q 303 1330 239 1330 q 403 1300 368 1330 q 438 1215 438 1270 q 403 1131 438 1160 q 303 1101 368 1101 m 657 1101 q 558 1131 592 1101 q 523 1215 523 1160 q 558 1300 523 1270 q 657 1330 592 1330 q 756 1300 722 1330 q 791 1215 791 1270 q 756 1131 791 1160 q 657 1101 722 1101 z "},"Ạ":{"ha":962,"x_min":1,"x_max":960,"o":"m 710 0 l 642 254 l 316 254 l 249 0 l 1 0 l 292 1028 l 669 1028 l 960 0 l 710 0 m 371 463 l 587 463 l 478 869 l 371 463 m 481 -308 q 367 -279 407 -308 q 328 -194 328 -250 q 367 -108 328 -137 q 481 -79 407 -79 q 593 -108 554 -79 q 633 -194 633 -137 q 593 -279 633 -250 q 481 -308 554 -308 z "},"À":{"ha":962,"x_min":1,"x_max":960,"o":"m 710 0 l 642 254 l 316 254 l 249 0 l 1 0 l 292 1028 l 669 1028 l 960 0 l 710 0 m 371 463 l 587 463 l 478 869 l 371 463 m 368 1104 l 213 1319 l 474 1319 l 592 1104 l 368 1104 z "},"Ả":{"ha":962,"x_min":1,"x_max":960,"o":"m 710 0 l 642 254 l 316 254 l 249 0 l 1 0 l 292 1028 l 669 1028 l 960 0 l 710 0 m 371 463 l 587 463 l 478 869 l 371 463 m 419 1104 q 441 1156 421 1138 q 494 1191 461 1174 q 520 1205 513 1199 q 528 1218 528 1210 q 511 1236 528 1231 q 458 1242 494 1242 q 329 1227 390 1242 l 329 1320 q 399 1332 357 1328 q 478 1337 442 1337 q 616 1313 572 1337 q 660 1238 660 1289 q 644 1195 660 1211 q 597 1160 628 1178 q 557 1133 570 1144 q 542 1104 544 1122 l 419 1104 z "},"Ȃ":{"ha":962,"x_min":1,"x_max":960,"o":"m 710 0 l 642 254 l 316 254 l 249 0 l 1 0 l 292 1028 l 669 1028 l 960 0 l 710 0 m 371 463 l 587 463 l 478 869 l 371 463 m 218 1106 q 296 1263 229 1207 q 480 1319 363 1319 q 664 1263 597 1319 q 742 1106 731 1207 l 591 1106 q 557 1176 583 1153 q 480 1198 531 1198 q 403 1176 430 1198 q 369 1106 377 1153 l 218 1106 z "},"Ā":{"ha":962,"x_min":1,"x_max":960,"o":"m 710 0 l 642 254 l 316 254 l 249 0 l 1 0 l 292 1028 l 669 1028 l 960 0 l 710 0 m 371 463 l 587 463 l 478 869 l 371 463 m 220 1135 l 220 1290 l 741 1290 l 741 1135 l 220 1135 z "},"Ą":{"ha":962,"x_min":1,"x_max":981,"o":"m 887 -215 q 981 -196 929 -215 l 981 -292 q 853 -314 921 -314 q 702 -274 753 -314 q 652 -164 652 -235 q 678 -74 652 -115 q 763 0 704 -34 l 710 0 l 642 254 l 316 254 l 249 0 l 1 0 l 292 1028 l 669 1028 l 960 0 q 829 -70 865 -35 q 793 -149 793 -106 q 887 -215 793 -215 m 371 463 l 587 463 l 478 869 l 371 463 z "},"Å":{"ha":962,"x_min":1,"x_max":960,"o":"m 710 0 l 642 254 l 316 254 l 249 0 l 1 0 l 292 1028 l 669 1028 l 960 0 l 710 0 m 371 463 l 587 463 l 478 869 l 371 463 m 481 1078 q 402 1097 437 1078 q 347 1150 367 1116 q 326 1228 326 1185 q 347 1305 326 1271 q 402 1358 367 1339 q 481 1377 437 1377 q 560 1358 525 1377 q 616 1305 596 1339 q 635 1228 635 1271 q 616 1150 635 1185 q 560 1097 596 1116 q 481 1078 525 1078 m 481 1166 q 524 1183 508 1166 q 540 1228 540 1200 q 524 1272 540 1256 q 481 1289 508 1289 q 439 1272 455 1289 q 422 1228 422 1256 q 439 1183 422 1200 q 481 1166 455 1166 z "},"Ǻ":{"ha":962,"x_min":1,"x_max":960,"o":"m 710 0 l 642 254 l 316 254 l 249 0 l 1 0 l 292 1028 l 669 1028 l 960 0 l 710 0 m 371 463 l 587 463 l 478 869 l 371 463 m 618 1301 q 635 1228 635 1267 q 616 1151 635 1185 q 560 1097 596 1117 q 481 1078 525 1078 q 402 1097 437 1078 q 347 1151 367 1117 q 326 1228 326 1185 q 347 1305 326 1271 q 402 1358 367 1339 q 481 1377 437 1377 q 505 1376 490 1377 l 574 1463 l 760 1463 l 618 1301 m 481 1166 q 524 1183 508 1166 q 540 1228 540 1200 q 524 1272 540 1256 q 481 1289 508 1289 q 439 1272 455 1289 q 422 1228 422 1256 q 439 1183 422 1200 q 481 1166 455 1166 z "},"Ã":{"ha":962,"x_min":1,"x_max":960,"o":"m 710 0 l 642 254 l 316 254 l 249 0 l 1 0 l 292 1028 l 669 1028 l 960 0 l 710 0 m 371 463 l 587 463 l 478 869 l 371 463 m 600 1111 q 537 1118 567 1111 q 468 1140 508 1126 q 407 1159 430 1153 q 358 1165 383 1165 q 283 1153 315 1165 q 217 1115 251 1141 l 217 1262 q 280 1302 246 1290 q 361 1315 314 1315 q 423 1307 394 1315 q 493 1285 452 1299 q 553 1265 529 1272 q 603 1259 578 1259 q 677 1271 645 1259 q 743 1310 710 1283 l 743 1163 q 681 1123 715 1135 q 600 1111 647 1111 z "},"Æ":{"ha":1342,"x_min":1,"x_max":1297,"o":"m 882 210 l 1297 210 l 1297 0 l 650 0 l 631 253 l 319 253 l 251 0 l 1 0 l 293 1028 l 1290 1028 l 1290 817 l 831 817 l 847 630 l 1218 630 l 1218 420 l 865 420 l 882 210 m 376 463 l 615 463 l 590 817 l 472 817 l 376 463 z "},"Ǽ":{"ha":1342,"x_min":1,"x_max":1297,"o":"m 882 210 l 1297 210 l 1297 0 l 650 0 l 631 253 l 319 253 l 251 0 l 1 0 l 293 1028 l 1290 1028 l 1290 817 l 831 817 l 847 630 l 1218 630 l 1218 420 l 865 420 l 882 210 m 376 463 l 615 463 l 590 817 l 472 817 l 376 463 m 578 1104 l 697 1319 l 958 1319 l 802 1104 l 578 1104 z "},"B":{"ha":897,"x_min":76,"x_max":869,"o":"m 683 530 q 820 451 770 511 q 869 290 869 390 q 750 63 869 138 q 365 -13 630 -13 q 221 -7 302 -13 q 76 9 140 -1 l 76 1006 q 236 1031 149 1022 q 403 1041 324 1041 q 651 1010 554 1041 q 794 915 748 979 q 841 752 841 851 q 799 612 841 672 q 683 530 756 552 m 441 851 q 324 841 386 851 l 324 623 l 441 623 q 536 635 501 623 q 586 672 571 647 q 602 737 602 697 q 586 803 602 778 q 535 840 570 828 q 441 851 500 851 m 435 177 q 552 190 510 177 q 614 231 595 203 q 633 303 633 258 q 592 397 633 367 q 461 426 552 426 l 324 426 l 324 182 q 435 177 384 177 z "},"C":{"ha":815,"x_min":47,"x_max":786,"o":"m 567 -14 q 180 113 313 -14 q 47 511 47 240 q 185 908 47 775 q 581 1042 323 1042 q 786 1019 690 1042 l 786 808 q 602 829 689 829 q 440 798 503 829 q 345 697 376 767 q 313 514 313 628 q 344 328 313 397 q 437 229 375 259 q 599 199 499 199 q 786 231 681 199 l 786 19 q 683 -5 742 4 q 567 -14 625 -14 z "},"Ć":{"ha":815,"x_min":47,"x_max":786,"o":"m 567 -14 q 180 113 313 -14 q 47 511 47 240 q 185 908 47 775 q 581 1042 323 1042 q 786 1019 690 1042 l 786 808 q 602 829 689 829 q 440 798 503 829 q 345 697 376 767 q 313 514 313 628 q 344 328 313 397 q 437 229 375 259 q 599 199 499 199 q 786 231 681 199 l 786 19 q 683 -5 742 4 q 567 -14 625 -14 m 389 1104 l 508 1319 l 768 1319 l 613 1104 l 389 1104 z "},"Č":{"ha":815,"x_min":47,"x_max":786,"o":"m 567 -14 q 180 113 313 -14 q 47 511 47 240 q 185 908 47 775 q 581 1042 323 1042 q 786 1019 690 1042 l 786 808 q 602 829 689 829 q 440 798 503 829 q 345 697 376 767 q 313 514 313 628 q 344 328 313 397 q 437 229 375 259 q 599 199 499 199 q 786 231 681 199 l 786 19 q 683 -5 742 4 q 567 -14 625 -14 m 586 1319 l 763 1319 l 606 1104 l 396 1104 l 240 1319 l 416 1319 l 501 1194 l 586 1319 z "},"Ç":{"ha":815,"x_min":47,"x_max":786,"o":"m 602 829 q 440 798 503 829 q 345 697 376 767 q 313 514 313 628 q 344 328 313 397 q 437 229 375 259 q 599 199 499 199 q 786 231 681 199 l 786 19 q 683 -5 742 4 q 567 -14 625 -14 l 546 -14 l 546 -57 q 640 -98 608 -66 q 672 -181 672 -130 q 624 -279 672 -244 q 473 -314 575 -314 q 336 -294 395 -314 l 336 -198 q 398 -213 365 -208 q 460 -218 431 -218 q 520 -207 501 -218 q 540 -172 540 -197 q 458 -123 540 -123 l 426 -123 l 426 -3 q 144 155 240 28 q 47 511 47 281 q 185 908 47 775 q 581 1042 323 1042 q 786 1019 690 1042 l 786 808 q 602 829 689 829 z "},"Ḉ":{"ha":815,"x_min":47,"x_max":786,"o":"m 768 1319 l 613 1104 l 389 1104 l 508 1319 l 768 1319 m 602 829 q 440 798 503 829 q 345 697 376 767 q 313 514 313 628 q 344 328 313 397 q 437 229 375 259 q 599 199 499 199 q 786 231 681 199 l 786 19 q 683 -5 742 4 q 567 -14 625 -14 l 546 -14 l 546 -57 q 640 -98 608 -66 q 672 -181 672 -130 q 624 -279 672 -244 q 473 -314 575 -314 q 336 -294 395 -314 l 336 -198 q 398 -213 365 -208 q 460 -218 431 -218 q 520 -207 501 -218 q 540 -172 540 -197 q 458 -123 540 -123 l 426 -123 l 426 -3 q 144 155 240 28 q 47 511 47 281 q 185 908 47 775 q 581 1042 323 1042 q 786 1019 690 1042 l 786 808 q 602 829 689 829 z "},"Ĉ":{"ha":815,"x_min":47,"x_max":786,"o":"m 567 -14 q 180 113 313 -14 q 47 511 47 240 q 185 908 47 775 q 581 1042 323 1042 q 786 1019 690 1042 l 786 808 q 602 829 689 829 q 440 798 503 829 q 345 697 376 767 q 313 514 313 628 q 344 328 313 397 q 437 229 375 259 q 599 199 499 199 q 786 231 681 199 l 786 19 q 683 -5 742 4 q 567 -14 625 -14 m 763 1104 l 586 1104 l 501 1230 l 416 1104 l 240 1104 l 396 1319 l 606 1319 l 763 1104 z "},"Ċ":{"ha":815,"x_min":47,"x_max":786,"o":"m 567 -14 q 180 113 313 -14 q 47 511 47 240 q 185 908 47 775 q 581 1042 323 1042 q 786 1019 690 1042 l 786 808 q 602 829 689 829 q 440 798 503 829 q 345 697 376 767 q 313 514 313 628 q 344 328 313 397 q 437 229 375 259 q 599 199 499 199 q 786 231 681 199 l 786 19 q 683 -5 742 4 q 567 -14 625 -14 m 501 1101 q 388 1130 428 1101 q 349 1215 349 1159 q 388 1301 349 1272 q 501 1330 428 1330 q 614 1301 575 1330 q 653 1215 653 1272 q 614 1130 653 1159 q 501 1101 575 1101 z "},"D":{"ha":987,"x_min":76,"x_max":940,"o":"m 351 -12 q 76 3 212 -12 l 76 1006 q 232 1031 150 1022 q 393 1040 313 1040 q 804 912 668 1040 q 940 514 940 783 q 875 214 940 331 q 681 43 810 98 q 351 -12 551 -12 m 420 197 q 564 227 508 197 q 650 327 621 258 q 678 515 678 397 q 649 701 678 631 q 562 802 619 771 q 419 833 505 833 q 330 824 374 833 l 330 199 q 420 197 375 197 z "},"Ǳ":{"ha":1775,"x_min":76,"x_max":1743,"o":"m 351 -12 q 76 3 212 -12 l 76 1006 q 232 1031 150 1022 q 393 1040 313 1040 q 804 912 668 1040 q 940 514 940 783 q 875 214 940 331 q 681 43 810 98 q 351 -12 551 -12 m 420 197 q 564 227 508 197 q 650 327 621 258 q 678 515 678 397 q 649 701 678 631 q 562 802 619 771 q 419 833 505 833 q 330 824 374 833 l 330 199 q 420 197 375 197 m 1317 218 l 1743 218 l 1743 0 l 988 0 l 988 141 l 1406 810 l 994 810 l 994 1028 l 1736 1028 l 1736 887 l 1317 218 z "},"Ǆ":{"ha":1775,"x_min":76,"x_max":1743,"o":"m 351 -12 q 76 3 212 -12 l 76 1006 q 232 1031 150 1022 q 393 1040 313 1040 q 804 912 668 1040 q 940 514 940 783 q 875 214 940 331 q 681 43 810 98 q 351 -12 551 -12 m 420 197 q 564 227 508 197 q 650 327 621 258 q 678 515 678 397 q 649 701 678 631 q 562 802 619 771 q 419 833 505 833 q 330 824 374 833 l 330 199 q 420 197 375 197 m 1317 218 l 1743 218 l 1743 0 l 988 0 l 988 141 l 1406 810 l 994 810 l 994 1028 l 1736 1028 l 1736 887 l 1317 218 m 1451 1319 l 1628 1319 l 1472 1104 l 1261 1104 l 1105 1319 l 1281 1319 l 1367 1194 l 1451 1319 z "},"Ð":{"ha":987,"x_min":1,"x_max":940,"o":"m 393 1040 q 804 912 668 1040 q 940 514 940 783 q 875 214 940 331 q 681 43 810 98 q 351 -12 551 -12 q 76 3 212 -12 l 76 447 l 1 447 l 1 612 l 76 612 l 76 1006 q 232 1031 150 1022 q 393 1040 313 1040 m 420 197 q 564 227 508 197 q 650 327 621 258 q 678 515 678 397 q 649 701 678 631 q 562 802 619 771 q 419 833 505 833 q 330 824 374 833 l 330 612 l 491 612 l 491 447 l 330 447 l 330 199 q 420 197 375 197 z "},"Ď":{"ha":987,"x_min":76,"x_max":940,"o":"m 351 -12 q 76 3 212 -12 l 76 1006 q 232 1031 150 1022 q 393 1040 313 1040 q 804 912 668 1040 q 940 514 940 783 q 875 214 940 331 q 681 43 810 98 q 351 -12 551 -12 m 420 197 q 564 227 508 197 q 650 327 621 258 q 678 515 678 397 q 649 701 678 631 q 562 802 619 771 q 419 833 505 833 q 330 824 374 833 l 330 199 q 420 197 375 197 m 533 1319 l 710 1319 l 553 1104 l 343 1104 l 187 1319 l 363 1319 l 449 1194 l 533 1319 z "},"Đ":{"ha":987,"x_min":1,"x_max":940,"o":"m 393 1040 q 804 912 668 1040 q 940 514 940 783 q 875 214 940 331 q 681 43 810 98 q 351 -12 551 -12 q 76 3 212 -12 l 76 447 l 1 447 l 1 612 l 76 612 l 76 1006 q 232 1031 150 1022 q 393 1040 313 1040 m 420 197 q 564 227 508 197 q 650 327 621 258 q 678 515 678 397 q 649 701 678 631 q 562 802 619 771 q 419 833 505 833 q 330 824 374 833 l 330 612 l 491 612 l 491 447 l 330 447 l 330 199 q 420 197 375 197 z "},"Ḍ":{"ha":987,"x_min":76,"x_max":940,"o":"m 351 -12 q 76 3 212 -12 l 76 1006 q 232 1031 150 1022 q 393 1040 313 1040 q 804 912 668 1040 q 940 514 940 783 q 875 214 940 331 q 681 43 810 98 q 351 -12 551 -12 m 420 197 q 564 227 508 197 q 650 327 621 258 q 678 515 678 397 q 649 701 678 631 q 562 802 619 771 q 419 833 505 833 q 330 824 374 833 l 330 199 q 420 197 375 197 m 460 -308 q 347 -279 387 -308 q 308 -194 308 -250 q 347 -108 308 -137 q 460 -79 387 -79 q 573 -108 534 -79 q 613 -194 613 -137 q 573 -279 613 -250 q 460 -308 534 -308 z "},"Ḏ":{"ha":987,"x_min":76,"x_max":940,"o":"m 351 -12 q 76 3 212 -12 l 76 1006 q 232 1031 150 1022 q 393 1040 313 1040 q 804 912 668 1040 q 940 514 940 783 q 875 214 940 331 q 681 43 810 98 q 351 -12 551 -12 m 420 197 q 564 227 508 197 q 650 327 621 258 q 678 515 678 397 q 649 701 678 631 q 562 802 619 771 q 419 833 505 833 q 330 824 374 833 l 330 199 q 420 197 375 197 m 200 -265 l 200 -110 l 721 -110 l 721 -265 l 200 -265 z "},"ǲ":{"ha":1646,"x_min":76,"x_max":1619,"o":"m 351 -12 q 76 3 212 -12 l 76 1006 q 232 1031 150 1022 q 393 1040 313 1040 q 804 912 668 1040 q 940 514 940 783 q 875 214 940 331 q 681 43 810 98 q 351 -12 551 -12 m 420 197 q 564 227 508 197 q 650 327 621 258 q 678 515 678 397 q 649 701 678 631 q 562 802 619 771 q 419 833 505 833 q 330 824 374 833 l 330 199 q 420 197 375 197 m 1317 195 l 1619 195 l 1619 0 l 1024 0 l 1024 157 l 1320 567 l 1031 567 l 1031 762 l 1613 762 l 1613 606 l 1317 195 z "},"ǅ":{"ha":1646,"x_min":76,"x_max":1619,"o":"m 351 -12 q 76 3 212 -12 l 76 1006 q 232 1031 150 1022 q 393 1040 313 1040 q 804 912 668 1040 q 940 514 940 783 q 875 214 940 331 q 681 43 810 98 q 351 -12 551 -12 m 420 197 q 564 227 508 197 q 650 327 621 258 q 678 515 678 397 q 649 701 678 631 q 562 802 619 771 q 419 833 505 833 q 330 824 374 833 l 330 199 q 420 197 375 197 m 1317 195 l 1619 195 l 1619 0 l 1024 0 l 1024 157 l 1320 567 l 1031 567 l 1031 762 l 1613 762 l 1613 606 l 1317 195 m 1407 1097 l 1583 1097 l 1427 882 l 1217 882 l 1060 1097 l 1237 1097 l 1322 972 l 1407 1097 z "},"E":{"ha":830,"x_min":76,"x_max":785,"o":"m 326 210 l 785 210 l 785 0 l 76 0 l 76 1028 l 778 1028 l 778 817 l 326 817 l 326 630 l 706 630 l 706 420 l 326 420 l 326 210 z "},"É":{"ha":830,"x_min":76,"x_max":785,"o":"m 326 210 l 785 210 l 785 0 l 76 0 l 76 1028 l 778 1028 l 778 817 l 326 817 l 326 630 l 706 630 l 706 420 l 326 420 l 326 210 m 330 1104 l 449 1319 l 709 1319 l 553 1104 l 330 1104 z "},"Ĕ":{"ha":830,"x_min":76,"x_max":785,"o":"m 326 210 l 785 210 l 785 0 l 76 0 l 76 1028 l 778 1028 l 778 817 l 326 817 l 326 630 l 706 630 l 706 420 l 326 420 l 326 210 m 442 1105 q 258 1161 325 1105 q 180 1317 191 1217 l 331 1317 q 365 1248 339 1270 q 442 1226 392 1226 q 519 1248 493 1226 q 553 1317 546 1270 l 704 1317 q 626 1160 693 1216 q 442 1105 560 1105 z "},"Ě":{"ha":830,"x_min":76,"x_max":785,"o":"m 326 210 l 785 210 l 785 0 l 76 0 l 76 1028 l 778 1028 l 778 817 l 326 817 l 326 630 l 706 630 l 706 420 l 326 420 l 326 210 m 527 1319 l 703 1319 l 547 1104 l 337 1104 l 181 1319 l 357 1319 l 442 1194 l 527 1319 z "},"Ḝ":{"ha":830,"x_min":76,"x_max":785,"o":"m 442 1105 q 258 1161 325 1105 q 180 1317 191 1217 l 331 1317 q 365 1248 339 1270 q 442 1226 392 1226 q 519 1248 493 1226 q 553 1317 546 1270 l 704 1317 q 626 1160 693 1216 q 442 1105 560 1105 m 485 0 l 485 -57 q 580 -98 547 -66 q 612 -181 612 -130 q 563 -279 612 -244 q 413 -314 515 -314 q 276 -294 335 -314 l 276 -198 q 338 -213 304 -208 q 399 -218 371 -218 q 460 -207 440 -218 q 479 -172 479 -197 q 397 -123 479 -123 l 366 -123 l 366 0 l 76 0 l 76 1028 l 778 1028 l 778 817 l 326 817 l 326 630 l 706 630 l 706 420 l 326 420 l 326 210 l 785 210 l 785 0 l 485 0 z "},"Ê":{"ha":830,"x_min":76,"x_max":785,"o":"m 326 210 l 785 210 l 785 0 l 76 0 l 76 1028 l 778 1028 l 778 817 l 326 817 l 326 630 l 706 630 l 706 420 l 326 420 l 326 210 m 703 1104 l 527 1104 l 442 1230 l 357 1104 l 181 1104 l 337 1319 l 547 1319 l 703 1104 z "},"Ế":{"ha":830,"x_min":76,"x_max":845,"o":"m 326 210 l 785 210 l 785 0 l 76 0 l 76 1028 l 778 1028 l 778 817 l 326 817 l 326 630 l 706 630 l 706 420 l 326 420 l 326 210 m 684 1433 l 845 1433 l 740 1266 l 615 1266 l 684 1433 m 337 1293 l 547 1293 l 703 1104 l 527 1104 l 442 1215 l 357 1104 l 181 1104 l 337 1293 z "},"Ệ":{"ha":830,"x_min":76,"x_max":785,"o":"m 326 210 l 785 210 l 785 0 l 76 0 l 76 1028 l 778 1028 l 778 817 l 326 817 l 326 630 l 706 630 l 706 420 l 326 420 l 326 210 m 442 -308 q 329 -279 369 -308 q 290 -194 290 -250 q 329 -108 290 -137 q 442 -79 369 -79 q 555 -108 516 -79 q 594 -194 594 -137 q 555 -279 594 -250 q 442 -308 516 -308 m 703 1104 l 527 1104 l 442 1230 l 357 1104 l 181 1104 l 337 1319 l 547 1319 l 703 1104 z "},"Ề":{"ha":830,"x_min":76,"x_max":785,"o":"m 326 210 l 785 210 l 785 0 l 76 0 l 76 1028 l 778 1028 l 778 817 l 326 817 l 326 630 l 706 630 l 706 420 l 326 420 l 326 210 m 766 1266 l 640 1266 l 535 1433 l 696 1433 l 766 1266 m 337 1293 l 547 1293 l 703 1104 l 527 1104 l 442 1215 l 357 1104 l 181 1104 l 337 1293 z "},"Ể":{"ha":830,"x_min":76,"x_max":856,"o":"m 326 210 l 785 210 l 785 0 l 76 0 l 76 1028 l 778 1028 l 778 817 l 326 817 l 326 630 l 706 630 l 706 420 l 326 420 l 326 210 m 674 1469 q 811 1449 767 1469 q 856 1383 856 1428 q 839 1345 856 1359 q 792 1315 823 1331 q 753 1292 767 1303 q 738 1266 740 1281 l 614 1266 q 636 1311 616 1295 q 690 1342 656 1328 q 715 1355 707 1349 q 724 1367 724 1360 q 653 1388 724 1388 q 525 1375 586 1388 l 525 1454 q 596 1465 553 1461 q 674 1469 639 1469 m 337 1293 l 547 1293 l 703 1104 l 527 1104 l 442 1215 l 357 1104 l 181 1104 l 337 1293 z "},"Ễ":{"ha":830,"x_min":76,"x_max":785,"o":"m 326 210 l 785 210 l 785 0 l 76 0 l 76 1028 l 778 1028 l 778 817 l 326 817 l 326 630 l 706 630 l 706 420 l 326 420 l 326 210 m 553 1428 q 628 1438 594 1428 q 703 1474 661 1449 l 703 1365 q 634 1331 667 1340 q 551 1322 600 1322 q 496 1327 522 1322 q 428 1344 470 1333 q 374 1358 396 1353 q 331 1363 352 1363 q 256 1353 290 1363 q 181 1317 223 1342 l 181 1426 q 251 1461 217 1451 q 333 1470 285 1470 q 391 1464 363 1470 q 456 1447 419 1458 q 510 1433 488 1438 q 553 1428 532 1428 m 337 1293 l 547 1293 l 703 1104 l 527 1104 l 442 1215 l 357 1104 l 181 1104 l 337 1293 z "},"Ȅ":{"ha":830,"x_min":76,"x_max":785,"o":"m 326 210 l 785 210 l 785 0 l 76 0 l 76 1028 l 778 1028 l 778 817 l 326 817 l 326 630 l 706 630 l 706 420 l 326 420 l 326 210 m 201 1104 l 101 1319 l 301 1319 l 390 1104 l 201 1104 m 494 1104 l 394 1319 l 594 1319 l 683 1104 l 494 1104 z "},"Ë":{"ha":830,"x_min":76,"x_max":785,"o":"m 326 210 l 785 210 l 785 0 l 76 0 l 76 1028 l 778 1028 l 778 817 l 326 817 l 326 630 l 706 630 l 706 420 l 326 420 l 326 210 m 265 1101 q 166 1131 201 1101 q 131 1215 131 1160 q 166 1300 131 1270 q 265 1330 201 1330 q 365 1300 330 1330 q 399 1215 399 1270 q 365 1131 399 1160 q 265 1101 330 1101 m 619 1101 q 519 1131 554 1101 q 485 1215 485 1160 q 519 1300 485 1270 q 619 1330 554 1330 q 718 1300 683 1330 q 753 1215 753 1270 q 718 1131 753 1160 q 619 1101 683 1101 z "},"Ė":{"ha":830,"x_min":76,"x_max":785,"o":"m 326 210 l 785 210 l 785 0 l 76 0 l 76 1028 l 778 1028 l 778 817 l 326 817 l 326 630 l 706 630 l 706 420 l 326 420 l 326 210 m 442 1101 q 329 1130 369 1101 q 290 1215 290 1159 q 329 1301 290 1272 q 442 1330 369 1330 q 555 1301 516 1330 q 594 1215 594 1272 q 555 1130 594 1159 q 442 1101 516 1101 z "},"Ẹ":{"ha":830,"x_min":76,"x_max":785,"o":"m 326 210 l 785 210 l 785 0 l 76 0 l 76 1028 l 778 1028 l 778 817 l 326 817 l 326 630 l 706 630 l 706 420 l 326 420 l 326 210 m 442 -308 q 329 -279 369 -308 q 290 -194 290 -250 q 329 -108 290 -137 q 442 -79 369 -79 q 555 -108 516 -79 q 594 -194 594 -137 q 555 -279 594 -250 q 442 -308 516 -308 z "},"È":{"ha":830,"x_min":76,"x_max":785,"o":"m 326 210 l 785 210 l 785 0 l 76 0 l 76 1028 l 778 1028 l 778 817 l 326 817 l 326 630 l 706 630 l 706 420 l 326 420 l 326 210 m 330 1104 l 174 1319 l 435 1319 l 554 1104 l 330 1104 z "},"Ẻ":{"ha":830,"x_min":76,"x_max":785,"o":"m 326 210 l 785 210 l 785 0 l 76 0 l 76 1028 l 778 1028 l 778 817 l 326 817 l 326 630 l 706 630 l 706 420 l 326 420 l 326 210 m 381 1104 q 403 1156 383 1138 q 456 1191 423 1174 q 482 1205 474 1199 q 490 1218 490 1210 q 473 1236 490 1231 q 419 1242 456 1242 q 291 1227 352 1242 l 291 1320 q 361 1332 319 1328 q 440 1337 403 1337 q 578 1313 534 1337 q 622 1238 622 1289 q 606 1195 622 1211 q 558 1160 590 1178 q 519 1133 532 1144 q 503 1104 506 1122 l 381 1104 z "},"Ȇ":{"ha":830,"x_min":76,"x_max":785,"o":"m 326 210 l 785 210 l 785 0 l 76 0 l 76 1028 l 778 1028 l 778 817 l 326 817 l 326 630 l 706 630 l 706 420 l 326 420 l 326 210 m 180 1106 q 258 1263 191 1207 q 442 1319 325 1319 q 626 1263 559 1319 q 704 1106 693 1207 l 553 1106 q 519 1176 545 1153 q 442 1198 492 1198 q 365 1176 392 1198 q 331 1106 339 1153 l 180 1106 z "},"Ē":{"ha":830,"x_min":76,"x_max":785,"o":"m 326 210 l 785 210 l 785 0 l 76 0 l 76 1028 l 778 1028 l 778 817 l 326 817 l 326 630 l 706 630 l 706 420 l 326 420 l 326 210 m 182 1135 l 182 1290 l 703 1290 l 703 1135 l 182 1135 z "},"Ḗ":{"ha":830,"x_min":76,"x_max":785,"o":"m 326 210 l 785 210 l 785 0 l 76 0 l 76 1028 l 778 1028 l 778 817 l 326 817 l 326 630 l 706 630 l 706 420 l 326 420 l 326 210 m 318 1370 l 436 1531 l 722 1531 l 567 1370 l 318 1370 m 182 1135 l 182 1290 l 703 1290 l 703 1135 l 182 1135 z "},"Ḕ":{"ha":830,"x_min":76,"x_max":785,"o":"m 326 210 l 785 210 l 785 0 l 76 0 l 76 1028 l 778 1028 l 778 817 l 326 817 l 326 630 l 706 630 l 706 420 l 326 420 l 326 210 m 318 1370 l 162 1531 l 448 1531 l 567 1370 l 318 1370 m 182 1135 l 182 1290 l 703 1290 l 703 1135 l 182 1135 z "},"Ę":{"ha":830,"x_min":76,"x_max":785,"o":"m 727 0 q 596 -70 632 -35 q 560 -149 560 -106 q 654 -215 560 -215 q 748 -196 697 -215 l 748 -292 q 620 -314 688 -314 q 470 -274 520 -314 q 419 -164 419 -235 q 445 -74 419 -115 q 531 0 472 -34 l 76 0 l 76 1028 l 778 1028 l 778 817 l 326 817 l 326 630 l 706 630 l 706 420 l 326 420 l 326 210 l 785 210 l 785 0 l 727 0 z "},"Ẽ":{"ha":830,"x_min":76,"x_max":785,"o":"m 326 210 l 785 210 l 785 0 l 76 0 l 76 1028 l 778 1028 l 778 817 l 326 817 l 326 630 l 706 630 l 706 420 l 326 420 l 326 210 m 562 1111 q 499 1118 528 1111 q 430 1140 469 1126 q 368 1159 392 1153 q 319 1165 345 1165 q 245 1153 277 1165 q 179 1115 213 1141 l 179 1262 q 242 1302 208 1290 q 323 1315 276 1315 q 385 1307 356 1315 q 455 1285 414 1299 q 515 1265 491 1272 q 565 1259 540 1259 q 639 1271 607 1259 q 705 1310 672 1283 l 705 1163 q 643 1123 677 1135 q 562 1111 609 1111 z "},"F":{"ha":796,"x_min":76,"x_max":777,"o":"m 777 815 l 330 815 l 330 602 l 708 602 l 708 389 l 330 389 l 330 0 l 76 0 l 76 1028 l 777 1028 l 777 815 z "},"G":{"ha":942,"x_min":47,"x_max":869,"o":"m 869 500 l 869 9 q 620 -13 735 -13 q 190 116 333 -13 q 47 513 47 245 q 193 909 47 776 q 619 1042 339 1042 q 842 1016 739 1042 l 842 805 q 645 829 735 829 q 455 798 527 829 q 347 696 382 766 q 313 509 313 626 q 383 272 313 345 q 596 198 453 198 q 634 199 622 198 l 634 500 l 869 500 z "},"Ǵ":{"ha":942,"x_min":47,"x_max":869,"o":"m 869 500 l 869 9 q 620 -13 735 -13 q 190 116 333 -13 q 47 513 47 245 q 193 909 47 776 q 619 1042 339 1042 q 842 1016 739 1042 l 842 805 q 645 829 735 829 q 455 798 527 829 q 347 696 382 766 q 313 509 313 626 q 383 272 313 345 q 596 198 453 198 q 634 199 622 198 l 634 500 l 869 500 m 429 1104 l 548 1319 l 808 1319 l 653 1104 l 429 1104 z "},"Ğ":{"ha":942,"x_min":47,"x_max":869,"o":"m 869 500 l 869 9 q 620 -13 735 -13 q 190 116 333 -13 q 47 513 47 245 q 193 909 47 776 q 619 1042 339 1042 q 842 1016 739 1042 l 842 805 q 645 829 735 829 q 455 798 527 829 q 347 696 382 766 q 313 509 313 626 q 383 272 313 345 q 596 198 453 198 q 634 199 622 198 l 634 500 l 869 500 m 542 1105 q 357 1161 424 1105 q 279 1317 290 1217 l 431 1317 q 465 1248 438 1270 q 542 1226 491 1226 q 619 1248 592 1226 q 652 1317 645 1270 l 803 1317 q 726 1160 792 1216 q 542 1105 659 1105 z "},"Ǧ":{"ha":942,"x_min":47,"x_max":869,"o":"m 869 500 l 869 9 q 620 -13 735 -13 q 190 116 333 -13 q 47 513 47 245 q 193 909 47 776 q 619 1042 339 1042 q 842 1016 739 1042 l 842 805 q 645 829 735 829 q 455 798 527 829 q 347 696 382 766 q 313 509 313 626 q 383 272 313 345 q 596 198 453 198 q 634 199 622 198 l 634 500 l 869 500 m 626 1319 l 803 1319 l 647 1104 l 436 1104 l 280 1319 l 456 1319 l 542 1194 l 626 1319 z "},"Ĝ":{"ha":942,"x_min":47,"x_max":869,"o":"m 869 500 l 869 9 q 620 -13 735 -13 q 190 116 333 -13 q 47 513 47 245 q 193 909 47 776 q 619 1042 339 1042 q 842 1016 739 1042 l 842 805 q 645 829 735 829 q 455 798 527 829 q 347 696 382 766 q 313 509 313 626 q 383 272 313 345 q 596 198 453 198 q 634 199 622 198 l 634 500 l 869 500 m 803 1104 l 626 1104 l 542 1230 l 456 1104 l 280 1104 l 436 1319 l 647 1319 l 803 1104 z "},"Ģ":{"ha":942,"x_min":47,"x_max":869,"o":"m 869 500 l 869 9 q 620 -13 735 -13 q 190 116 333 -13 q 47 513 47 245 q 193 909 47 776 q 619 1042 339 1042 q 842 1016 739 1042 l 842 805 q 645 829 735 829 q 455 798 527 829 q 347 696 382 766 q 313 509 313 626 q 383 272 313 345 q 596 198 453 198 q 634 199 622 198 l 634 500 l 869 500 m 541 -79 q 678 -193 678 -79 q 662 -276 678 -232 q 620 -353 645 -321 l 464 -353 q 505 -250 497 -291 q 429 -223 453 -244 q 405 -165 405 -201 q 438 -101 405 -124 q 541 -79 472 -79 z "},"Ġ":{"ha":942,"x_min":47,"x_max":869,"o":"m 869 500 l 869 9 q 620 -13 735 -13 q 190 116 333 -13 q 47 513 47 245 q 193 909 47 776 q 619 1042 339 1042 q 842 1016 739 1042 l 842 805 q 645 829 735 829 q 455 798 527 829 q 347 696 382 766 q 313 509 313 626 q 383 272 313 345 q 596 198 453 198 q 634 199 622 198 l 634 500 l 869 500 m 542 1101 q 428 1130 468 1101 q 389 1215 389 1159 q 428 1301 389 1272 q 542 1330 468 1330 q 655 1301 615 1330 q 694 1215 694 1272 q 655 1130 694 1159 q 542 1101 615 1101 z "},"Ḡ":{"ha":942,"x_min":47,"x_max":869,"o":"m 869 500 l 869 9 q 620 -13 735 -13 q 190 116 333 -13 q 47 513 47 245 q 193 909 47 776 q 619 1042 339 1042 q 842 1016 739 1042 l 842 805 q 645 829 735 829 q 455 798 527 829 q 347 696 382 766 q 313 509 313 626 q 383 272 313 345 q 596 198 453 198 q 634 199 622 198 l 634 500 l 869 500 m 281 1135 l 281 1290 l 802 1290 l 802 1135 l 281 1135 z "},"H":{"ha":1007,"x_min":76,"x_max":931,"o":"m 76 0 l 76 1028 l 330 1028 l 330 639 l 677 639 l 677 1028 l 931 1028 l 931 0 l 677 0 l 677 410 l 330 410 l 330 0 l 76 0 z "},"Ħ":{"ha":1007,"x_min":1,"x_max":1006,"o":"m 1006 908 l 1006 753 l 931 753 l 931 0 l 677 0 l 677 410 l 330 410 l 330 0 l 76 0 l 76 753 l 1 753 l 1 908 l 76 908 l 76 1028 l 330 1028 l 330 908 l 677 908 l 677 1028 l 931 1028 l 931 908 l 1006 908 m 677 639 l 677 753 l 330 753 l 330 639 l 677 639 z "},"Ḫ":{"ha":1007,"x_min":76,"x_max":931,"o":"m 76 0 l 76 1028 l 330 1028 l 330 639 l 677 639 l 677 1028 l 931 1028 l 931 0 l 677 0 l 677 410 l 330 410 l 330 0 l 76 0 m 504 -308 q 319 -252 387 -308 q 242 -96 252 -197 l 393 -96 q 427 -165 400 -143 q 504 -187 453 -187 q 582 -165 555 -187 q 615 -96 608 -143 l 766 -96 q 689 -253 756 -197 q 504 -308 622 -308 z "},"Ĥ":{"ha":1007,"x_min":76,"x_max":931,"o":"m 76 0 l 76 1028 l 330 1028 l 330 639 l 677 639 l 677 1028 l 931 1028 l 931 0 l 677 0 l 677 410 l 330 410 l 330 0 l 76 0 m 765 1104 l 589 1104 l 504 1230 l 419 1104 l 242 1104 l 399 1319 l 609 1319 l 765 1104 z "},"Ḥ":{"ha":1007,"x_min":76,"x_max":931,"o":"m 76 0 l 76 1028 l 330 1028 l 330 639 l 677 639 l 677 1028 l 931 1028 l 931 0 l 677 0 l 677 410 l 330 410 l 330 0 l 76 0 m 504 -308 q 391 -279 431 -308 q 351 -194 351 -250 q 391 -108 351 -137 q 504 -79 431 -79 q 617 -108 578 -79 q 656 -194 656 -137 q 617 -279 656 -250 q 504 -308 578 -308 z "},"I":{"ha":406,"x_min":76,"x_max":330,"o":"m 76 0 l 76 1028 l 330 1028 l 330 0 l 76 0 z "},"Í":{"ha":406,"x_min":76,"x_max":469,"o":"m 76 0 l 76 1028 l 330 1028 l 330 0 l 76 0 m 90 1104 l 209 1319 l 469 1319 l 314 1104 l 90 1104 z "},"Ĭ":{"ha":406,"x_min":-60,"x_max":465,"o":"m 76 0 l 76 1028 l 330 1028 l 330 0 l 76 0 m 203 1105 q 18 1161 85 1105 q -60 1317 -49 1217 l 92 1317 q 126 1248 99 1270 q 203 1226 152 1226 q 280 1248 253 1226 q 313 1317 306 1270 l 465 1317 q 387 1160 453 1216 q 203 1105 320 1105 z "},"Î":{"ha":406,"x_min":-59,"x_max":464,"o":"m 76 0 l 76 1028 l 330 1028 l 330 0 l 76 0 m 464 1104 l 288 1104 l 203 1230 l 117 1104 l -59 1104 l 97 1319 l 308 1319 l 464 1104 z "},"Ȉ":{"ha":406,"x_min":-138,"x_max":443,"o":"m 76 0 l 76 1028 l 330 1028 l 330 0 l 76 0 m -38 1104 l -138 1319 l 61 1319 l 150 1104 l -38 1104 m 255 1104 l 154 1319 l 354 1319 l 443 1104 l 255 1104 z "},"Ï":{"ha":406,"x_min":-108,"x_max":513,"o":"m 76 0 l 76 1028 l 330 1028 l 330 0 l 76 0 m 26 1101 q -74 1131 -39 1101 q -108 1215 -108 1160 q -74 1300 -108 1270 q 26 1330 -39 1330 q 125 1300 90 1330 q 160 1215 160 1270 q 125 1131 160 1160 q 26 1101 90 1101 m 379 1101 q 280 1131 315 1101 q 245 1215 245 1160 q 280 1300 245 1270 q 379 1330 315 1330 q 478 1300 444 1330 q 513 1215 513 1270 q 478 1131 513 1160 q 379 1101 444 1101 z "},"Ḯ":{"ha":406,"x_min":-108,"x_max":513,"o":"m 76 0 l 76 1028 l 330 1028 l 330 0 l 76 0 m 78 1370 l 197 1531 l 483 1531 l 327 1370 l 78 1370 m 26 1101 q -74 1131 -39 1101 q -108 1215 -108 1160 q -74 1300 -108 1270 q 26 1330 -39 1330 q 125 1300 90 1330 q 160 1215 160 1270 q 125 1131 160 1160 q 26 1101 90 1101 m 379 1101 q 280 1131 315 1101 q 245 1215 245 1160 q 280 1300 245 1270 q 379 1330 315 1330 q 478 1300 444 1330 q 513 1215 513 1270 q 478 1131 513 1160 q 379 1101 444 1101 z "},"İ":{"ha":406,"x_min":50,"x_max":355,"o":"m 76 0 l 76 1028 l 330 1028 l 330 0 l 76 0 m 203 1101 q 90 1130 129 1101 q 50 1215 50 1159 q 90 1301 50 1272 q 203 1330 129 1330 q 316 1301 276 1330 q 355 1215 355 1272 q 316 1130 355 1159 q 203 1101 276 1101 z "},"Ị":{"ha":406,"x_min":50,"x_max":355,"o":"m 76 0 l 76 1028 l 330 1028 l 330 0 l 76 0 m 203 -308 q 90 -279 129 -308 q 50 -194 50 -250 q 90 -108 50 -137 q 203 -79 129 -79 q 316 -108 276 -79 q 355 -194 355 -137 q 316 -279 355 -250 q 203 -308 276 -308 z "},"Ì":{"ha":406,"x_min":-65,"x_max":330,"o":"m 76 0 l 76 1028 l 330 1028 l 330 0 l 76 0 m 90 1104 l -65 1319 l 196 1319 l 315 1104 l 90 1104 z "},"Ỉ":{"ha":406,"x_min":51,"x_max":383,"o":"m 76 0 l 76 1028 l 330 1028 l 330 0 l 76 0 m 141 1104 q 163 1156 143 1138 q 217 1191 183 1174 q 242 1205 235 1199 q 250 1218 250 1210 q 233 1236 250 1231 q 180 1242 216 1242 q 51 1227 113 1242 l 51 1320 q 122 1332 79 1328 q 200 1337 164 1337 q 339 1313 294 1337 q 383 1238 383 1289 q 367 1195 383 1211 q 319 1160 351 1178 q 279 1133 292 1144 q 264 1104 266 1122 l 141 1104 z "},"Ȋ":{"ha":406,"x_min":-60,"x_max":465,"o":"m 76 0 l 76 1028 l 330 1028 l 330 0 l 76 0 m -60 1106 q 18 1263 -49 1207 q 202 1319 85 1319 q 386 1263 319 1319 q 465 1106 453 1207 l 313 1106 q 279 1176 306 1153 q 202 1198 253 1198 q 126 1176 152 1198 q 92 1106 99 1153 l -60 1106 z "},"Ī":{"ha":406,"x_min":-58,"x_max":463,"o":"m 76 0 l 76 1028 l 330 1028 l 330 0 l 76 0 m -58 1135 l -58 1290 l 463 1290 l 463 1135 l -58 1135 z "},"Į":{"ha":406,"x_min":22,"x_max":351,"o":"m 257 -215 q 351 -196 299 -215 l 351 -292 q 223 -314 291 -314 q 73 -274 123 -314 q 22 -164 22 -235 q 48 -74 22 -115 q 133 0 74 -34 l 76 0 l 76 1028 l 330 1028 l 330 0 q 199 -70 235 -35 q 163 -149 163 -106 q 257 -215 163 -215 z "},"Ĩ":{"ha":406,"x_min":-60,"x_max":465,"o":"m 76 0 l 76 1028 l 330 1028 l 330 0 l 76 0 m 322 1111 q 259 1118 289 1111 q 190 1140 230 1126 q 129 1159 152 1153 q 80 1165 106 1165 q 5 1153 38 1165 q -60 1115 -27 1141 l -60 1262 q 2 1302 -32 1290 q 83 1315 36 1315 q 145 1307 117 1315 q 215 1285 174 1299 q 276 1265 251 1272 q 326 1259 300 1259 q 400 1271 367 1259 q 465 1310 432 1283 l 465 1163 q 403 1123 438 1135 q 322 1111 369 1111 z "},"J":{"ha":406,"x_min":-25,"x_max":330,"o":"m -25 -135 q 54 22 32 -55 q 76 210 76 99 l 76 1028 l 330 1028 l 330 217 q 286 -25 329 83 q 139 -243 242 -134 l -25 -135 z "},"Ĵ":{"ha":406,"x_min":-59,"x_max":464,"o":"m -25 -135 q 54 22 32 -55 q 76 210 76 99 l 76 1028 l 330 1028 l 330 217 q 286 -25 329 83 q 139 -243 242 -134 l -25 -135 m 464 1104 l 288 1104 l 203 1230 l 117 1104 l -59 1104 l 97 1319 l 308 1319 l 464 1104 z "},"K":{"ha":894,"x_min":76,"x_max":935,"o":"m 663 0 l 406 410 l 330 410 l 330 0 l 76 0 l 76 1028 l 330 1028 l 330 639 l 408 639 l 643 1028 l 908 1028 l 607 531 l 935 0 l 663 0 z "},"Ķ":{"ha":894,"x_min":76,"x_max":935,"o":"m 663 0 l 406 410 l 330 410 l 330 0 l 76 0 l 76 1028 l 330 1028 l 330 639 l 408 639 l 643 1028 l 908 1028 l 607 531 l 935 0 l 663 0 m 467 -79 q 605 -193 605 -79 q 588 -276 605 -232 q 547 -353 572 -321 l 390 -353 q 431 -250 423 -291 q 356 -223 380 -244 q 331 -165 331 -201 q 365 -101 331 -124 q 467 -79 398 -79 z "},"L":{"ha":761,"x_min":76,"x_max":756,"o":"m 76 0 l 76 1028 l 330 1028 l 330 218 l 756 218 l 756 0 l 76 0 z "},"Ǉ":{"ha":1167,"x_min":76,"x_max":1091,"o":"m 76 0 l 76 1028 l 330 1028 l 330 218 l 756 218 l 756 0 l 76 0 m 736 -135 q 815 22 793 -55 q 838 210 838 99 l 838 1028 l 1091 1028 l 1091 217 q 1047 -25 1090 83 q 900 -243 1003 -134 l 736 -135 z "},"Ĺ":{"ha":761,"x_min":76,"x_max":756,"o":"m 76 0 l 76 1028 l 330 1028 l 330 218 l 756 218 l 756 0 l 76 0 m 94 1104 l 213 1319 l 473 1319 l 317 1104 l 94 1104 z "},"Ľ":{"ha":761,"x_min":76,"x_max":756,"o":"m 76 0 l 76 1028 l 330 1028 l 330 218 l 756 218 l 756 0 l 76 0 m 478 792 q 495 944 490 871 q 500 1122 500 1018 l 667 1122 q 615 792 667 921 l 478 792 z "},"Ļ":{"ha":761,"x_min":76,"x_max":756,"o":"m 76 0 l 76 1028 l 330 1028 l 330 218 l 756 218 l 756 0 l 76 0 m 415 -79 q 553 -193 553 -79 q 536 -276 553 -232 q 494 -353 519 -321 l 338 -353 q 379 -250 371 -291 q 303 -223 328 -244 q 279 -165 279 -201 q 313 -101 279 -124 q 415 -79 346 -79 z "},"Ŀ":{"ha":761,"x_min":76,"x_max":756,"o":"m 76 0 l 76 1028 l 330 1028 l 330 218 l 756 218 l 756 0 l 76 0 m 578 483 q 463 517 501 483 q 425 615 425 551 q 463 712 425 678 q 578 747 501 747 q 692 713 655 747 q 730 615 730 678 q 692 517 730 551 q 578 483 655 483 z "},"Ḷ":{"ha":761,"x_min":76,"x_max":756,"o":"m 76 0 l 76 1028 l 330 1028 l 330 218 l 756 218 l 756 0 l 76 0 m 416 -308 q 303 -279 342 -308 q 263 -194 263 -250 q 303 -108 263 -137 q 416 -79 342 -79 q 529 -108 490 -79 q 568 -194 568 -137 q 529 -279 568 -250 q 416 -308 490 -308 z "},"ǈ":{"ha":1147,"x_min":76,"x_max":1105,"o":"m 76 0 l 76 1028 l 330 1028 l 330 218 l 756 218 l 756 0 l 76 0 m 727 -221 q 806 -65 784 -142 q 828 124 828 13 l 828 762 l 1079 762 l 1079 134 q 1036 -110 1079 -1 q 890 -329 993 -219 l 727 -221 m 953 854 q 838 888 876 854 q 800 986 800 922 q 838 1084 800 1049 q 953 1118 876 1118 q 1067 1084 1030 1118 q 1105 986 1105 1050 q 1067 888 1105 922 q 953 854 1030 854 z "},"Ḻ":{"ha":761,"x_min":76,"x_max":756,"o":"m 76 0 l 76 1028 l 330 1028 l 330 218 l 756 218 l 756 0 l 76 0 m 156 -265 l 156 -110 l 676 -110 l 676 -265 l 156 -265 z "},"Ł":{"ha":761,"x_min":-46,"x_max":756,"o":"m 330 218 l 756 218 l 756 0 l 76 0 l 76 424 l 30 401 l -46 551 l 76 613 l 76 1028 l 330 1028 l 330 744 l 503 833 l 578 683 l 330 556 l 330 218 z "},"M":{"ha":1259,"x_min":78,"x_max":1181,"o":"m 868 1028 l 1181 1028 l 1181 0 l 944 0 l 944 682 l 731 151 l 528 151 l 315 662 l 315 0 l 78 0 l 78 1028 l 390 1028 l 633 424 l 868 1028 z "},"Ṃ":{"ha":1259,"x_min":78,"x_max":1181,"o":"m 868 1028 l 1181 1028 l 1181 0 l 944 0 l 944 682 l 731 151 l 528 151 l 315 662 l 315 0 l 78 0 l 78 1028 l 390 1028 l 633 424 l 868 1028 m 646 -308 q 533 -279 572 -308 q 493 -194 493 -250 q 533 -108 493 -137 q 646 -79 572 -79 q 759 -108 719 -79 q 798 -194 798 -137 q 759 -279 798 -250 q 646 -308 719 -308 z "},"N":{"ha":1017,"x_min":76,"x_max":942,"o":"m 703 1028 l 942 1028 l 942 0 l 688 0 l 314 623 l 314 0 l 76 0 l 76 1028 l 330 1028 l 703 405 l 703 1028 z "},"Ǌ":{"ha":1423,"x_min":76,"x_max":1347,"o":"m 703 1028 l 942 1028 l 942 0 l 688 0 l 314 623 l 314 0 l 76 0 l 76 1028 l 330 1028 l 703 405 l 703 1028 m 992 -135 q 1072 22 1049 -55 q 1094 210 1094 99 l 1094 1028 l 1347 1028 l 1347 217 q 1303 -25 1347 83 q 1156 -243 1260 -134 l 992 -135 z "},"Ń":{"ha":1017,"x_min":76,"x_max":942,"o":"m 703 1028 l 942 1028 l 942 0 l 688 0 l 314 623 l 314 0 l 76 0 l 76 1028 l 330 1028 l 703 405 l 703 1028 m 397 1104 l 515 1319 l 776 1319 l 620 1104 l 397 1104 z "},"Ň":{"ha":1017,"x_min":76,"x_max":942,"o":"m 703 1028 l 942 1028 l 942 0 l 688 0 l 314 623 l 314 0 l 76 0 l 76 1028 l 330 1028 l 703 405 l 703 1028 m 594 1319 l 770 1319 l 614 1104 l 403 1104 l 247 1319 l 424 1319 l 509 1194 l 594 1319 z "},"Ņ":{"ha":1017,"x_min":76,"x_max":942,"o":"m 703 1028 l 942 1028 l 942 0 l 688 0 l 314 623 l 314 0 l 76 0 l 76 1028 l 330 1028 l 703 405 l 703 1028 m 508 -79 q 646 -193 646 -79 q 629 -276 646 -232 q 588 -353 613 -321 l 431 -353 q 472 -250 464 -291 q 397 -223 421 -244 q 372 -165 372 -201 q 406 -101 372 -124 q 508 -79 439 -79 z "},"Ṅ":{"ha":1017,"x_min":76,"x_max":942,"o":"m 703 1028 l 942 1028 l 942 0 l 688 0 l 314 623 l 314 0 l 76 0 l 76 1028 l 330 1028 l 703 405 l 703 1028 m 509 1101 q 396 1130 435 1101 q 356 1215 356 1159 q 396 1301 356 1272 q 509 1330 435 1330 q 622 1301 583 1330 q 661 1215 661 1272 q 622 1130 661 1159 q 509 1101 583 1101 z "},"Ṇ":{"ha":1017,"x_min":76,"x_max":942,"o":"m 703 1028 l 942 1028 l 942 0 l 688 0 l 314 623 l 314 0 l 76 0 l 76 1028 l 330 1028 l 703 405 l 703 1028 m 509 -308 q 396 -279 435 -308 q 356 -194 356 -250 q 396 -108 356 -137 q 509 -79 435 -79 q 622 -108 583 -79 q 661 -194 661 -137 q 622 -279 661 -250 q 509 -308 583 -308 z "},"Ŋ":{"ha":1017,"x_min":76,"x_max":942,"o":"m 942 1028 l 942 158 q 924 -25 942 56 q 864 -181 906 -107 q 753 -329 823 -254 l 590 -221 q 656 -116 631 -167 q 692 -8 681 -66 l 314 623 l 314 0 l 76 0 l 76 1028 l 330 1028 l 703 408 l 703 1028 l 942 1028 z "},"ǋ":{"ha":1403,"x_min":76,"x_max":1361,"o":"m 703 1028 l 942 1028 l 942 0 l 688 0 l 314 623 l 314 0 l 76 0 l 76 1028 l 330 1028 l 703 405 l 703 1028 m 983 -221 q 1063 -65 1040 -142 q 1085 124 1085 13 l 1085 762 l 1335 762 l 1335 134 q 1292 -110 1335 -1 q 1147 -329 1249 -219 l 983 -221 m 1209 854 q 1094 888 1132 854 q 1056 986 1056 922 q 1094 1084 1056 1049 q 1209 1118 1132 1118 q 1324 1084 1286 1118 q 1361 986 1361 1050 q 1324 888 1361 922 q 1209 854 1286 854 z "},"Ṉ":{"ha":1017,"x_min":76,"x_max":942,"o":"m 703 1028 l 942 1028 l 942 0 l 688 0 l 314 623 l 314 0 l 76 0 l 76 1028 l 330 1028 l 703 405 l 703 1028 m 249 -265 l 249 -110 l 769 -110 l 769 -265 l 249 -265 z "},"Ñ":{"ha":1017,"x_min":76,"x_max":942,"o":"m 703 1028 l 942 1028 l 942 0 l 688 0 l 314 623 l 314 0 l 76 0 l 76 1028 l 330 1028 l 703 405 l 703 1028 m 628 1111 q 566 1118 595 1111 q 497 1140 536 1126 q 435 1159 458 1153 q 386 1165 412 1165 q 311 1153 344 1165 q 246 1115 279 1141 l 246 1262 q 308 1302 274 1290 q 390 1315 342 1315 q 452 1307 423 1315 q 522 1285 481 1299 q 582 1265 558 1272 q 632 1259 606 1259 q 706 1271 674 1259 q 772 1310 738 1283 l 772 1163 q 710 1123 744 1135 q 628 1111 676 1111 z "},"O":{"ha":1031,"x_min":47,"x_max":984,"o":"m 516 -14 q 268 43 373 -14 q 105 218 163 100 q 47 514 47 336 q 105 810 47 692 q 268 985 163 928 q 516 1042 373 1042 q 764 985 659 1042 q 926 810 869 928 q 984 514 984 692 q 926 218 984 336 q 764 43 869 100 q 516 -14 659 -14 m 516 194 q 670 268 618 194 q 723 509 723 342 q 670 758 723 682 q 516 833 618 833 q 361 759 414 833 q 308 519 308 685 q 360 270 308 345 q 516 194 413 194 z "},"Ó":{"ha":1031,"x_min":47,"x_max":984,"o":"m 516 -14 q 268 43 373 -14 q 105 218 163 100 q 47 514 47 336 q 105 810 47 692 q 268 985 163 928 q 516 1042 373 1042 q 764 985 659 1042 q 926 810 869 928 q 984 514 984 692 q 926 218 984 336 q 764 43 869 100 q 516 -14 659 -14 m 516 194 q 670 268 618 194 q 723 509 723 342 q 670 758 723 682 q 516 833 618 833 q 361 759 414 833 q 308 519 308 685 q 360 270 308 345 q 516 194 413 194 m 403 1104 l 522 1319 l 783 1319 l 627 1104 l 403 1104 z "},"Ŏ":{"ha":1031,"x_min":47,"x_max":984,"o":"m 516 -14 q 268 43 373 -14 q 105 218 163 100 q 47 514 47 336 q 105 810 47 692 q 268 985 163 928 q 516 1042 373 1042 q 764 985 659 1042 q 926 810 869 928 q 984 514 984 692 q 926 218 984 336 q 764 43 869 100 q 516 -14 659 -14 m 516 194 q 670 268 618 194 q 723 509 723 342 q 670 758 723 682 q 516 833 618 833 q 361 759 414 833 q 308 519 308 685 q 360 270 308 345 q 516 194 413 194 m 516 1105 q 332 1161 399 1105 q 253 1317 265 1217 l 405 1317 q 439 1248 413 1270 q 516 1226 465 1226 q 593 1248 567 1226 q 626 1317 619 1270 l 778 1317 q 700 1160 767 1216 q 516 1105 633 1105 z "},"Ô":{"ha":1031,"x_min":47,"x_max":984,"o":"m 516 -14 q 268 43 373 -14 q 105 218 163 100 q 47 514 47 336 q 105 810 47 692 q 268 985 163 928 q 516 1042 373 1042 q 764 985 659 1042 q 926 810 869 928 q 984 514 984 692 q 926 218 984 336 q 764 43 869 100 q 516 -14 659 -14 m 516 194 q 670 268 618 194 q 723 509 723 342 q 670 758 723 682 q 516 833 618 833 q 361 759 414 833 q 308 519 308 685 q 360 270 308 345 q 516 194 413 194 m 777 1104 l 601 1104 l 516 1230 l 431 1104 l 254 1104 l 410 1319 l 621 1319 l 777 1104 z "},"Ố":{"ha":1031,"x_min":47,"x_max":984,"o":"m 516 -14 q 268 43 373 -14 q 105 218 163 100 q 47 514 47 336 q 105 810 47 692 q 268 985 163 928 q 516 1042 373 1042 q 764 985 659 1042 q 926 810 869 928 q 984 514 984 692 q 926 218 984 336 q 764 43 869 100 q 516 -14 659 -14 m 516 194 q 670 268 618 194 q 723 509 723 342 q 670 758 723 682 q 516 833 618 833 q 361 759 414 833 q 308 519 308 685 q 360 270 308 345 q 516 194 413 194 m 758 1433 l 919 1433 l 813 1266 l 688 1266 l 758 1433 m 410 1293 l 621 1293 l 777 1104 l 601 1104 l 516 1215 l 431 1104 l 254 1104 l 410 1293 z "},"Ộ":{"ha":1031,"x_min":47,"x_max":984,"o":"m 516 -14 q 268 43 373 -14 q 105 218 163 100 q 47 514 47 336 q 105 810 47 692 q 268 985 163 928 q 516 1042 373 1042 q 764 985 659 1042 q 926 810 869 928 q 984 514 984 692 q 926 218 984 336 q 764 43 869 100 q 516 -14 659 -14 m 516 194 q 670 268 618 194 q 723 509 723 342 q 670 758 723 682 q 516 833 618 833 q 361 759 414 833 q 308 519 308 685 q 360 270 308 345 q 516 194 413 194 m 516 -308 q 403 -279 442 -308 q 363 -194 363 -250 q 403 -108 363 -137 q 516 -79 442 -79 q 629 -108 590 -79 q 668 -194 668 -137 q 629 -279 668 -250 q 516 -308 590 -308 m 777 1104 l 601 1104 l 516 1230 l 431 1104 l 254 1104 l 410 1319 l 621 1319 l 777 1104 z "},"Ồ":{"ha":1031,"x_min":47,"x_max":984,"o":"m 516 -14 q 268 43 373 -14 q 105 218 163 100 q 47 514 47 336 q 105 810 47 692 q 268 985 163 928 q 516 1042 373 1042 q 764 985 659 1042 q 926 810 869 928 q 984 514 984 692 q 926 218 984 336 q 764 43 869 100 q 516 -14 659 -14 m 516 194 q 670 268 618 194 q 723 509 723 342 q 670 758 723 682 q 516 833 618 833 q 361 759 414 833 q 308 519 308 685 q 360 270 308 345 q 516 194 413 194 m 840 1266 l 714 1266 l 609 1433 l 769 1433 l 840 1266 m 410 1293 l 621 1293 l 777 1104 l 601 1104 l 516 1215 l 431 1104 l 254 1104 l 410 1293 z "},"Ổ":{"ha":1031,"x_min":47,"x_max":984,"o":"m 516 -14 q 268 43 373 -14 q 105 218 163 100 q 47 514 47 336 q 105 810 47 692 q 268 985 163 928 q 516 1042 373 1042 q 764 985 659 1042 q 926 810 869 928 q 984 514 984 692 q 926 218 984 336 q 764 43 869 100 q 516 -14 659 -14 m 516 194 q 670 268 618 194 q 723 509 723 342 q 670 758 723 682 q 516 833 618 833 q 361 759 414 833 q 308 519 308 685 q 360 270 308 345 q 516 194 413 194 m 747 1469 q 885 1449 841 1469 q 929 1383 929 1428 q 913 1345 929 1359 q 866 1315 897 1331 q 827 1292 840 1303 q 811 1266 813 1281 l 688 1266 q 710 1311 690 1295 q 763 1342 730 1328 q 789 1355 781 1349 q 797 1367 797 1360 q 726 1388 797 1388 q 599 1375 660 1388 l 599 1454 q 670 1465 627 1461 q 747 1469 713 1469 m 410 1293 l 621 1293 l 777 1104 l 601 1104 l 516 1215 l 431 1104 l 254 1104 l 410 1293 z "},"Ỗ":{"ha":1031,"x_min":47,"x_max":984,"o":"m 516 -14 q 268 43 373 -14 q 105 218 163 100 q 47 514 47 336 q 105 810 47 692 q 268 985 163 928 q 516 1042 373 1042 q 764 985 659 1042 q 926 810 869 928 q 984 514 984 692 q 926 218 984 336 q 764 43 869 100 q 516 -14 659 -14 m 516 194 q 670 268 618 194 q 723 509 723 342 q 670 758 723 682 q 516 833 618 833 q 361 759 414 833 q 308 519 308 685 q 360 270 308 345 q 516 194 413 194 m 627 1428 q 701 1438 668 1428 q 777 1474 735 1449 l 777 1365 q 707 1331 741 1340 q 625 1322 674 1322 q 569 1327 595 1322 q 501 1344 544 1333 q 448 1358 469 1353 q 404 1363 426 1363 q 330 1353 363 1363 q 254 1317 297 1342 l 254 1426 q 325 1461 290 1451 q 406 1470 359 1470 q 465 1464 437 1470 q 530 1447 492 1458 q 584 1433 562 1438 q 627 1428 606 1428 m 410 1293 l 621 1293 l 777 1104 l 601 1104 l 516 1215 l 431 1104 l 254 1104 l 410 1293 z "},"Ȍ":{"ha":1031,"x_min":47,"x_max":984,"o":"m 516 -14 q 268 43 373 -14 q 105 218 163 100 q 47 514 47 336 q 105 810 47 692 q 268 985 163 928 q 516 1042 373 1042 q 764 985 659 1042 q 926 810 869 928 q 984 514 984 692 q 926 218 984 336 q 764 43 869 100 q 516 -14 659 -14 m 516 194 q 670 268 618 194 q 723 509 723 342 q 670 758 723 682 q 516 833 618 833 q 361 759 414 833 q 308 519 308 685 q 360 270 308 345 q 516 194 413 194 m 275 1104 l 175 1319 l 374 1319 l 463 1104 l 275 1104 m 568 1104 l 467 1319 l 667 1319 l 756 1104 l 568 1104 z "},"Ö":{"ha":1031,"x_min":47,"x_max":984,"o":"m 516 -14 q 268 43 373 -14 q 105 218 163 100 q 47 514 47 336 q 105 810 47 692 q 268 985 163 928 q 516 1042 373 1042 q 764 985 659 1042 q 926 810 869 928 q 984 514 984 692 q 926 218 984 336 q 764 43 869 100 q 516 -14 659 -14 m 516 194 q 670 268 618 194 q 723 509 723 342 q 670 758 723 682 q 516 833 618 833 q 361 759 414 833 q 308 519 308 685 q 360 270 308 345 q 516 194 413 194 m 339 1101 q 240 1131 274 1101 q 205 1215 205 1160 q 240 1300 205 1270 q 339 1330 274 1330 q 438 1300 403 1330 q 473 1215 473 1270 q 438 1131 473 1160 q 339 1101 403 1101 m 692 1101 q 593 1131 628 1101 q 558 1215 558 1160 q 593 1300 558 1270 q 692 1330 628 1330 q 792 1300 757 1330 q 826 1215 826 1270 q 792 1131 826 1160 q 692 1101 757 1101 z "},"Ȫ":{"ha":1031,"x_min":47,"x_max":984,"o":"m 516 -14 q 268 43 373 -14 q 105 218 163 100 q 47 514 47 336 q 105 810 47 692 q 268 985 163 928 q 516 1042 373 1042 q 764 985 659 1042 q 926 810 869 928 q 984 514 984 692 q 926 218 984 336 q 764 43 869 100 q 516 -14 659 -14 m 516 194 q 670 268 618 194 q 723 509 723 342 q 670 758 723 682 q 516 833 618 833 q 361 759 414 833 q 308 519 308 685 q 360 270 308 345 q 516 194 413 194 m 339 1101 q 240 1131 274 1101 q 205 1215 205 1160 q 240 1300 205 1270 q 339 1330 274 1330 q 438 1300 403 1330 q 473 1215 473 1270 q 438 1131 473 1160 q 339 1101 403 1101 m 692 1101 q 593 1131 628 1101 q 558 1215 558 1160 q 593 1300 558 1270 q 692 1330 628 1330 q 792 1300 757 1330 q 826 1215 826 1270 q 792 1131 826 1160 q 692 1101 757 1101 m 256 1398 l 256 1552 l 776 1552 l 776 1398 l 256 1398 z "},"Ȱ":{"ha":1031,"x_min":47,"x_max":984,"o":"m 516 -14 q 268 43 373 -14 q 105 218 163 100 q 47 514 47 336 q 105 810 47 692 q 268 985 163 928 q 516 1042 373 1042 q 764 985 659 1042 q 926 810 869 928 q 984 514 984 692 q 926 218 984 336 q 764 43 869 100 q 516 -14 659 -14 m 516 194 q 670 268 618 194 q 723 509 723 342 q 670 758 723 682 q 516 833 618 833 q 361 759 414 833 q 308 519 308 685 q 360 270 308 345 q 516 194 413 194 m 516 1101 q 403 1130 442 1101 q 363 1215 363 1159 q 403 1301 363 1272 q 516 1330 442 1330 q 629 1301 590 1330 q 668 1215 668 1272 q 629 1130 668 1159 q 516 1101 590 1101 m 256 1398 l 256 1552 l 776 1552 l 776 1398 l 256 1398 z "},"Ọ":{"ha":1031,"x_min":47,"x_max":984,"o":"m 516 -14 q 268 43 373 -14 q 105 218 163 100 q 47 514 47 336 q 105 810 47 692 q 268 985 163 928 q 516 1042 373 1042 q 764 985 659 1042 q 926 810 869 928 q 984 514 984 692 q 926 218 984 336 q 764 43 869 100 q 516 -14 659 -14 m 516 194 q 670 268 618 194 q 723 509 723 342 q 670 758 723 682 q 516 833 618 833 q 361 759 414 833 q 308 519 308 685 q 360 270 308 345 q 516 194 413 194 m 516 -308 q 403 -279 442 -308 q 363 -194 363 -250 q 403 -108 363 -137 q 516 -79 442 -79 q 629 -108 590 -79 q 668 -194 668 -137 q 629 -279 668 -250 q 516 -308 590 -308 z "},"Ò":{"ha":1031,"x_min":47,"x_max":984,"o":"m 516 -14 q 268 43 373 -14 q 105 218 163 100 q 47 514 47 336 q 105 810 47 692 q 268 985 163 928 q 516 1042 373 1042 q 764 985 659 1042 q 926 810 869 928 q 984 514 984 692 q 926 218 984 336 q 764 43 869 100 q 516 -14 659 -14 m 516 194 q 670 268 618 194 q 723 509 723 342 q 670 758 723 682 q 516 833 618 833 q 361 759 414 833 q 308 519 308 685 q 360 270 308 345 q 516 194 413 194 m 403 1104 l 248 1319 l 509 1319 l 628 1104 l 403 1104 z "},"Ỏ":{"ha":1031,"x_min":47,"x_max":984,"o":"m 516 -14 q 268 43 373 -14 q 105 218 163 100 q 47 514 47 336 q 105 810 47 692 q 268 985 163 928 q 516 1042 373 1042 q 764 985 659 1042 q 926 810 869 928 q 984 514 984 692 q 926 218 984 336 q 764 43 869 100 q 516 -14 659 -14 m 516 194 q 670 268 618 194 q 723 509 723 342 q 670 758 723 682 q 516 833 618 833 q 361 759 414 833 q 308 519 308 685 q 360 270 308 345 q 516 194 413 194 m 454 1104 q 476 1156 456 1138 q 530 1191 497 1174 q 556 1205 548 1199 q 563 1218 563 1210 q 546 1236 563 1231 q 493 1242 529 1242 q 365 1227 426 1242 l 365 1320 q 435 1332 392 1328 q 513 1337 477 1337 q 652 1313 608 1337 q 696 1238 696 1289 q 680 1195 696 1211 q 632 1160 664 1178 q 592 1133 606 1144 q 577 1104 579 1122 l 454 1104 z "},"Ơ":{"ha":1031,"x_min":47,"x_max":996,"o":"m 849 920 q 949 753 915 856 q 984 514 984 651 q 927 218 984 335 q 765 43 869 100 q 516 -14 660 -14 q 267 43 372 -14 q 105 218 162 100 q 47 514 47 335 q 105 810 47 692 q 268 985 163 928 q 516 1042 373 1042 q 569 1039 542 1042 q 621 1034 597 1037 q 708 1027 679 1027 q 794 1052 766 1027 q 823 1136 823 1077 q 812 1233 823 1183 l 982 1233 q 996 1123 996 1188 q 957 987 996 1038 q 849 920 919 937 m 516 194 q 670 268 618 194 q 723 509 723 342 q 670 758 723 682 q 516 833 618 833 q 361 759 414 833 q 308 519 308 685 q 360 270 308 345 q 516 194 413 194 z "},"Ớ":{"ha":1031,"x_min":47,"x_max":996,"o":"m 849 920 q 949 753 915 856 q 984 514 984 651 q 927 218 984 335 q 765 43 869 100 q 516 -14 660 -14 q 267 43 372 -14 q 105 218 162 100 q 47 514 47 335 q 105 810 47 692 q 268 985 163 928 q 516 1042 373 1042 q 569 1039 542 1042 q 621 1034 597 1037 q 708 1027 679 1027 q 794 1052 766 1027 q 823 1136 823 1077 q 812 1233 823 1183 l 982 1233 q 996 1123 996 1188 q 957 987 996 1038 q 849 920 919 937 m 516 194 q 670 268 618 194 q 723 509 723 342 q 670 758 723 682 q 516 833 618 833 q 361 759 414 833 q 308 519 308 685 q 360 270 308 345 q 516 194 413 194 m 403 1104 l 522 1319 l 783 1319 l 627 1104 l 403 1104 z "},"Ợ":{"ha":1031,"x_min":47,"x_max":996,"o":"m 849 920 q 949 753 915 856 q 984 514 984 651 q 927 218 984 335 q 765 43 869 100 q 516 -14 660 -14 q 267 43 372 -14 q 105 218 162 100 q 47 514 47 335 q 105 810 47 692 q 268 985 163 928 q 516 1042 373 1042 q 569 1039 542 1042 q 621 1034 597 1037 q 708 1027 679 1027 q 794 1052 766 1027 q 823 1136 823 1077 q 812 1233 823 1183 l 982 1233 q 996 1123 996 1188 q 957 987 996 1038 q 849 920 919 937 m 516 194 q 670 268 618 194 q 723 509 723 342 q 670 758 723 682 q 516 833 618 833 q 361 759 414 833 q 308 519 308 685 q 360 270 308 345 q 516 194 413 194 m 516 -308 q 403 -279 442 -308 q 363 -194 363 -250 q 403 -108 363 -137 q 516 -79 442 -79 q 629 -108 590 -79 q 668 -194 668 -137 q 629 -279 668 -250 q 516 -308 590 -308 z "},"Ờ":{"ha":1031,"x_min":47,"x_max":996,"o":"m 849 920 q 949 753 915 856 q 984 514 984 651 q 927 218 984 335 q 765 43 869 100 q 516 -14 660 -14 q 267 43 372 -14 q 105 218 162 100 q 47 514 47 335 q 105 810 47 692 q 268 985 163 928 q 516 1042 373 1042 q 569 1039 542 1042 q 621 1034 597 1037 q 708 1027 679 1027 q 794 1052 766 1027 q 823 1136 823 1077 q 812 1233 823 1183 l 982 1233 q 996 1123 996 1188 q 957 987 996 1038 q 849 920 919 937 m 516 194 q 670 268 618 194 q 723 509 723 342 q 670 758 723 682 q 516 833 618 833 q 361 759 414 833 q 308 519 308 685 q 360 270 308 345 q 516 194 413 194 m 403 1104 l 248 1319 l 509 1319 l 628 1104 l 403 1104 z "},"Ở":{"ha":1031,"x_min":47,"x_max":996,"o":"m 849 920 q 949 753 915 856 q 984 514 984 651 q 927 218 984 335 q 765 43 869 100 q 516 -14 660 -14 q 267 43 372 -14 q 105 218 162 100 q 47 514 47 335 q 105 810 47 692 q 268 985 163 928 q 516 1042 373 1042 q 569 1039 542 1042 q 621 1034 597 1037 q 708 1027 679 1027 q 794 1052 766 1027 q 823 1136 823 1077 q 812 1233 823 1183 l 982 1233 q 996 1123 996 1188 q 957 987 996 1038 q 849 920 919 937 m 516 194 q 670 268 618 194 q 723 509 723 342 q 670 758 723 682 q 516 833 618 833 q 361 759 414 833 q 308 519 308 685 q 360 270 308 345 q 516 194 413 194 m 454 1104 q 476 1156 456 1138 q 530 1191 497 1174 q 556 1205 548 1199 q 563 1218 563 1210 q 546 1236 563 1231 q 493 1242 529 1242 q 365 1227 426 1242 l 365 1320 q 435 1332 392 1328 q 513 1337 477 1337 q 652 1313 608 1337 q 696 1238 696 1289 q 680 1195 696 1211 q 632 1160 664 1178 q 592 1133 606 1144 q 577 1104 579 1122 l 454 1104 z "},"Ỡ":{"ha":1031,"x_min":47,"x_max":996,"o":"m 627 1111 q 567 1119 595 1111 q 504 1140 540 1126 q 447 1159 469 1153 q 401 1165 425 1165 q 332 1153 362 1165 q 271 1115 302 1141 l 271 1262 q 328 1302 297 1289 q 405 1315 360 1315 q 463 1307 436 1315 q 527 1285 490 1299 q 583 1265 560 1272 q 630 1259 606 1259 q 699 1271 669 1259 q 760 1310 729 1283 l 760 1163 q 703 1123 735 1135 q 627 1111 672 1111 m 849 920 q 949 753 915 856 q 984 514 984 651 q 927 218 984 335 q 765 43 869 100 q 516 -14 660 -14 q 267 43 372 -14 q 105 218 162 100 q 47 514 47 335 q 105 810 47 692 q 268 985 163 928 q 516 1042 373 1042 q 569 1039 542 1042 q 621 1034 597 1037 q 708 1027 679 1027 q 794 1052 766 1027 q 823 1136 823 1077 q 812 1233 823 1183 l 982 1233 q 996 1123 996 1188 q 957 987 996 1038 q 849 920 919 937 m 516 194 q 670 268 618 194 q 723 509 723 342 q 670 758 723 682 q 516 833 618 833 q 361 759 414 833 q 308 519 308 685 q 360 270 308 345 q 516 194 413 194 z "},"Ő":{"ha":1031,"x_min":47,"x_max":984,"o":"m 516 -14 q 268 43 373 -14 q 105 218 163 100 q 47 514 47 336 q 105 810 47 692 q 268 985 163 928 q 516 1042 373 1042 q 764 985 659 1042 q 926 810 869 928 q 984 514 984 692 q 926 218 984 336 q 764 43 869 100 q 516 -14 659 -14 m 516 194 q 670 268 618 194 q 723 509 723 342 q 670 758 723 682 q 516 833 618 833 q 361 759 414 833 q 308 519 308 685 q 360 270 308 345 q 516 194 413 194 m 275 1104 l 365 1319 l 564 1319 l 463 1104 l 275 1104 m 568 1104 l 657 1319 l 857 1319 l 756 1104 l 568 1104 z "},"Ȏ":{"ha":1031,"x_min":47,"x_max":984,"o":"m 516 -14 q 268 43 373 -14 q 105 218 163 100 q 47 514 47 336 q 105 810 47 692 q 268 985 163 928 q 516 1042 373 1042 q 764 985 659 1042 q 926 810 869 928 q 984 514 984 692 q 926 218 984 336 q 764 43 869 100 q 516 -14 659 -14 m 516 194 q 670 268 618 194 q 723 509 723 342 q 670 758 723 682 q 516 833 618 833 q 361 759 414 833 q 308 519 308 685 q 360 270 308 345 q 516 194 413 194 m 253 1106 q 332 1263 265 1207 q 515 1319 399 1319 q 700 1263 633 1319 q 778 1106 767 1207 l 626 1106 q 592 1176 619 1153 q 515 1198 566 1198 q 439 1176 465 1198 q 405 1106 413 1153 l 253 1106 z "},"Ō":{"ha":1031,"x_min":47,"x_max":984,"o":"m 516 -14 q 268 43 373 -14 q 105 218 163 100 q 47 514 47 336 q 105 810 47 692 q 268 985 163 928 q 516 1042 373 1042 q 764 985 659 1042 q 926 810 869 928 q 984 514 984 692 q 926 218 984 336 q 764 43 869 100 q 516 -14 659 -14 m 516 194 q 670 268 618 194 q 723 509 723 342 q 670 758 723 682 q 516 833 618 833 q 361 759 414 833 q 308 519 308 685 q 360 270 308 345 q 516 194 413 194 m 256 1135 l 256 1290 l 776 1290 l 776 1135 l 256 1135 z "},"Ṓ":{"ha":1031,"x_min":47,"x_max":984,"o":"m 516 -14 q 268 43 373 -14 q 105 218 163 100 q 47 514 47 336 q 105 810 47 692 q 268 985 163 928 q 516 1042 373 1042 q 764 985 659 1042 q 926 810 869 928 q 984 514 984 692 q 926 218 984 336 q 764 43 869 100 q 516 -14 659 -14 m 516 194 q 670 268 618 194 q 723 509 723 342 q 670 758 723 682 q 516 833 618 833 q 361 759 414 833 q 308 519 308 685 q 360 270 308 345 q 516 194 413 194 m 392 1370 l 510 1531 l 796 1531 l 640 1370 l 392 1370 m 256 1135 l 256 1290 l 776 1290 l 776 1135 l 256 1135 z "},"Ṑ":{"ha":1031,"x_min":47,"x_max":984,"o":"m 516 -14 q 268 43 373 -14 q 105 218 163 100 q 47 514 47 336 q 105 810 47 692 q 268 985 163 928 q 516 1042 373 1042 q 764 985 659 1042 q 926 810 869 928 q 984 514 984 692 q 926 218 984 336 q 764 43 869 100 q 516 -14 659 -14 m 516 194 q 670 268 618 194 q 723 509 723 342 q 670 758 723 682 q 516 833 618 833 q 361 759 414 833 q 308 519 308 685 q 360 270 308 345 q 516 194 413 194 m 392 1370 l 235 1531 l 522 1531 l 640 1370 l 392 1370 m 256 1135 l 256 1290 l 776 1290 l 776 1135 l 256 1135 z "},"Ǫ":{"ha":1031,"x_min":47,"x_max":984,"o":"m 516 1042 q 764 985 659 1042 q 926 810 869 928 q 984 514 984 692 q 903 177 984 299 q 690 12 822 55 q 545 -62 588 -22 q 502 -149 502 -101 q 596 -215 502 -215 q 690 -196 638 -215 l 690 -292 q 562 -314 630 -314 q 411 -274 462 -314 q 361 -164 361 -235 q 383 -80 361 -118 q 454 -11 405 -42 q 155 138 262 7 q 47 514 47 268 q 105 810 47 692 q 268 985 163 928 q 516 1042 373 1042 m 516 194 q 670 268 618 194 q 723 509 723 342 q 670 758 723 682 q 516 833 618 833 q 361 759 414 833 q 308 519 308 685 q 360 270 308 345 q 516 194 413 194 z "},"Ø":{"ha":1031,"x_min":47,"x_max":984,"o":"m 873 894 q 984 514 984 759 q 926 218 984 336 q 764 43 869 100 q 516 -14 659 -14 q 260 47 365 -14 l 199 -39 l 92 39 l 159 133 q 47 514 47 267 q 105 810 47 692 q 268 985 163 928 q 516 1042 373 1042 q 772 981 665 1042 l 833 1067 l 941 989 l 873 894 m 308 519 q 324 360 308 428 l 638 795 q 516 833 590 833 q 361 759 414 833 q 308 519 308 685 m 516 194 q 670 268 618 194 q 723 509 723 342 q 708 666 723 599 l 394 232 q 516 194 440 194 z "},"Ǿ":{"ha":1031,"x_min":47,"x_max":984,"o":"m 873 894 q 984 514 984 759 q 926 218 984 336 q 764 43 869 100 q 516 -14 659 -14 q 260 47 365 -14 l 199 -39 l 92 39 l 159 133 q 47 514 47 267 q 105 810 47 692 q 268 985 163 928 q 516 1042 373 1042 q 772 981 665 1042 l 833 1067 l 941 989 l 873 894 m 308 519 q 324 360 308 428 l 638 795 q 516 833 590 833 q 361 759 414 833 q 308 519 308 685 m 516 194 q 670 268 618 194 q 723 509 723 342 q 708 666 723 599 l 394 232 q 516 194 440 194 m 403 1104 l 522 1319 l 783 1319 l 627 1104 l 403 1104 z "},"Õ":{"ha":1031,"x_min":47,"x_max":984,"o":"m 516 -14 q 268 43 373 -14 q 105 218 163 100 q 47 514 47 336 q 105 810 47 692 q 268 985 163 928 q 516 1042 373 1042 q 764 985 659 1042 q 926 810 869 928 q 984 514 984 692 q 926 218 984 336 q 764 43 869 100 q 516 -14 659 -14 m 516 194 q 670 268 618 194 q 723 509 723 342 q 670 758 723 682 q 516 833 618 833 q 361 759 414 833 q 308 519 308 685 q 360 270 308 345 q 516 194 413 194 m 635 1111 q 573 1118 602 1111 q 503 1140 543 1126 q 442 1159 465 1153 q 393 1165 419 1165 q 318 1153 351 1165 q 253 1115 286 1141 l 253 1262 q 315 1302 281 1290 q 397 1315 349 1315 q 459 1307 430 1315 q 528 1285 488 1299 q 589 1265 565 1272 q 639 1259 613 1259 q 713 1271 681 1259 q 778 1310 745 1283 l 778 1163 q 717 1123 751 1135 q 635 1111 683 1111 z "},"Ṍ":{"ha":1031,"x_min":47,"x_max":984,"o":"m 516 -14 q 268 43 373 -14 q 105 218 163 100 q 47 514 47 336 q 105 810 47 692 q 268 985 163 928 q 516 1042 373 1042 q 764 985 659 1042 q 926 810 869 928 q 984 514 984 692 q 926 218 984 336 q 764 43 869 100 q 516 -14 659 -14 m 516 194 q 670 268 618 194 q 723 509 723 342 q 670 758 723 682 q 516 833 618 833 q 361 759 414 833 q 308 519 308 685 q 360 270 308 345 q 516 194 413 194 m 392 1370 l 510 1531 l 796 1531 l 640 1370 l 392 1370 m 635 1111 q 573 1118 602 1111 q 503 1140 543 1126 q 442 1159 465 1153 q 393 1165 419 1165 q 318 1153 351 1165 q 253 1115 286 1141 l 253 1262 q 315 1302 281 1290 q 397 1315 349 1315 q 459 1307 430 1315 q 528 1285 488 1299 q 589 1265 565 1272 q 639 1259 613 1259 q 713 1271 681 1259 q 778 1310 745 1283 l 778 1163 q 717 1123 751 1135 q 635 1111 683 1111 z "},"Ṏ":{"ha":1031,"x_min":47,"x_max":984,"o":"m 516 -14 q 268 43 373 -14 q 105 218 163 100 q 47 514 47 336 q 105 810 47 692 q 268 985 163 928 q 516 1042 373 1042 q 764 985 659 1042 q 926 810 869 928 q 984 514 984 692 q 926 218 984 336 q 764 43 869 100 q 516 -14 659 -14 m 516 194 q 670 268 618 194 q 723 509 723 342 q 670 758 723 682 q 516 833 618 833 q 361 759 414 833 q 308 519 308 685 q 360 270 308 345 q 516 194 413 194 m 635 1111 q 573 1118 602 1111 q 503 1140 543 1126 q 442 1159 465 1153 q 393 1165 419 1165 q 318 1153 351 1165 q 253 1115 286 1141 l 253 1262 q 315 1302 281 1290 q 397 1315 349 1315 q 459 1307 430 1315 q 528 1285 488 1299 q 589 1265 565 1272 q 639 1259 613 1259 q 713 1271 681 1259 q 778 1310 745 1283 l 778 1163 q 717 1123 751 1135 q 635 1111 683 1111 m 339 1363 q 240 1393 274 1363 q 205 1478 205 1423 q 240 1563 205 1533 q 339 1592 274 1592 q 438 1563 403 1592 q 473 1478 473 1533 q 438 1393 473 1423 q 339 1363 403 1363 m 692 1363 q 593 1393 628 1363 q 558 1478 558 1423 q 593 1563 558 1533 q 692 1592 628 1592 q 792 1563 757 1592 q 826 1478 826 1533 q 792 1393 826 1423 q 692 1363 757 1363 z "},"Ȭ":{"ha":1031,"x_min":47,"x_max":984,"o":"m 516 -14 q 268 43 373 -14 q 105 218 163 100 q 47 514 47 336 q 105 810 47 692 q 268 985 163 928 q 516 1042 373 1042 q 764 985 659 1042 q 926 810 869 928 q 984 514 984 692 q 926 218 984 336 q 764 43 869 100 q 516 -14 659 -14 m 516 194 q 670 268 618 194 q 723 509 723 342 q 670 758 723 682 q 516 833 618 833 q 361 759 414 833 q 308 519 308 685 q 360 270 308 345 q 516 194 413 194 m 635 1111 q 573 1118 602 1111 q 503 1140 543 1126 q 442 1159 465 1153 q 393 1165 419 1165 q 318 1153 351 1165 q 253 1115 286 1141 l 253 1262 q 315 1302 281 1290 q 397 1315 349 1315 q 459 1307 430 1315 q 528 1285 488 1299 q 589 1265 565 1272 q 639 1259 613 1259 q 713 1271 681 1259 q 778 1310 745 1283 l 778 1163 q 717 1123 751 1135 q 635 1111 683 1111 m 256 1398 l 256 1552 l 776 1552 l 776 1398 l 256 1398 z "},"Œ":{"ha":1385,"x_min":47,"x_max":1340,"o":"m 1340 210 l 1340 0 l 817 0 q 761 -1 794 0 q 713 -3 728 -3 q 604 -8 638 -8 q 186 120 324 -8 q 47 514 47 247 q 192 907 47 778 q 609 1035 336 1035 q 716 1031 644 1035 q 761 1029 729 1031 q 816 1028 792 1028 l 1333 1028 l 1333 817 l 901 817 l 901 630 l 1261 630 l 1261 420 l 901 420 l 901 210 l 1340 210 m 650 824 q 560 826 603 826 q 421 796 476 826 q 337 697 365 765 q 308 513 308 628 q 337 330 308 399 q 422 231 366 261 q 561 201 477 201 q 650 203 606 201 l 650 824 z "},"P":{"ha":883,"x_min":76,"x_max":842,"o":"m 76 1008 q 387 1041 237 1041 q 730 949 617 1041 q 842 662 842 857 q 732 380 842 476 q 410 284 622 284 q 358 285 392 284 l 330 286 l 330 0 l 76 0 l 76 1008 m 413 481 q 551 523 508 481 q 595 660 595 565 q 550 800 595 756 q 411 844 506 844 q 330 837 365 844 l 330 487 q 413 481 366 481 z "},"Þ":{"ha":890,"x_min":76,"x_max":842,"o":"m 76 1028 l 330 1028 l 330 903 q 390 907 374 907 q 730 815 617 907 q 842 528 842 722 q 733 245 842 341 q 413 149 623 149 q 362 151 394 149 q 330 152 341 152 l 330 0 l 76 0 l 76 1028 m 413 347 q 551 389 508 347 q 595 526 595 431 q 550 666 595 622 q 411 710 506 710 q 330 703 365 710 l 330 352 q 413 347 368 347 z "},"Q":{"ha":1031,"x_min":47,"x_max":984,"o":"m 984 514 q 907 191 984 316 q 682 27 830 65 q 969 -33 826 -15 l 924 -235 q 402 -78 594 -179 q 128 166 210 22 q 47 511 47 310 q 105 809 47 690 q 267 985 163 928 q 516 1042 372 1042 q 764 985 659 1042 q 926 810 869 928 q 984 514 984 692 m 308 519 q 360 270 308 345 q 516 194 413 194 q 670 268 618 194 q 723 509 723 342 q 670 758 723 682 q 516 833 618 833 q 361 759 414 833 q 308 519 308 685 z "},"R":{"ha":922,"x_min":76,"x_max":918,"o":"m 644 0 l 413 360 q 357 362 392 360 q 326 363 336 363 l 326 0 l 76 0 l 76 1006 q 394 1041 235 1041 q 727 957 616 1041 q 838 701 838 873 q 790 520 838 595 q 652 405 742 445 l 918 0 l 644 0 m 326 560 q 419 554 376 554 q 554 589 510 554 q 599 701 599 623 q 555 813 599 777 q 426 849 512 849 q 326 841 376 849 l 326 560 z "},"Ŕ":{"ha":922,"x_min":76,"x_max":918,"o":"m 644 0 l 413 360 q 357 362 392 360 q 326 363 336 363 l 326 0 l 76 0 l 76 1006 q 394 1041 235 1041 q 727 957 616 1041 q 838 701 838 873 q 790 520 838 595 q 652 405 742 445 l 918 0 l 644 0 m 326 560 q 419 554 376 554 q 554 589 510 554 q 599 701 599 623 q 555 813 599 777 q 426 849 512 849 q 326 841 376 849 l 326 560 m 340 1104 l 459 1319 l 719 1319 l 564 1104 l 340 1104 z "},"Ř":{"ha":922,"x_min":76,"x_max":918,"o":"m 644 0 l 413 360 q 357 362 392 360 q 326 363 336 363 l 326 0 l 76 0 l 76 1006 q 394 1041 235 1041 q 727 957 616 1041 q 838 701 838 873 q 790 520 838 595 q 652 405 742 445 l 918 0 l 644 0 m 326 560 q 419 554 376 554 q 554 589 510 554 q 599 701 599 623 q 555 813 599 777 q 426 849 512 849 q 326 841 376 849 l 326 560 m 538 1319 l 714 1319 l 558 1104 l 347 1104 l 191 1319 l 367 1319 l 453 1194 l 538 1319 z "},"Ŗ":{"ha":922,"x_min":76,"x_max":918,"o":"m 644 0 l 413 360 q 357 362 392 360 q 326 363 336 363 l 326 0 l 76 0 l 76 1006 q 394 1041 235 1041 q 727 957 616 1041 q 838 701 838 873 q 790 520 838 595 q 652 405 742 445 l 918 0 l 644 0 m 326 560 q 419 554 376 554 q 554 589 510 554 q 599 701 599 623 q 555 813 599 777 q 426 849 512 849 q 326 841 376 849 l 326 560 m 488 -79 q 626 -193 626 -79 q 609 -276 626 -232 q 567 -353 592 -321 l 411 -353 q 452 -250 444 -291 q 376 -223 401 -244 q 352 -165 352 -201 q 385 -101 352 -124 q 488 -79 419 -79 z "},"Ȑ":{"ha":922,"x_min":76,"x_max":918,"o":"m 644 0 l 413 360 q 357 362 392 360 q 326 363 336 363 l 326 0 l 76 0 l 76 1006 q 394 1041 235 1041 q 727 957 616 1041 q 838 701 838 873 q 790 520 838 595 q 652 405 742 445 l 918 0 l 644 0 m 326 560 q 419 554 376 554 q 554 589 510 554 q 599 701 599 623 q 555 813 599 777 q 426 849 512 849 q 326 841 376 849 l 326 560 m 212 1104 l 112 1319 l 311 1319 l 400 1104 l 212 1104 m 505 1104 l 404 1319 l 604 1319 l 693 1104 l 505 1104 z "},"Ṛ":{"ha":922,"x_min":76,"x_max":918,"o":"m 644 0 l 413 360 q 357 362 392 360 q 326 363 336 363 l 326 0 l 76 0 l 76 1006 q 394 1041 235 1041 q 727 957 616 1041 q 838 701 838 873 q 790 520 838 595 q 652 405 742 445 l 918 0 l 644 0 m 326 560 q 419 554 376 554 q 554 589 510 554 q 599 701 599 623 q 555 813 599 777 q 426 849 512 849 q 326 841 376 849 l 326 560 m 489 -308 q 376 -279 415 -308 q 336 -194 336 -250 q 376 -108 336 -137 q 489 -79 415 -79 q 602 -108 563 -79 q 641 -194 641 -137 q 602 -279 641 -250 q 489 -308 563 -308 z "},"Ȓ":{"ha":922,"x_min":76,"x_max":918,"o":"m 644 0 l 413 360 q 357 362 392 360 q 326 363 336 363 l 326 0 l 76 0 l 76 1006 q 394 1041 235 1041 q 727 957 616 1041 q 838 701 838 873 q 790 520 838 595 q 652 405 742 445 l 918 0 l 644 0 m 326 560 q 419 554 376 554 q 554 589 510 554 q 599 701 599 623 q 555 813 599 777 q 426 849 512 849 q 326 841 376 849 l 326 560 m 190 1106 q 268 1263 201 1207 q 452 1319 335 1319 q 636 1263 569 1319 q 715 1106 703 1207 l 563 1106 q 529 1176 556 1153 q 452 1198 503 1198 q 376 1176 402 1198 q 342 1106 349 1153 l 190 1106 z "},"Ṟ":{"ha":922,"x_min":76,"x_max":918,"o":"m 644 0 l 413 360 q 357 362 392 360 q 326 363 336 363 l 326 0 l 76 0 l 76 1006 q 394 1041 235 1041 q 727 957 616 1041 q 838 701 838 873 q 790 520 838 595 q 652 405 742 445 l 918 0 l 644 0 m 326 560 q 419 554 376 554 q 554 589 510 554 q 599 701 599 623 q 555 813 599 777 q 426 849 512 849 q 326 841 376 849 l 326 560 m 228 -265 l 228 -110 l 749 -110 l 749 -265 l 228 -265 z "},"S":{"ha":768,"x_min":26,"x_max":742,"o":"m 331 -14 q 188 -2 261 -14 q 54 30 114 9 l 54 239 q 189 207 116 219 q 327 195 261 195 q 450 220 413 195 q 488 291 488 244 q 477 334 488 316 q 439 366 466 351 q 360 395 411 380 l 279 419 q 91 528 157 454 q 26 719 26 602 q 73 892 26 820 q 216 1003 121 965 q 452 1042 311 1042 q 578 1034 517 1042 q 688 1013 640 1026 l 688 803 q 586 825 642 817 q 473 833 530 833 q 324 807 368 833 q 280 735 280 781 q 289 695 280 712 q 322 666 299 679 q 390 640 346 653 l 472 615 q 675 503 607 576 q 742 311 742 431 q 694 138 742 211 q 552 25 645 65 q 331 -14 460 -14 z "},"Ś":{"ha":768,"x_min":26,"x_max":742,"o":"m 331 -14 q 188 -2 261 -14 q 54 30 114 9 l 54 239 q 189 207 116 219 q 327 195 261 195 q 450 220 413 195 q 488 291 488 244 q 477 334 488 316 q 439 366 466 351 q 360 395 411 380 l 279 419 q 91 528 157 454 q 26 719 26 602 q 73 892 26 820 q 216 1003 121 965 q 452 1042 311 1042 q 578 1034 517 1042 q 688 1013 640 1026 l 688 803 q 586 825 642 817 q 473 833 530 833 q 324 807 368 833 q 280 735 280 781 q 289 695 280 712 q 322 666 299 679 q 390 640 346 653 l 472 615 q 675 503 607 576 q 742 311 742 431 q 694 138 742 211 q 552 25 645 65 q 331 -14 460 -14 m 279 1104 l 398 1319 l 658 1319 l 503 1104 l 279 1104 z "},"Ṥ":{"ha":768,"x_min":26,"x_max":742,"o":"m 331 -14 q 188 -2 261 -14 q 54 30 114 9 l 54 239 q 189 207 116 219 q 327 195 261 195 q 450 220 413 195 q 488 291 488 244 q 477 334 488 316 q 439 366 466 351 q 360 395 411 380 l 279 419 q 91 528 157 454 q 26 719 26 602 q 73 892 26 820 q 216 1003 121 965 q 452 1042 311 1042 q 578 1034 517 1042 q 688 1013 640 1026 l 688 803 q 586 825 642 817 q 473 833 530 833 q 324 807 368 833 q 280 735 280 781 q 289 695 280 712 q 322 666 299 679 q 390 640 346 653 l 472 615 q 675 503 607 576 q 742 311 742 431 q 694 138 742 211 q 552 25 645 65 q 331 -14 460 -14 m 206 1292 q 115 1315 147 1292 q 83 1385 83 1339 q 115 1453 83 1430 q 206 1477 147 1477 q 297 1453 265 1477 q 329 1385 329 1430 q 297 1315 329 1339 q 206 1292 265 1292 m 279 1104 l 398 1319 l 658 1319 l 503 1104 l 279 1104 z "},"Š":{"ha":768,"x_min":26,"x_max":742,"o":"m 331 -14 q 188 -2 261 -14 q 54 30 114 9 l 54 239 q 189 207 116 219 q 327 195 261 195 q 450 220 413 195 q 488 291 488 244 q 477 334 488 316 q 439 366 466 351 q 360 395 411 380 l 279 419 q 91 528 157 454 q 26 719 26 602 q 73 892 26 820 q 216 1003 121 965 q 452 1042 311 1042 q 578 1034 517 1042 q 688 1013 640 1026 l 688 803 q 586 825 642 817 q 473 833 530 833 q 324 807 368 833 q 280 735 280 781 q 289 695 280 712 q 322 666 299 679 q 390 640 346 653 l 472 615 q 675 503 607 576 q 742 311 742 431 q 694 138 742 211 q 552 25 645 65 q 331 -14 460 -14 m 476 1319 l 653 1319 l 497 1104 l 286 1104 l 130 1319 l 306 1319 l 392 1194 l 476 1319 z "},"Ṧ":{"ha":768,"x_min":26,"x_max":742,"o":"m 331 -14 q 188 -2 261 -14 q 54 30 114 9 l 54 239 q 189 207 116 219 q 327 195 261 195 q 450 220 413 195 q 488 291 488 244 q 477 334 488 316 q 439 366 466 351 q 360 395 411 380 l 279 419 q 91 528 157 454 q 26 719 26 602 q 73 892 26 820 q 216 1003 121 965 q 452 1042 311 1042 q 578 1034 517 1042 q 688 1013 640 1026 l 688 803 q 586 825 642 817 q 473 833 530 833 q 324 807 368 833 q 280 735 280 781 q 289 695 280 712 q 322 666 299 679 q 390 640 346 653 l 472 615 q 675 503 607 576 q 742 311 742 431 q 694 138 742 211 q 552 25 645 65 q 331 -14 460 -14 m 392 1344 q 301 1367 333 1344 q 269 1436 269 1391 q 301 1506 269 1482 q 392 1529 333 1529 q 482 1506 451 1529 q 514 1436 514 1482 q 482 1367 514 1391 q 392 1344 451 1344 m 476 1319 l 653 1319 l 497 1104 l 286 1104 l 130 1319 l 306 1319 l 392 1194 l 476 1319 z "},"Ş":{"ha":768,"x_min":26,"x_max":742,"o":"m 742 311 q 706 159 742 226 q 601 51 670 93 q 435 -6 532 8 l 435 -57 q 529 -98 497 -66 q 561 -181 561 -130 q 513 -279 561 -244 q 362 -314 464 -314 q 225 -294 284 -314 l 225 -198 q 287 -213 253 -208 q 349 -218 320 -218 q 409 -207 390 -218 q 428 -172 428 -197 q 347 -123 428 -123 l 315 -123 l 315 -14 q 178 -1 247 -12 q 54 30 110 10 l 54 239 q 189 207 116 219 q 327 195 261 195 q 450 220 413 195 q 488 291 488 244 q 477 334 488 316 q 439 366 466 351 q 360 395 411 380 l 279 419 q 91 528 157 454 q 26 719 26 602 q 73 892 26 820 q 216 1003 121 965 q 452 1042 311 1042 q 578 1034 517 1042 q 688 1013 640 1026 l 688 803 q 586 825 642 817 q 473 833 530 833 q 324 807 368 833 q 280 735 280 781 q 289 695 280 712 q 322 666 299 679 q 390 640 346 653 l 472 615 q 675 503 607 576 q 742 311 742 431 z "},"Ŝ":{"ha":768,"x_min":26,"x_max":742,"o":"m 331 -14 q 188 -2 261 -14 q 54 30 114 9 l 54 239 q 189 207 116 219 q 327 195 261 195 q 450 220 413 195 q 488 291 488 244 q 477 334 488 316 q 439 366 466 351 q 360 395 411 380 l 279 419 q 91 528 157 454 q 26 719 26 602 q 73 892 26 820 q 216 1003 121 965 q 452 1042 311 1042 q 578 1034 517 1042 q 688 1013 640 1026 l 688 803 q 586 825 642 817 q 473 833 530 833 q 324 807 368 833 q 280 735 280 781 q 289 695 280 712 q 322 666 299 679 q 390 640 346 653 l 472 615 q 675 503 607 576 q 742 311 742 431 q 694 138 742 211 q 552 25 645 65 q 331 -14 460 -14 m 653 1104 l 476 1104 l 392 1230 l 306 1104 l 130 1104 l 286 1319 l 497 1319 l 653 1104 z "},"Ș":{"ha":768,"x_min":26,"x_max":742,"o":"m 331 -14 q 188 -2 261 -14 q 54 30 114 9 l 54 239 q 189 207 116 219 q 327 195 261 195 q 450 220 413 195 q 488 291 488 244 q 477 334 488 316 q 439 366 466 351 q 360 395 411 380 l 279 419 q 91 528 157 454 q 26 719 26 602 q 73 892 26 820 q 216 1003 121 965 q 452 1042 311 1042 q 578 1034 517 1042 q 688 1013 640 1026 l 688 803 q 586 825 642 817 q 473 833 530 833 q 324 807 368 833 q 280 735 280 781 q 289 695 280 712 q 322 666 299 679 q 390 640 346 653 l 472 615 q 675 503 607 576 q 742 311 742 431 q 694 138 742 211 q 552 25 645 65 q 331 -14 460 -14 m 391 -79 q 528 -193 528 -79 q 512 -276 528 -232 q 470 -353 495 -321 l 314 -353 q 355 -250 347 -291 q 279 -223 303 -244 q 255 -165 255 -201 q 288 -101 255 -124 q 391 -79 322 -79 z "},"Ṡ":{"ha":768,"x_min":26,"x_max":742,"o":"m 331 -14 q 188 -2 261 -14 q 54 30 114 9 l 54 239 q 189 207 116 219 q 327 195 261 195 q 450 220 413 195 q 488 291 488 244 q 477 334 488 316 q 439 366 466 351 q 360 395 411 380 l 279 419 q 91 528 157 454 q 26 719 26 602 q 73 892 26 820 q 216 1003 121 965 q 452 1042 311 1042 q 578 1034 517 1042 q 688 1013 640 1026 l 688 803 q 586 825 642 817 q 473 833 530 833 q 324 807 368 833 q 280 735 280 781 q 289 695 280 712 q 322 666 299 679 q 390 640 346 653 l 472 615 q 675 503 607 576 q 742 311 742 431 q 694 138 742 211 q 552 25 645 65 q 331 -14 460 -14 m 392 1101 q 278 1130 318 1101 q 239 1215 239 1159 q 278 1301 239 1272 q 392 1330 318 1330 q 505 1301 465 1330 q 544 1215 544 1272 q 505 1130 544 1159 q 392 1101 465 1101 z "},"Ṣ":{"ha":768,"x_min":26,"x_max":742,"o":"m 331 -14 q 188 -2 261 -14 q 54 30 114 9 l 54 239 q 189 207 116 219 q 327 195 261 195 q 450 220 413 195 q 488 291 488 244 q 477 334 488 316 q 439 366 466 351 q 360 395 411 380 l 279 419 q 91 528 157 454 q 26 719 26 602 q 73 892 26 820 q 216 1003 121 965 q 452 1042 311 1042 q 578 1034 517 1042 q 688 1013 640 1026 l 688 803 q 586 825 642 817 q 473 833 530 833 q 324 807 368 833 q 280 735 280 781 q 289 695 280 712 q 322 666 299 679 q 390 640 346 653 l 472 615 q 675 503 607 576 q 742 311 742 431 q 694 138 742 211 q 552 25 645 65 q 331 -14 460 -14 m 392 -308 q 278 -279 318 -308 q 239 -194 239 -250 q 278 -108 239 -137 q 392 -79 318 -79 q 505 -108 465 -79 q 544 -194 544 -137 q 505 -279 544 -250 q 392 -308 465 -308 z "},"Ṩ":{"ha":768,"x_min":26,"x_max":742,"o":"m 331 -14 q 188 -2 261 -14 q 54 30 114 9 l 54 239 q 189 207 116 219 q 327 195 261 195 q 450 220 413 195 q 488 291 488 244 q 477 334 488 316 q 439 366 466 351 q 360 395 411 380 l 279 419 q 91 528 157 454 q 26 719 26 602 q 73 892 26 820 q 216 1003 121 965 q 452 1042 311 1042 q 578 1034 517 1042 q 688 1013 640 1026 l 688 803 q 586 825 642 817 q 473 833 530 833 q 324 807 368 833 q 280 735 280 781 q 289 695 280 712 q 322 666 299 679 q 390 640 346 653 l 472 615 q 675 503 607 576 q 742 311 742 431 q 694 138 742 211 q 552 25 645 65 q 331 -14 460 -14 m 392 -308 q 278 -279 318 -308 q 239 -194 239 -250 q 278 -108 239 -137 q 392 -79 318 -79 q 505 -108 465 -79 q 544 -194 544 -137 q 505 -279 544 -250 q 392 -308 465 -308 m 392 1101 q 278 1130 318 1101 q 239 1215 239 1159 q 278 1301 239 1272 q 392 1330 318 1330 q 505 1301 465 1330 q 544 1215 544 1272 q 505 1130 544 1159 q 392 1101 465 1101 z "},"ẞ":{"ha":1213,"x_min":76,"x_max":1187,"o":"m 925 615 q 1122 504 1056 577 q 1187 311 1187 431 q 1139 138 1187 211 q 1001 25 1092 65 q 784 -14 910 -14 q 650 -3 720 -14 q 524 27 580 8 l 524 236 q 652 206 583 217 q 779 195 721 195 q 898 220 861 195 q 935 291 935 244 q 910 352 935 328 q 819 395 885 375 l 741 419 q 560 528 624 453 q 496 719 496 602 q 513 830 496 780 q 469 835 490 835 q 365 797 400 835 q 330 681 330 758 l 330 0 l 76 0 l 76 649 q 174 941 76 840 q 469 1042 273 1042 q 679 1002 591 1042 q 917 1042 776 1042 q 1031 1035 974 1042 q 1134 1016 1087 1028 l 1134 807 q 1037 826 1090 819 q 937 833 984 833 q 791 807 834 833 q 748 735 748 781 q 769 678 748 700 q 847 640 790 657 l 925 615 z "},"Ə":{"ha":1015,"x_min":40,"x_max":967,"o":"m 394 1042 q 825 909 682 1042 q 967 501 967 777 q 910 217 967 333 q 749 44 852 101 q 510 -14 646 -14 q 264 42 369 -14 q 99 214 158 98 q 40 503 40 330 l 40 591 l 710 591 q 657 736 697 682 q 546 813 616 790 q 371 836 476 836 q 237 828 307 836 q 106 805 167 819 l 106 1012 q 247 1034 172 1026 q 394 1042 323 1042 m 512 188 q 614 208 573 188 q 678 275 654 228 q 711 403 703 323 l 306 403 q 338 277 313 324 q 405 209 363 230 q 512 188 447 188 z "},"T":{"ha":862,"x_min":6,"x_max":856,"o":"m 303 0 l 303 810 l 6 810 l 6 1028 l 856 1028 l 856 810 l 558 810 l 558 0 l 303 0 z "},"Ŧ":{"ha":862,"x_min":6,"x_max":856,"o":"m 856 810 l 558 810 l 558 578 l 747 578 l 747 413 l 558 413 l 558 0 l 303 0 l 303 413 l 116 413 l 116 578 l 303 578 l 303 810 l 6 810 l 6 1028 l 856 1028 l 856 810 z "},"Ť":{"ha":862,"x_min":6,"x_max":856,"o":"m 303 0 l 303 810 l 6 810 l 6 1028 l 856 1028 l 856 810 l 558 810 l 558 0 l 303 0 m 516 1319 l 692 1319 l 536 1104 l 326 1104 l 169 1319 l 346 1319 l 431 1194 l 516 1319 z "},"Ţ":{"ha":862,"x_min":6,"x_max":856,"o":"m 474 0 l 474 -57 q 568 -98 536 -66 q 601 -181 601 -130 q 552 -279 601 -244 q 401 -314 503 -314 q 265 -294 324 -314 l 265 -198 q 326 -213 293 -208 q 388 -218 360 -218 q 449 -207 429 -218 q 468 -172 468 -197 q 386 -123 468 -123 l 355 -123 l 355 0 l 303 0 l 303 810 l 6 810 l 6 1028 l 856 1028 l 856 810 l 558 810 l 558 0 l 474 0 z "},"Ț":{"ha":862,"x_min":6,"x_max":856,"o":"m 303 0 l 303 810 l 6 810 l 6 1028 l 856 1028 l 856 810 l 558 810 l 558 0 l 303 0 m 431 -79 q 568 -193 568 -79 q 551 -276 568 -232 q 510 -353 535 -321 l 353 -353 q 394 -250 386 -291 q 319 -223 343 -244 q 294 -165 294 -201 q 328 -101 294 -124 q 431 -79 361 -79 z "},"Ṭ":{"ha":862,"x_min":6,"x_max":856,"o":"m 303 0 l 303 810 l 6 810 l 6 1028 l 856 1028 l 856 810 l 558 810 l 558 0 l 303 0 m 431 -308 q 318 -279 358 -308 q 278 -194 278 -250 q 318 -108 278 -137 q 431 -79 358 -79 q 544 -108 505 -79 q 583 -194 583 -137 q 544 -279 583 -250 q 431 -308 505 -308 z "},"Ṯ":{"ha":862,"x_min":6,"x_max":856,"o":"m 303 0 l 303 810 l 6 810 l 6 1028 l 856 1028 l 856 810 l 558 810 l 558 0 l 303 0 m 171 -265 l 171 -110 l 692 -110 l 692 -265 l 171 -265 z "},"U":{"ha":986,"x_min":72,"x_max":915,"o":"m 497 -14 q 257 33 351 -14 q 117 176 163 79 q 72 424 72 272 l 72 1028 l 326 1028 l 326 398 q 368 244 326 292 q 497 197 410 197 q 624 244 582 197 q 666 398 666 292 l 666 1028 l 915 1028 l 915 424 q 870 176 915 272 q 733 33 825 79 q 497 -14 640 -14 z "},"Ú":{"ha":986,"x_min":72,"x_max":915,"o":"m 497 -14 q 257 33 351 -14 q 117 176 163 79 q 72 424 72 272 l 72 1028 l 326 1028 l 326 398 q 368 244 326 292 q 497 197 410 197 q 624 244 582 197 q 666 398 666 292 l 666 1028 l 915 1028 l 915 424 q 870 176 915 272 q 733 33 825 79 q 497 -14 640 -14 m 384 1104 l 503 1319 l 763 1319 l 608 1104 l 384 1104 z "},"Ŭ":{"ha":986,"x_min":72,"x_max":915,"o":"m 497 -14 q 257 33 351 -14 q 117 176 163 79 q 72 424 72 272 l 72 1028 l 326 1028 l 326 398 q 368 244 326 292 q 497 197 410 197 q 624 244 582 197 q 666 398 666 292 l 666 1028 l 915 1028 l 915 424 q 870 176 915 272 q 733 33 825 79 q 497 -14 640 -14 m 497 1105 q 312 1161 379 1105 q 234 1317 245 1217 l 385 1317 q 419 1248 393 1270 q 497 1226 446 1226 q 574 1248 547 1226 q 607 1317 600 1270 l 758 1317 q 681 1160 747 1216 q 497 1105 614 1105 z "},"Û":{"ha":986,"x_min":72,"x_max":915,"o":"m 497 -14 q 257 33 351 -14 q 117 176 163 79 q 72 424 72 272 l 72 1028 l 326 1028 l 326 398 q 368 244 326 292 q 497 197 410 197 q 624 244 582 197 q 666 398 666 292 l 666 1028 l 915 1028 l 915 424 q 870 176 915 272 q 733 33 825 79 q 497 -14 640 -14 m 758 1104 l 581 1104 l 497 1230 l 411 1104 l 235 1104 l 391 1319 l 601 1319 l 758 1104 z "},"Ȕ":{"ha":986,"x_min":72,"x_max":915,"o":"m 497 -14 q 257 33 351 -14 q 117 176 163 79 q 72 424 72 272 l 72 1028 l 326 1028 l 326 398 q 368 244 326 292 q 497 197 410 197 q 624 244 582 197 q 666 398 666 292 l 666 1028 l 915 1028 l 915 424 q 870 176 915 272 q 733 33 825 79 q 497 -14 640 -14 m 256 1104 l 156 1319 l 355 1319 l 444 1104 l 256 1104 m 549 1104 l 448 1319 l 648 1319 l 737 1104 l 549 1104 z "},"Ü":{"ha":986,"x_min":72,"x_max":915,"o":"m 497 -14 q 257 33 351 -14 q 117 176 163 79 q 72 424 72 272 l 72 1028 l 326 1028 l 326 398 q 368 244 326 292 q 497 197 410 197 q 624 244 582 197 q 666 398 666 292 l 666 1028 l 915 1028 l 915 424 q 870 176 915 272 q 733 33 825 79 q 497 -14 640 -14 m 319 1101 q 220 1131 255 1101 q 185 1215 185 1160 q 220 1300 185 1270 q 319 1330 255 1330 q 419 1300 384 1330 q 453 1215 453 1270 q 419 1131 453 1160 q 319 1101 384 1101 m 673 1101 q 574 1131 608 1101 q 539 1215 539 1160 q 574 1300 539 1270 q 673 1330 608 1330 q 772 1300 738 1330 q 807 1215 807 1270 q 772 1131 807 1160 q 673 1101 738 1101 z "},"Ụ":{"ha":986,"x_min":72,"x_max":915,"o":"m 497 -14 q 257 33 351 -14 q 117 176 163 79 q 72 424 72 272 l 72 1028 l 326 1028 l 326 398 q 368 244 326 292 q 497 197 410 197 q 624 244 582 197 q 666 398 666 292 l 666 1028 l 915 1028 l 915 424 q 870 176 915 272 q 733 33 825 79 q 497 -14 640 -14 m 497 -308 q 383 -279 423 -308 q 344 -194 344 -250 q 383 -108 344 -137 q 497 -79 423 -79 q 609 -108 570 -79 q 649 -194 649 -137 q 609 -279 649 -250 q 497 -308 570 -308 z "},"Ù":{"ha":986,"x_min":72,"x_max":915,"o":"m 497 -14 q 257 33 351 -14 q 117 176 163 79 q 72 424 72 272 l 72 1028 l 326 1028 l 326 398 q 368 244 326 292 q 497 197 410 197 q 624 244 582 197 q 666 398 666 292 l 666 1028 l 915 1028 l 915 424 q 870 176 915 272 q 733 33 825 79 q 497 -14 640 -14 m 384 1104 l 228 1319 l 490 1319 l 608 1104 l 384 1104 z "},"Ủ":{"ha":986,"x_min":72,"x_max":915,"o":"m 497 -14 q 257 33 351 -14 q 117 176 163 79 q 72 424 72 272 l 72 1028 l 326 1028 l 326 398 q 368 244 326 292 q 497 197 410 197 q 624 244 582 197 q 666 398 666 292 l 666 1028 l 915 1028 l 915 424 q 870 176 915 272 q 733 33 825 79 q 497 -14 640 -14 m 435 1104 q 457 1156 437 1138 q 510 1191 477 1174 q 536 1205 528 1199 q 544 1218 544 1210 q 527 1236 544 1231 q 474 1242 510 1242 q 345 1227 406 1242 l 345 1320 q 415 1332 373 1328 q 494 1337 458 1337 q 632 1313 588 1337 q 676 1238 676 1289 q 660 1195 676 1211 q 613 1160 644 1178 q 573 1133 586 1144 q 558 1104 560 1122 l 435 1104 z "},"Ư":{"ha":991,"x_min":72,"x_max":1038,"o":"m 497 -14 q 257 33 351 -14 q 117 176 163 79 q 72 424 72 272 l 72 1028 l 326 1028 l 326 398 q 368 244 326 292 q 497 197 410 197 q 624 244 582 197 q 666 398 666 292 l 666 1028 l 750 1028 q 837 1052 808 1028 q 865 1136 865 1077 q 854 1233 865 1183 l 1024 1233 q 1038 1123 1038 1188 q 1006 997 1038 1045 q 915 930 974 949 l 915 424 q 870 176 915 272 q 733 33 825 79 q 497 -14 640 -14 z "},"Ứ":{"ha":991,"x_min":72,"x_max":1038,"o":"m 497 -14 q 257 33 351 -14 q 117 176 163 79 q 72 424 72 272 l 72 1028 l 326 1028 l 326 398 q 368 244 326 292 q 497 197 410 197 q 624 244 582 197 q 666 398 666 292 l 666 1028 l 750 1028 q 837 1052 808 1028 q 865 1136 865 1077 q 854 1233 865 1183 l 1024 1233 q 1038 1123 1038 1188 q 1006 997 1038 1045 q 915 930 974 949 l 915 424 q 870 176 915 272 q 733 33 825 79 q 497 -14 640 -14 m 381 1104 l 500 1319 l 760 1319 l 605 1104 l 381 1104 z "},"Ự":{"ha":991,"x_min":72,"x_max":1038,"o":"m 497 -14 q 257 33 351 -14 q 117 176 163 79 q 72 424 72 272 l 72 1028 l 326 1028 l 326 398 q 368 244 326 292 q 497 197 410 197 q 624 244 582 197 q 666 398 666 292 l 666 1028 l 750 1028 q 837 1052 808 1028 q 865 1136 865 1077 q 854 1233 865 1183 l 1024 1233 q 1038 1123 1038 1188 q 1006 997 1038 1045 q 915 930 974 949 l 915 424 q 870 176 915 272 q 733 33 825 79 q 497 -14 640 -14 m 494 -308 q 381 -279 420 -308 q 341 -194 341 -250 q 381 -108 341 -137 q 494 -79 420 -79 q 607 -108 567 -79 q 646 -194 646 -137 q 607 -279 646 -250 q 494 -308 567 -308 z "},"Ừ":{"ha":991,"x_min":72,"x_max":1038,"o":"m 497 -14 q 257 33 351 -14 q 117 176 163 79 q 72 424 72 272 l 72 1028 l 326 1028 l 326 398 q 368 244 326 292 q 497 197 410 197 q 624 244 582 197 q 666 398 666 292 l 666 1028 l 750 1028 q 837 1052 808 1028 q 865 1136 865 1077 q 854 1233 865 1183 l 1024 1233 q 1038 1123 1038 1188 q 1006 997 1038 1045 q 915 930 974 949 l 915 424 q 870 176 915 272 q 733 33 825 79 q 497 -14 640 -14 m 381 1104 l 226 1319 l 487 1319 l 606 1104 l 381 1104 z "},"Ử":{"ha":991,"x_min":72,"x_max":1038,"o":"m 497 -14 q 257 33 351 -14 q 117 176 163 79 q 72 424 72 272 l 72 1028 l 326 1028 l 326 398 q 368 244 326 292 q 497 197 410 197 q 624 244 582 197 q 666 398 666 292 l 666 1028 l 750 1028 q 837 1052 808 1028 q 865 1136 865 1077 q 854 1233 865 1183 l 1024 1233 q 1038 1123 1038 1188 q 1006 997 1038 1045 q 915 930 974 949 l 915 424 q 870 176 915 272 q 733 33 825 79 q 497 -14 640 -14 m 432 1104 q 454 1156 434 1138 q 508 1191 474 1174 q 533 1205 526 1199 q 541 1218 541 1210 q 524 1236 541 1231 q 471 1242 507 1242 q 342 1227 403 1242 l 342 1320 q 413 1332 370 1328 q 491 1337 455 1337 q 630 1313 585 1337 q 674 1238 674 1289 q 658 1195 674 1211 q 610 1160 642 1178 q 570 1133 583 1144 q 555 1104 557 1122 l 432 1104 z "},"Ữ":{"ha":991,"x_min":72,"x_max":1038,"o":"m 497 -14 q 257 33 351 -14 q 117 176 163 79 q 72 424 72 272 l 72 1028 l 326 1028 l 326 398 q 368 244 326 292 q 497 197 410 197 q 624 244 582 197 q 666 398 666 292 l 666 1028 l 750 1028 q 837 1052 808 1028 q 865 1136 865 1077 q 854 1233 865 1183 l 1024 1233 q 1038 1123 1038 1188 q 1006 997 1038 1045 q 915 930 974 949 l 915 424 q 870 176 915 272 q 733 33 825 79 q 497 -14 640 -14 m 613 1111 q 550 1118 580 1111 q 481 1140 521 1126 q 420 1159 443 1153 q 371 1165 397 1165 q 296 1153 328 1165 q 231 1115 264 1141 l 231 1262 q 293 1302 259 1290 q 374 1315 327 1315 q 436 1307 408 1315 q 506 1285 465 1299 q 567 1265 542 1272 q 617 1259 591 1259 q 691 1271 658 1259 q 756 1310 723 1283 l 756 1163 q 694 1123 728 1135 q 613 1111 660 1111 z "},"Ű":{"ha":986,"x_min":72,"x_max":915,"o":"m 497 -14 q 257 33 351 -14 q 117 176 163 79 q 72 424 72 272 l 72 1028 l 326 1028 l 326 398 q 368 244 326 292 q 497 197 410 197 q 624 244 582 197 q 666 398 666 292 l 666 1028 l 915 1028 l 915 424 q 870 176 915 272 q 733 33 825 79 q 497 -14 640 -14 m 256 1104 l 345 1319 l 544 1319 l 444 1104 l 256 1104 m 549 1104 l 638 1319 l 838 1319 l 737 1104 l 549 1104 z "},"Ȗ":{"ha":986,"x_min":72,"x_max":915,"o":"m 497 -14 q 257 33 351 -14 q 117 176 163 79 q 72 424 72 272 l 72 1028 l 326 1028 l 326 398 q 368 244 326 292 q 497 197 410 197 q 624 244 582 197 q 666 398 666 292 l 666 1028 l 915 1028 l 915 424 q 870 176 915 272 q 733 33 825 79 q 497 -14 640 -14 m 234 1106 q 312 1263 245 1207 q 496 1319 379 1319 q 680 1263 613 1319 q 758 1106 747 1207 l 607 1106 q 573 1176 599 1153 q 496 1198 547 1198 q 419 1176 446 1198 q 385 1106 393 1153 l 234 1106 z "},"Ū":{"ha":986,"x_min":72,"x_max":915,"o":"m 497 -14 q 257 33 351 -14 q 117 176 163 79 q 72 424 72 272 l 72 1028 l 326 1028 l 326 398 q 368 244 326 292 q 497 197 410 197 q 624 244 582 197 q 666 398 666 292 l 666 1028 l 915 1028 l 915 424 q 870 176 915 272 q 733 33 825 79 q 497 -14 640 -14 m 236 1135 l 236 1290 l 757 1290 l 757 1135 l 236 1135 z "},"Ṻ":{"ha":986,"x_min":72,"x_max":915,"o":"m 497 -14 q 257 33 351 -14 q 117 176 163 79 q 72 424 72 272 l 72 1028 l 326 1028 l 326 398 q 368 244 326 292 q 497 197 410 197 q 624 244 582 197 q 666 398 666 292 l 666 1028 l 915 1028 l 915 424 q 870 176 915 272 q 733 33 825 79 q 497 -14 640 -14 m 236 1135 l 236 1290 l 757 1290 l 757 1135 l 236 1135 m 319 1363 q 220 1393 255 1363 q 185 1478 185 1423 q 220 1563 185 1533 q 319 1592 255 1592 q 419 1563 384 1592 q 453 1478 453 1533 q 419 1393 453 1423 q 319 1363 384 1363 m 673 1363 q 574 1393 608 1363 q 539 1478 539 1423 q 574 1563 539 1533 q 673 1592 608 1592 q 772 1563 738 1592 q 807 1478 807 1533 q 772 1393 807 1423 q 673 1363 738 1363 z "},"Ų":{"ha":986,"x_min":72,"x_max":915,"o":"m 915 1028 l 915 424 q 858 153 915 255 q 685 13 801 51 q 535 -64 575 -24 q 495 -148 495 -103 q 589 -215 495 -215 q 683 -195 632 -215 l 683 -292 q 555 -314 622 -314 q 405 -274 455 -314 q 354 -164 354 -235 q 376 -82 354 -119 q 446 -12 398 -44 q 163 105 254 -1 q 72 424 72 211 l 72 1028 l 326 1028 l 326 398 q 368 244 326 292 q 497 197 410 197 q 624 244 582 197 q 666 398 666 292 l 666 1028 l 915 1028 z "},"Ů":{"ha":986,"x_min":72,"x_max":915,"o":"m 497 -14 q 257 33 351 -14 q 117 176 163 79 q 72 424 72 272 l 72 1028 l 326 1028 l 326 398 q 368 244 326 292 q 497 197 410 197 q 624 244 582 197 q 666 398 666 292 l 666 1028 l 915 1028 l 915 424 q 870 176 915 272 q 733 33 825 79 q 497 -14 640 -14 m 497 1094 q 417 1113 452 1094 q 362 1166 382 1132 q 342 1244 342 1201 q 362 1321 342 1287 q 417 1374 382 1355 q 497 1393 452 1393 q 576 1374 540 1393 q 631 1321 611 1355 q 651 1244 651 1287 q 631 1166 651 1201 q 576 1113 611 1132 q 497 1094 540 1094 m 497 1182 q 539 1199 523 1182 q 555 1244 555 1216 q 539 1288 555 1272 q 497 1305 523 1305 q 454 1288 470 1305 q 438 1244 438 1272 q 454 1199 438 1216 q 497 1182 470 1182 z "},"Ũ":{"ha":986,"x_min":72,"x_max":915,"o":"m 497 -14 q 257 33 351 -14 q 117 176 163 79 q 72 424 72 272 l 72 1028 l 326 1028 l 326 398 q 368 244 326 292 q 497 197 410 197 q 624 244 582 197 q 666 398 666 292 l 666 1028 l 915 1028 l 915 424 q 870 176 915 272 q 733 33 825 79 q 497 -14 640 -14 m 616 1111 q 553 1118 583 1111 q 484 1140 524 1126 q 423 1159 446 1153 q 374 1165 399 1165 q 299 1153 331 1165 q 233 1115 267 1141 l 233 1262 q 296 1302 262 1290 q 377 1315 330 1315 q 439 1307 410 1315 q 509 1285 468 1299 q 569 1265 545 1272 q 619 1259 594 1259 q 693 1271 661 1259 q 759 1310 726 1283 l 759 1163 q 697 1123 731 1135 q 616 1111 663 1111 z "},"Ṹ":{"ha":986,"x_min":72,"x_max":915,"o":"m 497 -14 q 257 33 351 -14 q 117 176 163 79 q 72 424 72 272 l 72 1028 l 326 1028 l 326 398 q 368 244 326 292 q 497 197 410 197 q 624 244 582 197 q 666 398 666 292 l 666 1028 l 915 1028 l 915 424 q 870 176 915 272 q 733 33 825 79 q 497 -14 640 -14 m 372 1370 l 490 1531 l 776 1531 l 621 1370 l 372 1370 m 616 1111 q 553 1118 583 1111 q 484 1140 524 1126 q 423 1159 446 1153 q 374 1165 399 1165 q 299 1153 331 1165 q 233 1115 267 1141 l 233 1262 q 296 1302 262 1290 q 377 1315 330 1315 q 439 1307 410 1315 q 509 1285 468 1299 q 569 1265 545 1272 q 619 1259 594 1259 q 693 1271 661 1259 q 759 1310 726 1283 l 759 1163 q 697 1123 731 1135 q 616 1111 663 1111 z "},"V":{"ha":946,"x_min":-6,"x_max":952,"o":"m 707 1028 l 952 1028 l 665 0 l 281 0 l -6 1028 l 257 1028 l 480 197 l 707 1028 z "},"W":{"ha":1501,"x_min":11,"x_max":1490,"o":"m 1251 1028 l 1490 1028 l 1250 0 l 922 0 l 756 720 l 580 0 l 251 0 l 11 1028 l 267 1028 l 436 253 l 620 1028 l 898 1028 l 1074 242 l 1251 1028 z "},"Ẃ":{"ha":1501,"x_min":11,"x_max":1490,"o":"m 1251 1028 l 1490 1028 l 1250 0 l 922 0 l 756 720 l 580 0 l 251 0 l 11 1028 l 267 1028 l 436 253 l 620 1028 l 898 1028 l 1074 242 l 1251 1028 m 638 1104 l 757 1319 l 1017 1319 l 862 1104 l 638 1104 z "},"Ŵ":{"ha":1501,"x_min":11,"x_max":1490,"o":"m 1251 1028 l 1490 1028 l 1250 0 l 922 0 l 756 720 l 580 0 l 251 0 l 11 1028 l 267 1028 l 436 253 l 620 1028 l 898 1028 l 1074 242 l 1251 1028 m 1012 1104 l 835 1104 l 751 1230 l 665 1104 l 489 1104 l 645 1319 l 856 1319 l 1012 1104 z "},"Ẅ":{"ha":1501,"x_min":11,"x_max":1490,"o":"m 1251 1028 l 1490 1028 l 1250 0 l 922 0 l 756 720 l 580 0 l 251 0 l 11 1028 l 267 1028 l 436 253 l 620 1028 l 898 1028 l 1074 242 l 1251 1028 m 574 1101 q 474 1131 509 1101 q 440 1215 440 1160 q 474 1300 440 1270 q 574 1330 509 1330 q 673 1300 638 1330 q 708 1215 708 1270 q 673 1131 708 1160 q 574 1101 638 1101 m 927 1101 q 828 1131 863 1101 q 793 1215 793 1160 q 828 1300 793 1270 q 927 1330 863 1330 q 1026 1300 992 1330 q 1061 1215 1061 1270 q 1026 1131 1061 1160 q 927 1101 992 1101 z "},"Ẁ":{"ha":1501,"x_min":11,"x_max":1490,"o":"m 1251 1028 l 1490 1028 l 1250 0 l 922 0 l 756 720 l 580 0 l 251 0 l 11 1028 l 267 1028 l 436 253 l 620 1028 l 898 1028 l 1074 242 l 1251 1028 m 638 1104 l 483 1319 l 744 1319 l 863 1104 l 638 1104 z "},"X":{"ha":928,"x_min":-31,"x_max":955,"o":"m 612 538 l 955 0 l 678 0 l 463 343 l 247 0 l -31 0 l 315 536 l -2 1028 l 278 1028 l 464 734 l 650 1028 l 924 1028 l 612 538 z "},"Y":{"ha":862,"x_min":-44,"x_max":899,"o":"m 899 1028 l 559 428 l 559 0 l 305 0 l 305 426 l -44 1028 l 224 1028 l 439 651 l 653 1028 l 899 1028 z "},"Ý":{"ha":862,"x_min":-44,"x_max":899,"o":"m 899 1028 l 559 428 l 559 0 l 305 0 l 305 426 l -44 1028 l 224 1028 l 439 651 l 653 1028 l 899 1028 m 319 1104 l 438 1319 l 699 1319 l 543 1104 l 319 1104 z "},"Ŷ":{"ha":862,"x_min":-44,"x_max":899,"o":"m 899 1028 l 559 428 l 559 0 l 305 0 l 305 426 l -44 1028 l 224 1028 l 439 651 l 653 1028 l 899 1028 m 693 1104 l 517 1104 l 432 1230 l 347 1104 l 170 1104 l 326 1319 l 537 1319 l 693 1104 z "},"Ÿ":{"ha":862,"x_min":-44,"x_max":899,"o":"m 899 1028 l 559 428 l 559 0 l 305 0 l 305 426 l -44 1028 l 224 1028 l 439 651 l 653 1028 l 899 1028 m 255 1101 q 156 1131 190 1101 q 121 1215 121 1160 q 156 1300 121 1270 q 255 1330 190 1330 q 354 1300 319 1330 q 389 1215 389 1270 q 354 1131 389 1160 q 255 1101 319 1101 m 608 1101 q 509 1131 544 1101 q 474 1215 474 1160 q 509 1300 474 1270 q 608 1330 544 1330 q 708 1300 673 1330 q 742 1215 742 1270 q 708 1131 742 1160 q 608 1101 673 1101 z "},"Ẏ":{"ha":862,"x_min":-44,"x_max":899,"o":"m 899 1028 l 559 428 l 559 0 l 305 0 l 305 426 l -44 1028 l 224 1028 l 439 651 l 653 1028 l 899 1028 m 432 1101 q 319 1130 358 1101 q 279 1215 279 1159 q 319 1301 279 1272 q 432 1330 358 1330 q 545 1301 506 1330 q 584 1215 584 1272 q 545 1130 584 1159 q 432 1101 506 1101 z "},"Ỵ":{"ha":862,"x_min":-44,"x_max":899,"o":"m 899 1028 l 559 428 l 559 0 l 305 0 l 305 426 l -44 1028 l 224 1028 l 439 651 l 653 1028 l 899 1028 m 431 -308 q 318 -279 358 -308 q 278 -194 278 -250 q 318 -108 278 -137 q 431 -79 358 -79 q 544 -108 505 -79 q 583 -194 583 -137 q 544 -279 583 -250 q 431 -308 505 -308 z "},"Ỳ":{"ha":862,"x_min":-44,"x_max":899,"o":"m 899 1028 l 559 428 l 559 0 l 305 0 l 305 426 l -44 1028 l 224 1028 l 439 651 l 653 1028 l 899 1028 m 319 1104 l 164 1319 l 425 1319 l 544 1104 l 319 1104 z "},"Ỷ":{"ha":862,"x_min":-44,"x_max":899,"o":"m 899 1028 l 559 428 l 559 0 l 305 0 l 305 426 l -44 1028 l 224 1028 l 439 651 l 653 1028 l 899 1028 m 370 1104 q 392 1156 372 1138 q 446 1191 413 1174 q 472 1205 464 1199 q 479 1218 479 1210 q 462 1236 479 1231 q 409 1242 445 1242 q 281 1227 342 1242 l 281 1320 q 351 1332 308 1328 q 429 1337 393 1337 q 568 1313 524 1337 q 612 1238 612 1289 q 596 1195 612 1211 q 548 1160 580 1178 q 508 1133 522 1144 q 493 1104 495 1122 l 370 1104 z "},"Ȳ":{"ha":862,"x_min":-44,"x_max":899,"o":"m 899 1028 l 559 428 l 559 0 l 305 0 l 305 426 l -44 1028 l 224 1028 l 439 651 l 653 1028 l 899 1028 m 172 1135 l 172 1290 l 692 1290 l 692 1135 l 172 1135 z "},"Ỹ":{"ha":862,"x_min":-44,"x_max":899,"o":"m 899 1028 l 559 428 l 559 0 l 305 0 l 305 426 l -44 1028 l 224 1028 l 439 651 l 653 1028 l 899 1028 m 551 1111 q 489 1118 518 1111 q 419 1140 459 1126 q 358 1159 381 1153 q 309 1165 335 1165 q 234 1153 267 1165 q 169 1115 202 1141 l 169 1262 q 231 1302 197 1290 q 313 1315 265 1315 q 375 1307 346 1315 q 444 1285 403 1299 q 505 1265 481 1272 q 555 1259 529 1259 q 629 1271 597 1259 q 694 1310 661 1283 l 694 1163 q 633 1123 667 1135 q 551 1111 599 1111 z "},"Z":{"ha":819,"x_min":32,"x_max":788,"o":"m 362 218 l 788 218 l 788 0 l 32 0 l 32 141 l 451 810 l 39 810 l 39 1028 l 781 1028 l 781 887 l 362 218 z "},"Ź":{"ha":819,"x_min":32,"x_max":788,"o":"m 362 218 l 788 218 l 788 0 l 32 0 l 32 141 l 451 810 l 39 810 l 39 1028 l 781 1028 l 781 887 l 362 218 m 299 1104 l 417 1319 l 678 1319 l 522 1104 l 299 1104 z "},"Ž":{"ha":819,"x_min":32,"x_max":788,"o":"m 362 218 l 788 218 l 788 0 l 32 0 l 32 141 l 451 810 l 39 810 l 39 1028 l 781 1028 l 781 887 l 362 218 m 496 1319 l 672 1319 l 516 1104 l 306 1104 l 149 1319 l 326 1319 l 411 1194 l 496 1319 z "},"Ż":{"ha":819,"x_min":32,"x_max":788,"o":"m 362 218 l 788 218 l 788 0 l 32 0 l 32 141 l 451 810 l 39 810 l 39 1028 l 781 1028 l 781 887 l 362 218 m 411 1101 q 298 1130 338 1101 q 258 1215 258 1159 q 298 1301 258 1272 q 411 1330 338 1330 q 524 1301 485 1330 q 563 1215 563 1272 q 524 1130 563 1159 q 411 1101 485 1101 z "},"Ẓ":{"ha":819,"x_min":32,"x_max":788,"o":"m 362 218 l 788 218 l 788 0 l 32 0 l 32 141 l 451 810 l 39 810 l 39 1028 l 781 1028 l 781 887 l 362 218 m 407 -308 q 294 -279 333 -308 q 254 -194 254 -250 q 294 -108 254 -137 q 407 -79 333 -79 q 520 -108 481 -79 q 559 -194 559 -137 q 520 -279 559 -250 q 407 -308 481 -308 z "},"a":{"ha":741,"x_min":31,"x_max":678,"o":"m 333 774 q 531 743 456 774 q 642 641 606 712 q 678 448 678 569 l 678 0 l 474 0 l 456 76 l 446 76 q 372 7 418 29 q 265 -15 325 -15 q 141 13 194 -15 q 60 92 88 41 q 31 210 31 143 q 106 385 31 323 q 342 457 180 447 l 435 463 q 420 533 434 508 q 374 569 406 558 q 285 581 342 581 q 189 574 240 581 q 92 553 138 567 l 92 745 q 210 767 146 759 q 333 774 275 774 m 352 163 q 435 194 401 163 l 435 324 l 372 319 q 276 236 276 313 q 296 182 276 201 q 352 163 316 163 z "},"á":{"ha":741,"x_min":31,"x_max":678,"o":"m 333 774 q 531 743 456 774 q 642 641 606 712 q 678 448 678 569 l 678 0 l 474 0 l 456 76 l 446 76 q 372 7 418 29 q 265 -15 325 -15 q 141 13 194 -15 q 60 92 88 41 q 31 210 31 143 q 106 385 31 323 q 342 457 180 447 l 435 463 q 420 533 434 508 q 374 569 406 558 q 285 581 342 581 q 189 574 240 581 q 92 553 138 567 l 92 745 q 210 767 146 759 q 333 774 275 774 m 352 163 q 435 194 401 163 l 435 324 l 372 319 q 276 236 276 313 q 296 182 276 201 q 352 163 316 163 m 257 851 l 408 1122 l 665 1122 l 480 851 l 257 851 z "},"ă":{"ha":741,"x_min":31,"x_max":678,"o":"m 333 774 q 531 743 456 774 q 642 641 606 712 q 678 448 678 569 l 678 0 l 474 0 l 456 76 l 446 76 q 372 7 418 29 q 265 -15 325 -15 q 141 13 194 -15 q 60 92 88 41 q 31 210 31 143 q 106 385 31 323 q 342 457 180 447 l 435 463 q 420 533 434 508 q 374 569 406 558 q 285 581 342 581 q 189 574 240 581 q 92 553 138 567 l 92 745 q 210 767 146 759 q 333 774 275 774 m 352 163 q 435 194 401 163 l 435 324 l 372 319 q 276 236 276 313 q 296 182 276 201 q 352 163 316 163 m 369 858 q 190 920 256 858 q 117 1108 124 983 l 268 1108 q 297 1015 272 1044 q 369 985 322 985 q 440 1015 415 985 q 469 1108 465 1044 l 620 1108 q 548 920 613 983 q 369 858 482 858 z "},"ắ":{"ha":741,"x_min":31,"x_max":678,"o":"m 333 774 q 531 743 456 774 q 642 641 606 712 q 678 448 678 569 l 678 0 l 474 0 l 456 76 l 446 76 q 372 7 418 29 q 265 -15 325 -15 q 141 13 194 -15 q 60 92 88 41 q 31 210 31 143 q 106 385 31 323 q 342 457 180 447 l 435 463 q 420 533 434 508 q 374 569 406 558 q 285 581 342 581 q 189 574 240 581 q 92 553 138 567 l 92 745 q 210 767 146 759 q 333 774 275 774 m 352 163 q 435 194 401 163 l 435 324 l 372 319 q 276 236 276 313 q 296 182 276 201 q 352 163 316 163 m 283 1110 l 401 1297 l 609 1297 l 453 1110 l 283 1110 m 369 860 q 185 917 252 860 q 108 1078 119 974 l 260 1078 q 293 1004 267 1028 q 369 980 319 980 q 444 1004 418 980 q 478 1078 471 1028 l 628 1078 q 552 917 618 974 q 369 860 485 860 z "},"ặ":{"ha":741,"x_min":31,"x_max":678,"o":"m 333 774 q 531 743 456 774 q 642 641 606 712 q 678 448 678 569 l 678 0 l 474 0 l 456 76 l 446 76 q 372 7 418 29 q 265 -15 325 -15 q 141 13 194 -15 q 60 92 88 41 q 31 210 31 143 q 106 385 31 323 q 342 457 180 447 l 435 463 q 420 533 434 508 q 374 569 406 558 q 285 581 342 581 q 189 574 240 581 q 92 553 138 567 l 92 745 q 210 767 146 759 q 333 774 275 774 m 352 163 q 435 194 401 163 l 435 324 l 372 319 q 276 236 276 313 q 296 182 276 201 q 352 163 316 163 m 370 -330 q 272 -297 308 -330 q 237 -205 237 -263 q 272 -113 237 -147 q 370 -79 308 -79 q 468 -113 433 -79 q 503 -205 503 -147 q 468 -297 503 -263 q 370 -330 433 -330 m 369 858 q 190 920 256 858 q 117 1108 124 983 l 268 1108 q 297 1015 272 1044 q 369 985 322 985 q 440 1015 415 985 q 469 1108 465 1044 l 620 1108 q 548 920 613 983 q 369 858 482 858 z "},"ằ":{"ha":741,"x_min":31,"x_max":678,"o":"m 333 774 q 531 743 456 774 q 642 641 606 712 q 678 448 678 569 l 678 0 l 474 0 l 456 76 l 446 76 q 372 7 418 29 q 265 -15 325 -15 q 141 13 194 -15 q 60 92 88 41 q 31 210 31 143 q 106 385 31 323 q 342 457 180 447 l 435 463 q 420 533 434 508 q 374 569 406 558 q 285 581 342 581 q 189 574 240 581 q 92 553 138 567 l 92 745 q 210 767 146 759 q 333 774 275 774 m 352 163 q 435 194 401 163 l 435 324 l 372 319 q 276 236 276 313 q 296 182 276 201 q 352 163 316 163 m 283 1110 l 128 1297 l 335 1297 l 455 1110 l 283 1110 m 369 860 q 185 917 252 860 q 108 1078 119 974 l 260 1078 q 293 1004 267 1028 q 369 980 319 980 q 444 1004 418 980 q 478 1078 471 1028 l 628 1078 q 552 917 618 974 q 369 860 485 860 z "},"ẳ":{"ha":741,"x_min":31,"x_max":678,"o":"m 333 774 q 531 743 456 774 q 642 641 606 712 q 678 448 678 569 l 678 0 l 474 0 l 456 76 l 446 76 q 372 7 418 29 q 265 -15 325 -15 q 141 13 194 -15 q 60 92 88 41 q 31 210 31 143 q 106 385 31 323 q 342 457 180 447 l 435 463 q 420 533 434 508 q 374 569 406 558 q 285 581 342 581 q 189 574 240 581 q 92 553 138 567 l 92 745 q 210 767 146 759 q 333 774 275 774 m 352 163 q 435 194 401 163 l 435 324 l 372 319 q 276 236 276 313 q 296 182 276 201 q 352 163 316 163 m 307 1110 q 329 1155 309 1139 q 381 1185 349 1171 q 408 1198 399 1192 q 416 1210 416 1203 q 346 1231 416 1231 q 217 1218 278 1231 l 217 1298 q 289 1309 246 1305 q 366 1313 331 1313 q 505 1292 460 1313 q 549 1227 549 1271 q 532 1189 549 1203 q 485 1159 516 1174 q 445 1135 459 1146 q 430 1110 432 1125 l 307 1110 m 369 860 q 185 917 252 860 q 108 1078 119 974 l 260 1078 q 293 1004 267 1028 q 369 980 319 980 q 444 1004 418 980 q 478 1078 471 1028 l 628 1078 q 552 917 618 974 q 369 860 485 860 z "},"ẵ":{"ha":741,"x_min":31,"x_max":678,"o":"m 333 774 q 531 743 456 774 q 642 641 606 712 q 678 448 678 569 l 678 0 l 474 0 l 456 76 l 446 76 q 372 7 418 29 q 265 -15 325 -15 q 141 13 194 -15 q 60 92 88 41 q 31 210 31 143 q 106 385 31 323 q 342 457 180 447 l 435 463 q 420 533 434 508 q 374 569 406 558 q 285 581 342 581 q 189 574 240 581 q 92 553 138 567 l 92 745 q 210 767 146 759 q 333 774 275 774 m 352 163 q 435 194 401 163 l 435 324 l 372 319 q 276 236 276 313 q 296 182 276 201 q 352 163 316 163 m 488 1115 q 425 1122 454 1115 q 357 1140 395 1128 q 295 1157 319 1151 q 246 1163 272 1163 q 172 1152 204 1163 q 106 1119 140 1142 l 106 1246 q 168 1281 135 1270 q 249 1292 202 1292 q 311 1285 283 1292 q 381 1266 340 1278 q 442 1249 419 1255 q 491 1244 465 1244 q 565 1254 533 1244 q 631 1288 597 1265 l 631 1160 q 569 1126 603 1137 q 488 1115 535 1115 m 369 860 q 185 917 252 860 q 108 1078 119 974 l 260 1078 q 293 1004 267 1028 q 369 980 319 980 q 444 1004 418 980 q 478 1078 471 1028 l 628 1078 q 552 917 618 974 q 369 860 485 860 z "},"â":{"ha":741,"x_min":31,"x_max":678,"o":"m 333 774 q 531 743 456 774 q 642 641 606 712 q 678 448 678 569 l 678 0 l 474 0 l 456 76 l 446 76 q 372 7 418 29 q 265 -15 325 -15 q 141 13 194 -15 q 60 92 88 41 q 31 210 31 143 q 106 385 31 323 q 342 457 180 447 l 435 463 q 420 533 434 508 q 374 569 406 558 q 285 581 342 581 q 189 574 240 581 q 92 553 138 567 l 92 745 q 210 767 146 759 q 333 774 275 774 m 352 163 q 435 194 401 163 l 435 324 l 372 319 q 276 236 276 313 q 296 182 276 201 q 352 163 316 163 m 620 851 l 449 851 l 369 1009 l 289 851 l 117 851 l 265 1122 l 472 1122 l 620 851 z "},"ấ":{"ha":741,"x_min":31,"x_max":855,"o":"m 333 774 q 531 743 456 774 q 642 641 606 712 q 678 448 678 569 l 678 0 l 474 0 l 456 76 l 446 76 q 372 7 418 29 q 265 -15 325 -15 q 141 13 194 -15 q 60 92 88 41 q 31 210 31 143 q 106 385 31 323 q 342 457 180 447 l 435 463 q 420 533 434 508 q 374 569 406 558 q 285 581 342 581 q 189 574 240 581 q 92 553 138 567 l 92 745 q 210 767 146 759 q 333 774 275 774 m 352 163 q 435 194 401 163 l 435 324 l 372 319 q 276 236 276 313 q 296 182 276 201 q 352 163 316 163 m 647 1297 l 855 1297 l 699 1110 l 528 1110 l 647 1297 m 265 1122 l 472 1122 l 620 851 l 449 851 l 369 1009 l 289 851 l 117 851 l 265 1122 z "},"ậ":{"ha":741,"x_min":31,"x_max":678,"o":"m 333 774 q 531 743 456 774 q 642 641 606 712 q 678 448 678 569 l 678 0 l 474 0 l 456 76 l 446 76 q 372 7 418 29 q 265 -15 325 -15 q 141 13 194 -15 q 60 92 88 41 q 31 210 31 143 q 106 385 31 323 q 342 457 180 447 l 435 463 q 420 533 434 508 q 374 569 406 558 q 285 581 342 581 q 189 574 240 581 q 92 553 138 567 l 92 745 q 210 767 146 759 q 333 774 275 774 m 352 163 q 435 194 401 163 l 435 324 l 372 319 q 276 236 276 313 q 296 182 276 201 q 352 163 316 163 m 370 -330 q 272 -297 308 -330 q 237 -205 237 -263 q 272 -113 237 -147 q 370 -79 308 -79 q 468 -113 433 -79 q 503 -205 503 -147 q 468 -297 503 -263 q 370 -330 433 -330 m 620 851 l 449 851 l 369 1009 l 289 851 l 117 851 l 265 1122 l 472 1122 l 620 851 z "},"ầ":{"ha":741,"x_min":31,"x_max":724,"o":"m 333 774 q 531 743 456 774 q 642 641 606 712 q 678 448 678 569 l 678 0 l 474 0 l 456 76 l 446 76 q 372 7 418 29 q 265 -15 325 -15 q 141 13 194 -15 q 60 92 88 41 q 31 210 31 143 q 106 385 31 323 q 342 457 180 447 l 435 463 q 420 533 434 508 q 374 569 406 558 q 285 581 342 581 q 189 574 240 581 q 92 553 138 567 l 92 745 q 210 767 146 759 q 333 774 275 774 m 352 163 q 435 194 401 163 l 435 324 l 372 319 q 276 236 276 313 q 296 182 276 201 q 352 163 316 163 m 724 1110 l 553 1110 l 398 1297 l 606 1297 l 724 1110 m 265 1122 l 472 1122 l 620 851 l 449 851 l 369 1009 l 289 851 l 117 851 l 265 1122 z "},"ẩ":{"ha":741,"x_min":31,"x_max":760,"o":"m 333 774 q 531 743 456 774 q 642 641 606 712 q 678 448 678 569 l 678 0 l 474 0 l 456 76 l 446 76 q 372 7 418 29 q 265 -15 325 -15 q 141 13 194 -15 q 60 92 88 41 q 31 210 31 143 q 106 385 31 323 q 342 457 180 447 l 435 463 q 420 533 434 508 q 374 569 406 558 q 285 581 342 581 q 189 574 240 581 q 92 553 138 567 l 92 745 q 210 767 146 759 q 333 774 275 774 m 352 163 q 435 194 401 163 l 435 324 l 372 319 q 276 236 276 313 q 296 182 276 201 q 352 163 316 163 m 583 1313 q 718 1293 676 1313 q 760 1227 760 1272 q 746 1191 760 1204 q 702 1163 731 1178 q 663 1138 676 1149 q 646 1110 649 1127 l 526 1110 q 548 1157 528 1140 q 599 1188 567 1173 q 623 1199 616 1194 q 631 1210 631 1204 q 615 1227 631 1222 q 563 1232 599 1232 q 439 1219 498 1232 l 439 1298 q 507 1309 465 1305 q 583 1313 549 1313 m 265 1122 l 472 1122 l 620 851 l 449 851 l 369 1009 l 289 851 l 117 851 l 265 1122 z "},"ẫ":{"ha":741,"x_min":31,"x_max":678,"o":"m 333 774 q 531 743 456 774 q 642 641 606 712 q 678 448 678 569 l 678 0 l 474 0 l 456 76 l 446 76 q 372 7 418 29 q 265 -15 325 -15 q 141 13 194 -15 q 60 92 88 41 q 31 210 31 143 q 106 385 31 323 q 342 457 180 447 l 435 463 q 420 533 434 508 q 374 569 406 558 q 285 581 342 581 q 189 574 240 581 q 92 553 138 567 l 92 745 q 210 767 146 759 q 333 774 275 774 m 352 163 q 435 194 401 163 l 435 324 l 372 319 q 276 236 276 313 q 296 182 276 201 q 352 163 316 163 m 490 1243 q 564 1254 532 1243 q 630 1288 596 1265 l 630 1160 q 568 1126 602 1137 q 487 1115 534 1115 q 425 1122 454 1115 q 356 1141 397 1128 q 295 1158 319 1152 q 247 1163 272 1163 q 173 1152 205 1163 q 107 1118 141 1142 l 107 1246 q 169 1281 135 1269 q 250 1292 203 1292 q 312 1285 283 1292 q 381 1266 341 1278 q 441 1249 417 1254 q 490 1243 465 1243 m 263 1075 l 474 1075 l 628 852 l 452 852 l 369 983 l 285 852 l 109 852 l 263 1075 z "},"ȁ":{"ha":741,"x_min":17,"x_max":678,"o":"m 333 774 q 531 743 456 774 q 642 641 606 712 q 678 448 678 569 l 678 0 l 474 0 l 456 76 l 446 76 q 372 7 418 29 q 265 -15 325 -15 q 141 13 194 -15 q 60 92 88 41 q 31 210 31 143 q 106 385 31 323 q 342 457 180 447 l 435 463 q 420 533 434 508 q 374 569 406 558 q 285 581 342 581 q 189 574 240 581 q 92 553 138 567 l 92 745 q 210 767 146 759 q 333 774 275 774 m 352 163 q 435 194 401 163 l 435 324 l 372 319 q 276 236 276 313 q 296 182 276 201 q 352 163 316 163 m 128 851 l 17 1122 l 217 1122 l 316 851 l 128 851 m 421 851 l 310 1122 l 510 1122 l 609 851 l 421 851 z "},"ä":{"ha":741,"x_min":31,"x_max":678,"o":"m 333 774 q 531 743 456 774 q 642 641 606 712 q 678 448 678 569 l 678 0 l 474 0 l 456 76 l 446 76 q 372 7 418 29 q 265 -15 325 -15 q 141 13 194 -15 q 60 92 88 41 q 31 210 31 143 q 106 385 31 323 q 342 457 180 447 l 435 463 q 420 533 434 508 q 374 569 406 558 q 285 581 342 581 q 189 574 240 581 q 92 553 138 567 l 92 745 q 210 767 146 759 q 333 774 275 774 m 352 163 q 435 194 401 163 l 435 324 l 372 319 q 276 236 276 313 q 296 182 276 201 q 352 163 316 163 m 199 858 q 101 892 136 858 q 66 985 66 926 q 101 1078 66 1045 q 199 1112 136 1112 q 297 1078 261 1112 q 332 985 332 1044 q 297 892 332 926 q 199 858 261 858 m 538 858 q 441 892 476 858 q 406 985 406 926 q 441 1078 406 1045 q 538 1112 476 1112 q 636 1078 601 1112 q 672 985 672 1044 q 636 892 672 926 q 538 858 601 858 z "},"ạ":{"ha":741,"x_min":31,"x_max":678,"o":"m 333 774 q 531 743 456 774 q 642 641 606 712 q 678 448 678 569 l 678 0 l 474 0 l 456 76 l 446 76 q 372 7 418 29 q 265 -15 325 -15 q 141 13 194 -15 q 60 92 88 41 q 31 210 31 143 q 106 385 31 323 q 342 457 180 447 l 435 463 q 420 533 434 508 q 374 569 406 558 q 285 581 342 581 q 189 574 240 581 q 92 553 138 567 l 92 745 q 210 767 146 759 q 333 774 275 774 m 352 163 q 435 194 401 163 l 435 324 l 372 319 q 276 236 276 313 q 296 182 276 201 q 352 163 316 163 m 370 -330 q 272 -297 308 -330 q 237 -205 237 -263 q 272 -113 237 -147 q 370 -79 308 -79 q 468 -113 433 -79 q 503 -205 503 -147 q 468 -297 503 -263 q 370 -330 433 -330 z "},"à":{"ha":741,"x_min":31,"x_max":678,"o":"m 333 774 q 531 743 456 774 q 642 641 606 712 q 678 448 678 569 l 678 0 l 474 0 l 456 76 l 446 76 q 372 7 418 29 q 265 -15 325 -15 q 141 13 194 -15 q 60 92 88 41 q 31 210 31 143 q 106 385 31 323 q 342 457 180 447 l 435 463 q 420 533 434 508 q 374 569 406 558 q 285 581 342 581 q 189 574 240 581 q 92 553 138 567 l 92 745 q 210 767 146 759 q 333 774 275 774 m 352 163 q 435 194 401 163 l 435 324 l 372 319 q 276 236 276 313 q 296 182 276 201 q 352 163 316 163 m 257 851 l 72 1122 l 329 1122 l 480 851 l 257 851 z "},"ả":{"ha":741,"x_min":31,"x_max":678,"o":"m 333 774 q 531 743 456 774 q 642 641 606 712 q 678 448 678 569 l 678 0 l 474 0 l 456 76 l 446 76 q 372 7 418 29 q 265 -15 325 -15 q 141 13 194 -15 q 60 92 88 41 q 31 210 31 143 q 106 385 31 323 q 342 457 180 447 l 435 463 q 420 533 434 508 q 374 569 406 558 q 285 581 342 581 q 189 574 240 581 q 92 553 138 567 l 92 745 q 210 767 146 759 q 333 774 275 774 m 352 163 q 435 194 401 163 l 435 324 l 372 319 q 276 236 276 313 q 296 182 276 201 q 352 163 316 163 m 307 851 q 326 916 309 892 q 372 961 342 939 q 396 983 388 974 q 403 1003 403 992 q 389 1027 403 1019 q 344 1034 374 1034 q 233 1017 290 1034 l 233 1113 q 296 1126 259 1121 q 365 1131 333 1131 q 494 1104 451 1131 q 536 1021 536 1077 q 522 965 536 985 q 479 922 507 944 q 444 889 456 903 q 430 851 433 874 l 307 851 z "},"ȃ":{"ha":741,"x_min":31,"x_max":678,"o":"m 333 774 q 531 743 456 774 q 642 641 606 712 q 678 448 678 569 l 678 0 l 474 0 l 456 76 l 446 76 q 372 7 418 29 q 265 -15 325 -15 q 141 13 194 -15 q 60 92 88 41 q 31 210 31 143 q 106 385 31 323 q 342 457 180 447 l 435 463 q 420 533 434 508 q 374 569 406 558 q 285 581 342 581 q 189 574 240 581 q 92 553 138 567 l 92 745 q 210 767 146 759 q 333 774 275 774 m 352 163 q 435 194 401 163 l 435 324 l 372 319 q 276 236 276 313 q 296 182 276 201 q 352 163 316 163 m 117 871 q 189 1058 124 996 q 368 1120 253 1120 q 547 1058 481 1120 q 620 871 613 995 l 469 871 q 440 966 465 935 q 368 996 415 996 q 295 966 319 996 q 268 871 272 937 l 117 871 z "},"ā":{"ha":741,"x_min":31,"x_max":678,"o":"m 333 774 q 531 743 456 774 q 642 641 606 712 q 678 448 678 569 l 678 0 l 474 0 l 456 76 l 446 76 q 372 7 418 29 q 265 -15 325 -15 q 141 13 194 -15 q 60 92 88 41 q 31 210 31 143 q 106 385 31 323 q 342 457 180 447 l 435 463 q 420 533 434 508 q 374 569 406 558 q 285 581 342 581 q 189 574 240 581 q 92 553 138 567 l 92 745 q 210 767 146 759 q 333 774 275 774 m 352 163 q 435 194 401 163 l 435 324 l 372 319 q 276 236 276 313 q 296 182 276 201 q 352 163 316 163 m 120 908 l 120 1063 l 617 1063 l 617 908 l 120 908 z "},"ą":{"ha":741,"x_min":31,"x_max":690,"o":"m 605 -215 q 690 -195 644 -215 l 690 -292 q 634 -308 663 -303 q 571 -314 606 -314 q 432 -274 480 -314 q 384 -164 384 -234 q 408 -74 384 -114 q 488 0 432 -34 l 474 0 l 456 76 l 446 76 q 372 7 418 29 q 265 -15 325 -15 q 141 13 194 -15 q 60 92 88 41 q 31 210 31 143 q 106 385 31 323 q 342 457 180 447 l 435 463 q 420 533 434 508 q 374 569 406 558 q 285 581 342 581 q 189 574 240 581 q 92 553 138 567 l 92 745 q 210 767 146 759 q 333 774 275 774 q 531 743 456 774 q 642 641 606 712 q 678 448 678 569 l 678 0 q 558 -70 592 -34 q 525 -149 525 -106 q 545 -197 525 -180 q 605 -215 566 -215 m 352 163 q 435 194 401 163 l 435 324 l 372 319 q 276 236 276 313 q 296 182 276 201 q 352 163 316 163 z "},"å":{"ha":741,"x_min":31,"x_max":678,"o":"m 333 774 q 531 743 456 774 q 642 641 606 712 q 678 448 678 569 l 678 0 l 474 0 l 456 76 l 446 76 q 372 7 418 29 q 265 -15 325 -15 q 141 13 194 -15 q 60 92 88 41 q 31 210 31 143 q 106 385 31 323 q 342 457 180 447 l 435 463 q 420 533 434 508 q 374 569 406 558 q 285 581 342 581 q 189 574 240 581 q 92 553 138 567 l 92 745 q 210 767 146 759 q 333 774 275 774 m 352 163 q 435 194 401 163 l 435 324 l 372 319 q 276 236 276 313 q 296 182 276 201 q 352 163 316 163 m 369 847 q 289 866 324 847 q 234 919 254 885 q 214 997 214 953 q 234 1074 214 1040 q 289 1127 254 1108 q 369 1147 324 1147 q 448 1127 413 1147 q 503 1074 483 1108 q 523 997 523 1040 q 503 919 523 953 q 448 866 483 885 q 369 847 413 847 m 369 935 q 411 952 395 935 q 427 997 427 969 q 411 1041 427 1024 q 369 1058 395 1058 q 326 1041 342 1058 q 310 997 310 1024 q 326 952 310 969 q 369 935 342 935 z "},"ǻ":{"ha":741,"x_min":31,"x_max":678,"o":"m 333 774 q 531 743 456 774 q 642 641 606 712 q 678 448 678 569 l 678 0 l 474 0 l 456 76 l 446 76 q 372 7 418 29 q 265 -15 325 -15 q 141 13 194 -15 q 60 92 88 41 q 31 210 31 143 q 106 385 31 323 q 342 457 180 447 l 435 463 q 420 533 434 508 q 374 569 406 558 q 285 581 342 581 q 189 574 240 581 q 92 553 138 567 l 92 745 q 210 767 146 759 q 333 774 275 774 m 352 163 q 435 194 401 163 l 435 324 l 372 319 q 276 236 276 313 q 296 182 276 201 q 352 163 316 163 m 505 1071 q 523 997 523 1038 q 503 919 523 953 q 448 866 483 885 q 369 847 413 847 q 289 866 324 847 q 234 919 254 885 q 214 997 214 953 q 234 1074 214 1040 q 289 1127 254 1108 q 369 1147 324 1147 q 392 1145 376 1147 l 462 1236 l 648 1236 l 505 1071 m 369 935 q 411 952 395 935 q 427 997 427 969 q 411 1041 427 1024 q 369 1058 395 1058 q 326 1041 342 1058 q 310 997 310 1024 q 326 952 310 969 q 369 935 342 935 z "},"ã":{"ha":741,"x_min":31,"x_max":678,"o":"m 333 774 q 531 743 456 774 q 642 641 606 712 q 678 448 678 569 l 678 0 l 474 0 l 456 76 l 446 76 q 372 7 418 29 q 265 -15 325 -15 q 141 13 194 -15 q 60 92 88 41 q 31 210 31 143 q 106 385 31 323 q 342 457 180 447 l 435 463 q 420 533 434 508 q 374 569 406 558 q 285 581 342 581 q 189 574 240 581 q 92 553 138 567 l 92 745 q 210 767 146 759 q 333 774 275 774 m 352 163 q 435 194 401 163 l 435 324 l 372 319 q 276 236 276 313 q 296 182 276 201 q 352 163 316 163 m 478 878 q 422 887 449 878 q 356 913 395 896 q 301 936 324 928 q 255 944 278 944 q 184 929 216 944 q 120 883 153 915 l 120 1042 q 181 1084 148 1071 q 258 1097 215 1097 q 316 1088 289 1097 q 381 1062 344 1079 q 437 1039 415 1047 q 482 1032 459 1032 q 552 1047 521 1032 q 617 1093 584 1061 l 617 934 q 556 892 590 905 q 478 878 522 878 z "},"æ":{"ha":1119,"x_min":31,"x_max":1089,"o":"m 1089 308 l 678 308 q 700 231 682 258 q 758 191 719 203 q 867 178 798 178 q 1049 202 948 178 l 1049 10 q 835 -15 936 -15 q 647 11 724 -15 q 522 90 570 36 q 417 9 476 33 q 289 -15 359 -15 q 149 13 206 -15 q 61 91 91 40 q 31 213 31 142 q 108 389 31 324 q 347 453 185 453 l 439 453 l 439 459 q 423 531 439 505 q 373 569 407 558 q 283 581 340 581 q 190 573 240 581 q 93 553 139 566 l 93 745 q 322 774 207 774 q 473 753 411 774 q 572 688 534 732 q 664 752 610 730 q 783 774 717 774 q 947 729 878 774 q 1052 595 1016 684 q 1089 376 1089 506 l 1089 308 m 769 615 q 719 601 738 615 q 689 551 699 586 q 678 453 678 515 l 857 453 q 846 551 856 515 q 817 601 836 586 q 769 615 799 615 m 356 165 q 411 175 385 165 q 460 209 436 185 q 442 315 446 258 l 374 315 q 300 293 324 315 q 276 234 276 272 q 296 182 276 200 q 356 165 317 165 z "},"ǽ":{"ha":1119,"x_min":31,"x_max":1089,"o":"m 1089 308 l 678 308 q 700 231 682 258 q 758 191 719 203 q 867 178 798 178 q 1049 202 948 178 l 1049 10 q 835 -15 936 -15 q 647 11 724 -15 q 522 90 570 36 q 417 9 476 33 q 289 -15 359 -15 q 149 13 206 -15 q 61 91 91 40 q 31 213 31 142 q 108 389 31 324 q 347 453 185 453 l 439 453 l 439 459 q 423 531 439 505 q 373 569 407 558 q 283 581 340 581 q 190 573 240 581 q 93 553 139 566 l 93 745 q 322 774 207 774 q 473 753 411 774 q 572 688 534 732 q 664 752 610 730 q 783 774 717 774 q 947 729 878 774 q 1052 595 1016 684 q 1089 376 1089 506 l 1089 308 m 769 615 q 719 601 738 615 q 689 551 699 586 q 678 453 678 515 l 857 453 q 846 551 856 515 q 817 601 836 586 q 769 615 799 615 m 356 165 q 411 175 385 165 q 460 209 436 185 q 442 315 446 258 l 374 315 q 300 293 324 315 q 276 234 276 272 q 296 182 276 200 q 356 165 317 165 m 449 851 l 599 1122 l 857 1122 l 672 851 l 449 851 z "},"b":{"ha":814,"x_min":67,"x_max":776,"o":"m 358 -14 q 207 -2 283 -14 q 67 31 131 9 l 67 1122 l 317 1122 l 317 687 l 329 687 q 401 752 356 729 q 503 774 445 774 q 641 733 579 774 q 740 606 703 692 q 776 394 776 521 q 674 90 776 193 q 358 -14 571 -14 m 377 175 q 459 194 427 175 q 507 256 491 213 q 524 374 524 300 q 509 491 524 449 q 467 550 494 533 q 399 567 440 567 q 355 561 376 567 q 317 542 333 555 l 317 182 q 377 175 347 175 z "},"c":{"ha":630,"x_min":37,"x_max":600,"o":"m 420 -15 q 135 84 233 -15 q 37 380 37 182 q 143 677 37 581 q 444 774 249 774 q 600 760 528 774 l 600 560 q 486 570 543 570 q 341 526 386 570 q 296 383 296 483 q 338 234 296 278 q 469 190 380 190 q 600 211 524 190 l 600 12 q 514 -8 560 -1 q 420 -15 467 -15 z "},"ć":{"ha":630,"x_min":37,"x_max":643,"o":"m 420 -15 q 135 84 233 -15 q 37 380 37 182 q 143 677 37 581 q 444 774 249 774 q 600 760 528 774 l 600 560 q 486 570 543 570 q 341 526 386 570 q 296 383 296 483 q 338 234 296 278 q 469 190 380 190 q 600 211 524 190 l 600 12 q 514 -8 560 -1 q 420 -15 467 -15 m 235 851 l 385 1122 l 643 1122 l 458 851 l 235 851 z "},"č":{"ha":630,"x_min":37,"x_max":600,"o":"m 420 -15 q 135 84 233 -15 q 37 380 37 182 q 143 677 37 581 q 444 774 249 774 q 600 760 528 774 l 600 560 q 486 570 543 570 q 341 526 386 570 q 296 383 296 483 q 338 234 296 278 q 469 190 380 190 q 600 211 524 190 l 600 12 q 514 -8 560 -1 q 420 -15 467 -15 m 426 1122 l 598 1122 l 450 851 l 243 851 l 94 1122 l 266 1122 l 347 965 l 426 1122 z "},"ç":{"ha":630,"x_min":37,"x_max":600,"o":"m 486 570 q 341 526 386 570 q 296 383 296 483 q 338 234 296 278 q 469 190 380 190 q 600 211 524 190 l 600 12 q 427 -15 522 -13 l 427 -58 q 510 -100 481 -69 q 539 -182 539 -132 q 493 -279 539 -244 q 353 -314 447 -314 q 231 -294 288 -314 l 231 -198 q 287 -213 258 -208 q 340 -218 317 -218 q 391 -207 374 -218 q 407 -172 407 -197 q 339 -123 407 -123 l 308 -123 l 308 -4 q 106 118 175 22 q 37 380 37 214 q 143 677 37 581 q 444 774 249 774 q 600 760 528 774 l 600 560 q 486 570 543 570 z "},"ḉ":{"ha":630,"x_min":37,"x_max":643,"o":"m 643 1122 l 458 851 l 235 851 l 385 1122 l 643 1122 m 37 380 q 143 677 37 581 q 444 774 249 774 q 600 760 528 774 l 600 560 q 486 570 543 570 q 341 526 386 570 q 296 383 296 483 q 338 234 296 278 q 469 190 380 190 q 600 211 524 190 l 600 12 q 427 -15 522 -13 l 427 -58 q 510 -100 481 -69 q 539 -182 539 -132 q 493 -279 539 -244 q 353 -314 447 -314 q 231 -294 288 -314 l 231 -198 q 287 -213 258 -208 q 340 -218 317 -218 q 391 -207 374 -218 q 407 -172 407 -197 q 339 -123 407 -123 l 308 -123 l 308 -4 q 106 118 175 22 q 37 380 37 214 z "},"ĉ":{"ha":630,"x_min":37,"x_max":600,"o":"m 420 -15 q 135 84 233 -15 q 37 380 37 182 q 143 677 37 581 q 444 774 249 774 q 600 760 528 774 l 600 560 q 486 570 543 570 q 341 526 386 570 q 296 383 296 483 q 338 234 296 278 q 469 190 380 190 q 600 211 524 190 l 600 12 q 514 -8 560 -1 q 420 -15 467 -15 m 598 851 l 426 851 l 347 1009 l 267 851 l 95 851 l 243 1122 l 450 1122 l 598 851 z "},"ċ":{"ha":630,"x_min":37,"x_max":600,"o":"m 420 -15 q 135 84 233 -15 q 37 380 37 182 q 143 677 37 581 q 444 774 249 774 q 600 760 528 774 l 600 560 q 486 570 543 570 q 341 526 386 570 q 296 383 296 483 q 338 234 296 278 q 469 190 380 190 q 600 211 524 190 l 600 12 q 514 -8 560 -1 q 420 -15 467 -15 m 347 853 q 232 888 269 853 q 194 985 194 922 q 232 1083 194 1049 q 347 1117 269 1117 q 461 1083 424 1117 q 499 985 499 1049 q 461 888 499 922 q 347 853 424 853 z "},"d":{"ha":814,"x_min":37,"x_max":747,"o":"m 329 -15 q 182 26 248 -15 q 76 152 116 67 q 37 365 37 238 q 139 670 37 565 q 449 774 242 774 q 497 772 467 774 l 497 1122 l 747 1122 l 747 0 l 536 0 l 520 81 l 509 81 q 436 11 481 36 q 329 -15 390 -15 m 410 192 q 458 200 435 192 q 497 223 481 208 l 497 579 q 438 585 462 585 q 355 566 388 585 q 307 503 323 547 q 290 386 290 460 q 305 268 290 311 q 345 209 319 226 q 410 192 371 192 z "},"ð":{"ha":792,"x_min":37,"x_max":756,"o":"m 605 913 q 716 675 676 802 q 756 426 756 549 q 664 90 756 197 q 397 -17 572 -17 q 130 82 224 -17 q 37 377 37 181 q 79 597 37 509 q 197 727 121 685 q 375 769 272 769 q 449 757 413 769 q 383 869 419 819 l 118 815 l 90 948 l 287 988 q 142 1122 220 1060 l 422 1122 q 515 1033 472 1083 l 707 1072 l 735 940 l 605 913 m 397 169 q 456 187 433 169 q 490 250 478 205 q 502 374 502 294 q 490 503 502 457 q 455 568 478 550 q 396 586 432 586 q 337 568 360 586 q 302 504 315 550 q 290 376 290 458 q 302 249 290 294 q 336 187 314 204 q 397 169 359 169 z "},"ď":{"ha":814,"x_min":37,"x_max":975,"o":"m 329 -15 q 182 26 248 -15 q 76 152 116 67 q 37 365 37 238 q 139 670 37 565 q 449 774 242 774 q 497 772 467 774 l 497 1122 l 747 1122 l 747 0 l 536 0 l 520 81 l 509 81 q 436 11 481 36 q 329 -15 390 -15 m 410 192 q 458 200 435 192 q 497 223 481 208 l 497 579 q 438 585 462 585 q 355 566 388 585 q 307 503 323 547 q 290 386 290 460 q 305 268 290 311 q 345 209 319 226 q 410 192 371 192 m 787 819 q 803 967 799 897 q 808 1122 808 1038 l 975 1122 q 961 959 975 1038 q 923 819 947 880 l 787 819 z "},"đ":{"ha":814,"x_min":37,"x_max":813,"o":"m 813 858 l 747 858 l 747 0 l 536 0 l 520 81 l 509 81 q 436 11 481 36 q 329 -15 390 -15 q 182 26 248 -15 q 76 152 116 67 q 37 365 37 238 q 139 670 37 565 q 449 774 242 774 q 497 772 467 774 l 497 858 l 300 858 l 300 1021 l 497 1021 l 497 1122 l 747 1122 l 747 1021 l 813 1021 l 813 858 m 497 579 q 438 585 462 585 q 355 566 388 585 q 307 503 323 547 q 290 386 290 460 q 305 268 290 311 q 345 209 319 226 q 410 192 371 192 q 458 200 435 192 q 497 223 481 208 l 497 579 z "},"ḍ":{"ha":814,"x_min":37,"x_max":747,"o":"m 329 -15 q 182 26 248 -15 q 76 152 116 67 q 37 365 37 238 q 139 670 37 565 q 449 774 242 774 q 497 772 467 774 l 497 1122 l 747 1122 l 747 0 l 536 0 l 520 81 l 509 81 q 436 11 481 36 q 329 -15 390 -15 m 410 192 q 458 200 435 192 q 497 223 481 208 l 497 579 q 438 585 462 585 q 355 566 388 585 q 307 503 323 547 q 290 386 290 460 q 305 268 290 311 q 345 209 319 226 q 410 192 371 192 m 413 -330 q 315 -297 351 -330 q 280 -205 280 -263 q 315 -113 280 -147 q 413 -79 351 -79 q 511 -113 476 -79 q 546 -205 546 -147 q 511 -297 546 -263 q 413 -330 476 -330 z "},"ḏ":{"ha":814,"x_min":37,"x_max":747,"o":"m 329 -15 q 182 26 248 -15 q 76 152 116 67 q 37 365 37 238 q 139 670 37 565 q 449 774 242 774 q 497 772 467 774 l 497 1122 l 747 1122 l 747 0 l 536 0 l 520 81 l 509 81 q 436 11 481 36 q 329 -15 390 -15 m 410 192 q 458 200 435 192 q 497 223 481 208 l 497 579 q 438 585 462 585 q 355 566 388 585 q 307 503 323 547 q 290 386 290 460 q 305 268 290 311 q 345 209 319 226 q 410 192 371 192 m 167 -279 l 167 -126 l 658 -126 l 658 -279 l 167 -279 z "},"ǳ":{"ha":1473,"x_min":37,"x_max":1447,"o":"m 329 -15 q 182 26 248 -15 q 76 152 116 67 q 37 365 37 238 q 139 670 37 565 q 449 774 242 774 q 497 772 467 774 l 497 1122 l 747 1122 l 747 0 l 536 0 l 520 81 l 509 81 q 436 11 481 36 q 329 -15 390 -15 m 410 192 q 458 200 435 192 q 497 223 481 208 l 497 579 q 438 585 462 585 q 355 566 388 585 q 307 503 323 547 q 290 386 290 460 q 305 268 290 311 q 345 209 319 226 q 410 192 371 192 m 1144 195 l 1447 195 l 1447 0 l 851 0 l 851 157 l 1147 567 l 858 567 l 858 762 l 1440 762 l 1440 606 l 1144 195 z "},"ǆ":{"ha":1473,"x_min":37,"x_max":1447,"o":"m 329 -15 q 182 26 248 -15 q 76 152 116 67 q 37 365 37 238 q 139 670 37 565 q 449 774 242 774 q 497 772 467 774 l 497 1122 l 747 1122 l 747 0 l 536 0 l 520 81 l 509 81 q 436 11 481 36 q 329 -15 390 -15 m 410 192 q 458 200 435 192 q 497 223 481 208 l 497 579 q 438 585 462 585 q 355 566 388 585 q 307 503 323 547 q 290 386 290 460 q 305 268 290 311 q 345 209 319 226 q 410 192 371 192 m 1144 195 l 1447 195 l 1447 0 l 851 0 l 851 157 l 1147 567 l 858 567 l 858 762 l 1440 762 l 1440 606 l 1144 195 m 1229 1122 l 1401 1122 l 1253 851 l 1046 851 l 897 1122 l 1069 1122 l 1149 965 l 1229 1122 z "},"e":{"ha":734,"x_min":37,"x_max":705,"o":"m 705 308 l 289 308 q 311 231 292 258 q 370 191 330 203 q 482 178 410 178 q 665 202 565 178 l 665 10 q 554 -9 606 -3 q 448 -15 502 -15 q 213 27 303 -15 q 80 156 123 68 q 37 383 37 243 q 77 595 37 508 q 195 728 117 683 q 384 774 273 774 q 623 672 542 774 q 705 376 705 569 l 705 308 m 382 615 q 330 601 350 615 q 300 551 310 586 q 288 453 289 515 l 473 453 q 462 551 472 515 q 433 601 452 586 q 382 615 413 615 z "},"é":{"ha":734,"x_min":37,"x_max":705,"o":"m 705 308 l 289 308 q 311 231 292 258 q 370 191 330 203 q 482 178 410 178 q 665 202 565 178 l 665 10 q 554 -9 606 -3 q 448 -15 502 -15 q 213 27 303 -15 q 80 156 123 68 q 37 383 37 243 q 77 595 37 508 q 195 728 117 683 q 384 774 273 774 q 623 672 542 774 q 705 376 705 569 l 705 308 m 382 615 q 330 601 350 615 q 300 551 310 586 q 288 453 289 515 l 473 453 q 462 551 472 515 q 433 601 452 586 q 382 615 413 615 m 267 851 l 417 1122 l 675 1122 l 490 851 l 267 851 z "},"ĕ":{"ha":734,"x_min":37,"x_max":705,"o":"m 705 308 l 289 308 q 311 231 292 258 q 370 191 330 203 q 482 178 410 178 q 665 202 565 178 l 665 10 q 554 -9 606 -3 q 448 -15 502 -15 q 213 27 303 -15 q 80 156 123 68 q 37 383 37 243 q 77 595 37 508 q 195 728 117 683 q 384 774 273 774 q 623 672 542 774 q 705 376 705 569 l 705 308 m 382 615 q 330 601 350 615 q 300 551 310 586 q 288 453 289 515 l 473 453 q 462 551 472 515 q 433 601 452 586 q 382 615 413 615 m 378 858 q 200 920 265 858 q 127 1108 134 983 l 278 1108 q 307 1015 281 1044 q 378 985 332 985 q 450 1015 425 985 q 479 1108 475 1044 l 630 1108 q 557 920 623 983 q 378 858 492 858 z "},"ě":{"ha":734,"x_min":37,"x_max":705,"o":"m 705 308 l 289 308 q 311 231 292 258 q 370 191 330 203 q 482 178 410 178 q 665 202 565 178 l 665 10 q 554 -9 606 -3 q 448 -15 502 -15 q 213 27 303 -15 q 80 156 123 68 q 37 383 37 243 q 77 595 37 508 q 195 728 117 683 q 384 774 273 774 q 623 672 542 774 q 705 376 705 569 l 705 308 m 382 615 q 330 601 350 615 q 300 551 310 586 q 288 453 289 515 l 473 453 q 462 551 472 515 q 433 601 452 586 q 382 615 413 615 m 458 1122 l 630 1122 l 482 851 l 275 851 l 126 1122 l 298 1122 l 378 965 l 458 1122 z "},"ḝ":{"ha":734,"x_min":37,"x_max":705,"o":"m 378 858 q 200 920 265 858 q 127 1108 134 983 l 278 1108 q 307 1015 281 1044 q 378 985 332 985 q 450 1015 425 985 q 479 1108 475 1044 l 630 1108 q 557 920 623 983 q 378 858 492 858 m 705 308 l 289 308 q 311 231 292 258 q 370 191 330 203 q 482 178 410 178 q 665 202 565 178 l 665 10 q 554 -9 606 -3 q 448 -15 502 -15 l 446 -15 l 446 -58 q 529 -100 500 -69 q 558 -182 558 -132 q 512 -279 558 -244 q 372 -314 466 -314 q 250 -294 306 -314 l 250 -198 q 306 -213 276 -208 q 359 -218 335 -218 q 409 -207 393 -218 q 426 -172 426 -197 q 358 -123 426 -123 l 326 -123 l 326 -6 q 106 111 176 17 q 37 383 37 206 q 77 595 37 508 q 195 728 117 683 q 384 774 273 774 q 623 672 542 774 q 705 376 705 569 l 705 308 m 382 615 q 330 601 350 615 q 300 551 310 586 q 288 453 289 515 l 473 453 q 462 551 472 515 q 433 601 452 586 q 382 615 413 615 z "},"ê":{"ha":734,"x_min":37,"x_max":705,"o":"m 705 308 l 289 308 q 311 231 292 258 q 370 191 330 203 q 482 178 410 178 q 665 202 565 178 l 665 10 q 554 -9 606 -3 q 448 -15 502 -15 q 213 27 303 -15 q 80 156 123 68 q 37 383 37 243 q 77 595 37 508 q 195 728 117 683 q 384 774 273 774 q 623 672 542 774 q 705 376 705 569 l 705 308 m 382 615 q 330 601 350 615 q 300 551 310 586 q 288 453 289 515 l 473 453 q 462 551 472 515 q 433 601 452 586 q 382 615 413 615 m 630 851 l 458 851 l 378 1009 l 299 851 l 127 851 l 275 1122 l 482 1122 l 630 851 z "},"ế":{"ha":734,"x_min":37,"x_max":865,"o":"m 705 308 l 289 308 q 311 231 292 258 q 370 191 330 203 q 482 178 410 178 q 665 202 565 178 l 665 10 q 554 -9 606 -3 q 448 -15 502 -15 q 213 27 303 -15 q 80 156 123 68 q 37 383 37 243 q 77 595 37 508 q 195 728 117 683 q 384 774 273 774 q 623 672 542 774 q 705 376 705 569 l 705 308 m 382 615 q 330 601 350 615 q 300 551 310 586 q 288 453 289 515 l 473 453 q 462 551 472 515 q 433 601 452 586 q 382 615 413 615 m 657 1297 l 865 1297 l 709 1110 l 538 1110 l 657 1297 m 275 1122 l 482 1122 l 630 851 l 458 851 l 378 1009 l 299 851 l 127 851 l 275 1122 z "},"ệ":{"ha":734,"x_min":37,"x_max":705,"o":"m 705 308 l 289 308 q 311 231 292 258 q 370 191 330 203 q 482 178 410 178 q 665 202 565 178 l 665 10 q 554 -9 606 -3 q 448 -15 502 -15 q 213 27 303 -15 q 80 156 123 68 q 37 383 37 243 q 77 595 37 508 q 195 728 117 683 q 384 774 273 774 q 623 672 542 774 q 705 376 705 569 l 705 308 m 382 615 q 330 601 350 615 q 300 551 310 586 q 288 453 289 515 l 473 453 q 462 551 472 515 q 433 601 452 586 q 382 615 413 615 m 378 -330 q 281 -297 316 -330 q 245 -205 245 -263 q 281 -113 245 -147 q 378 -79 316 -79 q 476 -113 441 -79 q 511 -205 511 -147 q 476 -297 511 -263 q 378 -330 441 -330 m 630 851 l 458 851 l 378 1009 l 299 851 l 127 851 l 275 1122 l 482 1122 l 630 851 z "},"ề":{"ha":734,"x_min":37,"x_max":734,"o":"m 705 308 l 289 308 q 311 231 292 258 q 370 191 330 203 q 482 178 410 178 q 665 202 565 178 l 665 10 q 554 -9 606 -3 q 448 -15 502 -15 q 213 27 303 -15 q 80 156 123 68 q 37 383 37 243 q 77 595 37 508 q 195 728 117 683 q 384 774 273 774 q 623 672 542 774 q 705 376 705 569 l 705 308 m 382 615 q 330 601 350 615 q 300 551 310 586 q 288 453 289 515 l 473 453 q 462 551 472 515 q 433 601 452 586 q 382 615 413 615 m 734 1110 l 563 1110 l 408 1297 l 615 1297 l 734 1110 m 275 1122 l 482 1122 l 630 851 l 458 851 l 378 1009 l 299 851 l 127 851 l 275 1122 z "},"ể":{"ha":734,"x_min":37,"x_max":770,"o":"m 705 308 l 289 308 q 311 231 292 258 q 370 191 330 203 q 482 178 410 178 q 665 202 565 178 l 665 10 q 554 -9 606 -3 q 448 -15 502 -15 q 213 27 303 -15 q 80 156 123 68 q 37 383 37 243 q 77 595 37 508 q 195 728 117 683 q 384 774 273 774 q 623 672 542 774 q 705 376 705 569 l 705 308 m 382 615 q 330 601 350 615 q 300 551 310 586 q 288 453 289 515 l 473 453 q 462 551 472 515 q 433 601 452 586 q 382 615 413 615 m 593 1313 q 728 1293 685 1313 q 770 1227 770 1272 q 756 1191 770 1204 q 712 1163 741 1178 q 672 1138 686 1149 q 656 1110 658 1127 l 536 1110 q 558 1157 538 1140 q 609 1188 577 1173 q 633 1199 626 1194 q 640 1210 640 1204 q 624 1227 640 1222 q 573 1232 608 1232 q 449 1219 508 1232 l 449 1298 q 517 1309 475 1305 q 593 1313 559 1313 m 275 1122 l 482 1122 l 630 851 l 458 851 l 378 1009 l 299 851 l 127 851 l 275 1122 z "},"ễ":{"ha":734,"x_min":37,"x_max":705,"o":"m 705 308 l 289 308 q 311 231 292 258 q 370 191 330 203 q 482 178 410 178 q 665 202 565 178 l 665 10 q 554 -9 606 -3 q 448 -15 502 -15 q 213 27 303 -15 q 80 156 123 68 q 37 383 37 243 q 77 595 37 508 q 195 728 117 683 q 384 774 273 774 q 623 672 542 774 q 705 376 705 569 l 705 308 m 382 615 q 330 601 350 615 q 300 551 310 586 q 288 453 289 515 l 473 453 q 462 551 472 515 q 433 601 452 586 q 382 615 413 615 m 500 1243 q 574 1254 542 1243 q 640 1288 606 1265 l 640 1160 q 578 1126 612 1137 q 497 1115 544 1115 q 435 1122 464 1115 q 366 1141 406 1128 q 305 1158 328 1152 q 256 1163 282 1163 q 183 1152 215 1163 q 117 1118 151 1142 l 117 1246 q 179 1281 145 1269 q 260 1292 213 1292 q 322 1285 293 1292 q 391 1266 351 1278 q 450 1249 426 1254 q 500 1243 474 1243 m 273 1075 l 483 1075 l 638 852 l 462 852 l 378 983 l 294 852 l 119 852 l 273 1075 z "},"ȅ":{"ha":734,"x_min":27,"x_max":705,"o":"m 705 308 l 289 308 q 311 231 292 258 q 370 191 330 203 q 482 178 410 178 q 665 202 565 178 l 665 10 q 554 -9 606 -3 q 448 -15 502 -15 q 213 27 303 -15 q 80 156 123 68 q 37 383 37 243 q 77 595 37 508 q 195 728 117 683 q 384 774 273 774 q 623 672 542 774 q 705 376 705 569 l 705 308 m 382 615 q 330 601 350 615 q 300 551 310 586 q 288 453 289 515 l 473 453 q 462 551 472 515 q 433 601 452 586 q 382 615 413 615 m 138 851 l 27 1122 l 226 1122 l 326 851 l 138 851 m 431 851 l 319 1122 l 519 1122 l 619 851 l 431 851 z "},"ë":{"ha":734,"x_min":37,"x_max":705,"o":"m 705 308 l 289 308 q 311 231 292 258 q 370 191 330 203 q 482 178 410 178 q 665 202 565 178 l 665 10 q 554 -9 606 -3 q 448 -15 502 -15 q 213 27 303 -15 q 80 156 123 68 q 37 383 37 243 q 77 595 37 508 q 195 728 117 683 q 384 774 273 774 q 623 672 542 774 q 705 376 705 569 l 705 308 m 382 615 q 330 601 350 615 q 300 551 310 586 q 288 453 289 515 l 473 453 q 462 551 472 515 q 433 601 452 586 q 382 615 413 615 m 208 858 q 111 892 146 858 q 76 985 76 926 q 111 1078 76 1045 q 208 1112 146 1112 q 306 1078 271 1112 q 342 985 342 1044 q 306 892 342 926 q 208 858 271 858 m 548 858 q 450 892 485 858 q 415 985 415 926 q 450 1078 415 1045 q 548 1112 485 1112 q 646 1078 610 1112 q 681 985 681 1044 q 646 892 681 926 q 548 858 610 858 z "},"ė":{"ha":734,"x_min":37,"x_max":705,"o":"m 705 308 l 289 308 q 311 231 292 258 q 370 191 330 203 q 482 178 410 178 q 665 202 565 178 l 665 10 q 554 -9 606 -3 q 448 -15 502 -15 q 213 27 303 -15 q 80 156 123 68 q 37 383 37 243 q 77 595 37 508 q 195 728 117 683 q 384 774 273 774 q 623 672 542 774 q 705 376 705 569 l 705 308 m 382 615 q 330 601 350 615 q 300 551 310 586 q 288 453 289 515 l 473 453 q 462 551 472 515 q 433 601 452 586 q 382 615 413 615 m 378 853 q 264 888 301 853 q 226 985 226 922 q 264 1083 226 1049 q 378 1117 301 1117 q 493 1083 456 1117 q 531 985 531 1049 q 493 888 531 922 q 378 853 456 853 z "},"ẹ":{"ha":734,"x_min":37,"x_max":705,"o":"m 705 308 l 289 308 q 311 231 292 258 q 370 191 330 203 q 482 178 410 178 q 665 202 565 178 l 665 10 q 554 -9 606 -3 q 448 -15 502 -15 q 213 27 303 -15 q 80 156 123 68 q 37 383 37 243 q 77 595 37 508 q 195 728 117 683 q 384 774 273 774 q 623 672 542 774 q 705 376 705 569 l 705 308 m 382 615 q 330 601 350 615 q 300 551 310 586 q 288 453 289 515 l 473 453 q 462 551 472 515 q 433 601 452 586 q 382 615 413 615 m 378 -330 q 281 -297 316 -330 q 245 -205 245 -263 q 281 -113 245 -147 q 378 -79 316 -79 q 476 -113 441 -79 q 511 -205 511 -147 q 476 -297 511 -263 q 378 -330 441 -330 z "},"è":{"ha":734,"x_min":37,"x_max":705,"o":"m 705 308 l 289 308 q 311 231 292 258 q 370 191 330 203 q 482 178 410 178 q 665 202 565 178 l 665 10 q 554 -9 606 -3 q 448 -15 502 -15 q 213 27 303 -15 q 80 156 123 68 q 37 383 37 243 q 77 595 37 508 q 195 728 117 683 q 384 774 273 774 q 623 672 542 774 q 705 376 705 569 l 705 308 m 382 615 q 330 601 350 615 q 300 551 310 586 q 288 453 289 515 l 473 453 q 462 551 472 515 q 433 601 452 586 q 382 615 413 615 m 267 851 l 81 1122 l 339 1122 l 490 851 l 267 851 z "},"ẻ":{"ha":734,"x_min":37,"x_max":705,"o":"m 705 308 l 289 308 q 311 231 292 258 q 370 191 330 203 q 482 178 410 178 q 665 202 565 178 l 665 10 q 554 -9 606 -3 q 448 -15 502 -15 q 213 27 303 -15 q 80 156 123 68 q 37 383 37 243 q 77 595 37 508 q 195 728 117 683 q 384 774 273 774 q 623 672 542 774 q 705 376 705 569 l 705 308 m 382 615 q 330 601 350 615 q 300 551 310 586 q 288 453 289 515 l 473 453 q 462 551 472 515 q 433 601 452 586 q 382 615 413 615 m 317 851 q 335 916 319 892 q 381 961 352 939 q 406 983 398 974 q 413 1003 413 992 q 399 1027 413 1019 q 354 1034 384 1034 q 242 1017 299 1034 l 242 1113 q 306 1126 269 1121 q 374 1131 342 1131 q 503 1104 461 1131 q 546 1021 546 1077 q 531 965 546 985 q 489 922 517 944 q 454 889 466 903 q 440 851 442 874 l 317 851 z "},"ȇ":{"ha":734,"x_min":37,"x_max":705,"o":"m 705 308 l 289 308 q 311 231 292 258 q 370 191 330 203 q 482 178 410 178 q 665 202 565 178 l 665 10 q 554 -9 606 -3 q 448 -15 502 -15 q 213 27 303 -15 q 80 156 123 68 q 37 383 37 243 q 77 595 37 508 q 195 728 117 683 q 384 774 273 774 q 623 672 542 774 q 705 376 705 569 l 705 308 m 382 615 q 330 601 350 615 q 300 551 310 586 q 288 453 289 515 l 473 453 q 462 551 472 515 q 433 601 452 586 q 382 615 413 615 m 127 871 q 199 1058 134 996 q 378 1120 263 1120 q 557 1058 490 1120 q 630 871 623 995 l 479 871 q 450 966 475 935 q 378 996 424 996 q 305 966 329 996 q 278 871 281 937 l 127 871 z "},"ē":{"ha":734,"x_min":37,"x_max":705,"o":"m 705 308 l 289 308 q 311 231 292 258 q 370 191 330 203 q 482 178 410 178 q 665 202 565 178 l 665 10 q 554 -9 606 -3 q 448 -15 502 -15 q 213 27 303 -15 q 80 156 123 68 q 37 383 37 243 q 77 595 37 508 q 195 728 117 683 q 384 774 273 774 q 623 672 542 774 q 705 376 705 569 l 705 308 m 382 615 q 330 601 350 615 q 300 551 310 586 q 288 453 289 515 l 473 453 q 462 551 472 515 q 433 601 452 586 q 382 615 413 615 m 130 908 l 130 1063 l 626 1063 l 626 908 l 130 908 z "},"ḗ":{"ha":734,"x_min":37,"x_max":705,"o":"m 705 308 l 289 308 q 311 231 292 258 q 370 191 330 203 q 482 178 410 178 q 665 202 565 178 l 665 10 q 554 -9 606 -3 q 448 -15 502 -15 q 213 27 303 -15 q 80 156 123 68 q 37 383 37 243 q 77 595 37 508 q 195 728 117 683 q 384 774 273 774 q 623 672 542 774 q 705 376 705 569 l 705 308 m 382 615 q 330 601 350 615 q 300 551 310 586 q 288 453 289 515 l 473 453 q 462 551 472 515 q 433 601 452 586 q 382 615 413 615 m 130 908 l 130 1063 l 626 1063 l 626 908 l 130 908 m 266 1160 l 385 1376 l 645 1376 l 490 1160 l 266 1160 z "},"ḕ":{"ha":734,"x_min":37,"x_max":705,"o":"m 705 308 l 289 308 q 311 231 292 258 q 370 191 330 203 q 482 178 410 178 q 665 202 565 178 l 665 10 q 554 -9 606 -3 q 448 -15 502 -15 q 213 27 303 -15 q 80 156 123 68 q 37 383 37 243 q 77 595 37 508 q 195 728 117 683 q 384 774 273 774 q 623 672 542 774 q 705 376 705 569 l 705 308 m 382 615 q 330 601 350 615 q 300 551 310 586 q 288 453 289 515 l 473 453 q 462 551 472 515 q 433 601 452 586 q 382 615 413 615 m 130 908 l 130 1063 l 626 1063 l 626 908 l 130 908 m 266 1160 l 110 1376 l 372 1376 l 490 1160 l 266 1160 z "},"ę":{"ha":734,"x_min":37,"x_max":705,"o":"m 705 308 l 289 308 q 311 231 292 258 q 370 191 330 203 q 482 178 410 178 q 665 202 565 178 l 665 10 q 536 -65 572 -26 q 500 -149 500 -104 q 520 -197 500 -180 q 580 -215 541 -215 q 665 -195 619 -215 l 665 -292 q 609 -308 638 -303 q 546 -314 581 -314 q 407 -274 455 -314 q 359 -164 359 -234 q 378 -82 359 -119 q 440 -15 397 -45 q 210 28 299 -13 q 79 157 121 70 q 37 383 37 244 q 77 595 37 508 q 195 728 117 683 q 384 774 273 774 q 623 672 542 774 q 705 376 705 569 l 705 308 m 382 609 q 330 594 350 609 q 300 544 310 580 q 288 447 289 509 l 473 447 q 462 544 472 509 q 433 594 452 580 q 382 609 413 609 z "},"ẽ":{"ha":734,"x_min":37,"x_max":705,"o":"m 705 308 l 289 308 q 311 231 292 258 q 370 191 330 203 q 482 178 410 178 q 665 202 565 178 l 665 10 q 554 -9 606 -3 q 448 -15 502 -15 q 213 27 303 -15 q 80 156 123 68 q 37 383 37 243 q 77 595 37 508 q 195 728 117 683 q 384 774 273 774 q 623 672 542 774 q 705 376 705 569 l 705 308 m 382 615 q 330 601 350 615 q 300 551 310 586 q 288 453 289 515 l 473 453 q 462 551 472 515 q 433 601 452 586 q 382 615 413 615 m 488 878 q 432 887 458 878 q 366 913 405 896 q 311 936 334 928 q 265 944 288 944 q 194 929 226 944 q 130 883 163 915 l 130 1042 q 191 1084 158 1071 q 268 1097 224 1097 q 326 1088 299 1097 q 391 1062 353 1079 q 447 1039 424 1047 q 492 1032 469 1032 q 562 1047 531 1032 q 626 1093 594 1061 l 626 934 q 566 892 599 905 q 488 878 532 878 z "},"ə":{"ha":734,"x_min":29,"x_max":697,"o":"m 286 776 q 521 735 431 776 q 654 606 611 694 q 697 378 697 519 q 657 167 697 254 q 539 33 617 79 q 350 -12 461 -12 q 111 90 192 -12 q 29 386 29 192 l 29 454 l 445 454 q 423 531 442 503 q 364 571 404 559 q 252 583 324 583 q 69 560 169 583 l 69 751 q 180 770 128 765 q 286 776 232 776 m 352 147 q 404 161 384 147 q 434 211 424 176 q 446 309 445 247 l 261 309 q 272 211 262 247 q 301 161 282 176 q 352 147 321 147 z "},"f":{"ha":538,"x_min":12,"x_max":577,"o":"m 510 937 q 402 908 435 937 q 369 816 369 878 l 369 762 l 547 762 l 547 567 l 369 567 l 369 0 l 122 0 l 122 567 l 12 567 l 12 762 l 122 762 l 122 801 q 210 1049 122 961 q 470 1136 299 1136 q 577 1128 527 1136 l 577 932 q 510 937 542 937 z "},"g":{"ha":814,"x_min":37,"x_max":747,"o":"m 331 -319 q 209 -313 272 -319 q 92 -292 147 -306 l 92 -97 q 309 -126 206 -126 q 452 -87 407 -126 q 497 40 497 -49 l 497 83 l 485 83 q 413 17 458 40 q 311 -6 369 -6 q 175 35 238 -6 q 75 159 113 76 q 37 367 37 243 q 141 670 37 566 q 458 774 244 774 q 609 763 532 774 q 747 730 685 751 l 747 85 q 701 -146 747 -57 q 563 -277 655 -235 q 331 -319 472 -319 m 415 199 q 459 205 438 199 q 497 224 481 212 l 497 579 q 436 585 465 585 q 327 540 363 585 q 290 388 290 495 q 305 274 290 315 q 346 215 319 232 q 415 199 373 199 z "},"ǵ":{"ha":814,"x_min":37,"x_max":747,"o":"m 331 -319 q 209 -313 272 -319 q 92 -292 147 -306 l 92 -97 q 309 -126 206 -126 q 452 -87 407 -126 q 497 40 497 -49 l 497 83 l 485 83 q 413 17 458 40 q 311 -6 369 -6 q 175 35 238 -6 q 75 159 113 76 q 37 367 37 243 q 141 670 37 566 q 458 774 244 774 q 609 763 532 774 q 747 730 685 751 l 747 85 q 701 -146 747 -57 q 563 -277 655 -235 q 331 -319 472 -319 m 415 199 q 459 205 438 199 q 497 224 481 212 l 497 579 q 436 585 465 585 q 327 540 363 585 q 290 388 290 495 q 305 274 290 315 q 346 215 319 232 q 415 199 373 199 m 311 851 l 462 1122 l 719 1122 l 534 851 l 311 851 z "},"ğ":{"ha":814,"x_min":37,"x_max":747,"o":"m 331 -319 q 209 -313 272 -319 q 92 -292 147 -306 l 92 -97 q 309 -126 206 -126 q 452 -87 407 -126 q 497 40 497 -49 l 497 83 l 485 83 q 413 17 458 40 q 311 -6 369 -6 q 175 35 238 -6 q 75 159 113 76 q 37 367 37 243 q 141 670 37 566 q 458 774 244 774 q 609 763 532 774 q 747 730 685 751 l 747 85 q 701 -146 747 -57 q 563 -277 655 -235 q 331 -319 472 -319 m 415 199 q 459 205 438 199 q 497 224 481 212 l 497 579 q 436 585 465 585 q 327 540 363 585 q 290 388 290 495 q 305 274 290 315 q 346 215 319 232 q 415 199 373 199 m 423 858 q 244 920 310 858 q 172 1108 178 983 l 322 1108 q 351 1015 326 1044 q 423 985 376 985 q 494 1015 469 985 q 524 1108 519 1044 l 674 1108 q 602 920 667 983 q 423 858 536 858 z "},"ǧ":{"ha":814,"x_min":37,"x_max":747,"o":"m 331 -319 q 209 -313 272 -319 q 92 -292 147 -306 l 92 -97 q 309 -126 206 -126 q 452 -87 407 -126 q 497 40 497 -49 l 497 83 l 485 83 q 413 17 458 40 q 311 -6 369 -6 q 175 35 238 -6 q 75 159 113 76 q 37 367 37 243 q 141 670 37 566 q 458 774 244 774 q 609 763 532 774 q 747 730 685 751 l 747 85 q 701 -146 747 -57 q 563 -277 655 -235 q 331 -319 472 -319 m 415 199 q 459 205 438 199 q 497 224 481 212 l 497 579 q 436 585 465 585 q 327 540 363 585 q 290 388 290 495 q 305 274 290 315 q 346 215 319 232 q 415 199 373 199 m 503 1122 l 674 1122 l 526 851 l 319 851 l 171 1122 l 342 1122 l 423 965 l 503 1122 z "},"ĝ":{"ha":814,"x_min":37,"x_max":747,"o":"m 331 -319 q 209 -313 272 -319 q 92 -292 147 -306 l 92 -97 q 309 -126 206 -126 q 452 -87 407 -126 q 497 40 497 -49 l 497 83 l 485 83 q 413 17 458 40 q 311 -6 369 -6 q 175 35 238 -6 q 75 159 113 76 q 37 367 37 243 q 141 670 37 566 q 458 774 244 774 q 609 763 532 774 q 747 730 685 751 l 747 85 q 701 -146 747 -57 q 563 -277 655 -235 q 331 -319 472 -319 m 415 199 q 459 205 438 199 q 497 224 481 212 l 497 579 q 436 585 465 585 q 327 540 363 585 q 290 388 290 495 q 305 274 290 315 q 346 215 319 232 q 415 199 373 199 m 674 851 l 503 851 l 423 1009 l 343 851 l 172 851 l 319 1122 l 526 1122 l 674 851 z "},"ģ":{"ha":814,"x_min":37,"x_max":747,"o":"m 331 -319 q 209 -313 272 -319 q 92 -292 147 -306 l 92 -97 q 309 -126 206 -126 q 452 -87 407 -126 q 497 40 497 -49 l 497 83 l 485 83 q 413 17 458 40 q 311 -6 369 -6 q 175 35 238 -6 q 75 159 113 76 q 37 367 37 243 q 141 670 37 566 q 458 774 244 774 q 609 763 532 774 q 747 730 685 751 l 747 85 q 701 -146 747 -57 q 563 -277 655 -235 q 331 -319 472 -319 m 415 199 q 459 205 438 199 q 497 224 481 212 l 497 579 q 436 585 465 585 q 327 540 363 585 q 290 388 290 495 q 305 274 290 315 q 346 215 319 232 q 415 199 373 199 m 460 1026 q 560 941 560 1015 q 526 877 560 899 q 423 855 493 855 q 286 969 286 855 q 302 1052 286 1008 q 344 1128 319 1097 l 501 1128 q 460 1026 468 1067 z "},"ġ":{"ha":814,"x_min":37,"x_max":747,"o":"m 331 -319 q 209 -313 272 -319 q 92 -292 147 -306 l 92 -97 q 309 -126 206 -126 q 452 -87 407 -126 q 497 40 497 -49 l 497 83 l 485 83 q 413 17 458 40 q 311 -6 369 -6 q 175 35 238 -6 q 75 159 113 76 q 37 367 37 243 q 141 670 37 566 q 458 774 244 774 q 609 763 532 774 q 747 730 685 751 l 747 85 q 701 -146 747 -57 q 563 -277 655 -235 q 331 -319 472 -319 m 415 199 q 459 205 438 199 q 497 224 481 212 l 497 579 q 436 585 465 585 q 327 540 363 585 q 290 388 290 495 q 305 274 290 315 q 346 215 319 232 q 415 199 373 199 m 423 853 q 308 888 346 853 q 270 985 270 922 q 308 1083 270 1049 q 423 1117 346 1117 q 538 1083 500 1117 q 575 985 575 1049 q 538 888 575 922 q 423 853 500 853 z "},"ḡ":{"ha":814,"x_min":37,"x_max":747,"o":"m 331 -319 q 209 -313 272 -319 q 92 -292 147 -306 l 92 -97 q 309 -126 206 -126 q 452 -87 407 -126 q 497 40 497 -49 l 497 83 l 485 83 q 413 17 458 40 q 311 -6 369 -6 q 175 35 238 -6 q 75 159 113 76 q 37 367 37 243 q 141 670 37 566 q 458 774 244 774 q 609 763 532 774 q 747 730 685 751 l 747 85 q 701 -146 747 -57 q 563 -277 655 -235 q 331 -319 472 -319 m 415 199 q 459 205 438 199 q 497 224 481 212 l 497 579 q 436 585 465 585 q 327 540 363 585 q 290 388 290 495 q 305 274 290 315 q 346 215 319 232 q 415 199 373 199 m 174 908 l 174 1063 l 671 1063 l 671 908 l 174 908 z "},"h":{"ha":808,"x_min":67,"x_max":746,"o":"m 67 1122 l 317 1122 l 317 685 l 329 685 q 518 774 395 774 q 634 744 583 774 q 716 649 685 715 q 746 481 746 584 l 746 0 l 496 0 l 496 461 q 476 534 496 513 q 417 556 456 556 q 362 544 390 556 q 317 513 335 533 l 317 0 l 67 0 l 67 1122 z "},"ħ":{"ha":808,"x_min":1,"x_max":746,"o":"m 518 774 q 634 744 583 774 q 716 649 685 715 q 746 481 746 584 l 746 0 l 496 0 l 496 461 q 476 534 496 513 q 417 556 456 556 q 362 544 390 556 q 317 513 335 533 l 317 0 l 67 0 l 67 857 l 1 857 l 1 1020 l 67 1020 l 67 1122 l 317 1122 l 317 1020 l 515 1020 l 515 857 l 317 857 l 317 685 l 329 685 q 518 774 395 774 z "},"ḫ":{"ha":808,"x_min":67,"x_max":746,"o":"m 67 1122 l 317 1122 l 317 685 l 329 685 q 518 774 395 774 q 634 744 583 774 q 716 649 685 715 q 746 481 746 584 l 746 0 l 496 0 l 496 461 q 476 534 496 513 q 417 556 456 556 q 362 544 390 556 q 317 513 335 533 l 317 0 l 67 0 l 67 1122 m 407 -326 q 225 -267 290 -326 q 156 -99 159 -207 l 306 -99 q 332 -177 308 -151 q 407 -203 357 -203 q 480 -177 456 -203 q 508 -99 505 -151 l 658 -99 q 589 -267 654 -207 q 407 -326 523 -326 z "},"ĥ":{"ha":808,"x_min":67,"x_max":746,"o":"m 67 1122 l 317 1122 l 317 685 l 329 685 q 518 774 395 774 q 634 744 583 774 q 716 649 685 715 q 746 481 746 584 l 746 0 l 496 0 l 496 461 q 476 534 496 513 q 417 556 456 556 q 362 544 390 556 q 317 513 335 533 l 317 0 l 67 0 l 67 1122 m 668 1171 l 492 1171 l 407 1297 l 322 1171 l 145 1171 l 301 1386 l 512 1386 l 668 1171 z "},"ḥ":{"ha":808,"x_min":67,"x_max":746,"o":"m 67 1122 l 317 1122 l 317 685 l 329 685 q 518 774 395 774 q 634 744 583 774 q 716 649 685 715 q 746 481 746 584 l 746 0 l 496 0 l 496 461 q 476 534 496 513 q 417 556 456 556 q 362 544 390 556 q 317 513 335 533 l 317 0 l 67 0 l 67 1122 m 407 -330 q 309 -297 344 -330 q 274 -205 274 -263 q 309 -113 274 -147 q 407 -79 344 -79 q 505 -113 469 -79 q 540 -205 540 -147 q 505 -297 540 -263 q 407 -330 469 -330 z "},"i":{"ha":385,"x_min":40,"x_max":345,"o":"m 67 0 l 67 762 l 318 762 l 318 0 l 67 0 m 193 853 q 78 888 116 853 q 40 985 40 922 q 78 1083 40 1049 q 193 1117 116 1117 q 308 1083 270 1117 q 345 985 345 1049 q 308 888 345 922 q 193 853 270 853 z "},"ı":{"ha":385,"x_min":67,"x_max":318,"o":"m 67 0 l 67 762 l 318 762 l 318 0 l 67 0 z "},"í":{"ha":385,"x_min":67,"x_max":489,"o":"m 67 0 l 67 762 l 318 762 l 318 0 l 67 0 m 81 851 l 231 1122 l 489 1122 l 303 851 l 81 851 z "},"ĭ":{"ha":385,"x_min":-59,"x_max":444,"o":"m 67 0 l 67 762 l 318 762 l 318 0 l 67 0 m 192 858 q 14 920 79 858 q -59 1108 -52 983 l 92 1108 q 120 1015 95 1044 q 192 985 146 985 q 264 1015 239 985 q 293 1108 289 1044 l 444 1108 q 371 920 437 983 q 192 858 306 858 z "},"î":{"ha":385,"x_min":-59,"x_max":444,"o":"m 67 0 l 67 762 l 318 762 l 318 0 l 67 0 m 444 851 l 272 851 l 192 1009 l 113 851 l -59 851 l 89 1122 l 296 1122 l 444 851 z "},"ȉ":{"ha":385,"x_min":-159,"x_max":433,"o":"m 67 0 l 67 762 l 318 762 l 318 0 l 67 0 m -49 851 l -159 1122 l 40 1122 l 140 851 l -49 851 m 244 851 l 133 1122 l 333 1122 l 433 851 l 244 851 z "},"ï":{"ha":385,"x_min":-110,"x_max":495,"o":"m 67 0 l 67 762 l 318 762 l 318 0 l 67 0 m 22 858 q -75 892 -40 858 q -110 985 -110 926 q -75 1078 -110 1045 q 22 1112 -40 1112 q 120 1078 85 1112 q 156 985 156 1044 q 120 892 156 926 q 22 858 85 858 m 362 858 q 264 892 299 858 q 229 985 229 926 q 264 1078 229 1045 q 362 1112 299 1112 q 460 1078 424 1112 q 495 985 495 1044 q 460 892 495 926 q 362 858 424 858 z "},"ḯ":{"ha":385,"x_min":-110,"x_max":499,"o":"m 67 0 l 67 762 l 318 762 l 318 0 l 67 0 m 22 858 q -75 892 -40 858 q -110 985 -110 926 q -75 1078 -110 1045 q 22 1112 -40 1112 q 120 1078 85 1112 q 156 985 156 1044 q 120 892 156 926 q 22 858 85 858 m 362 858 q 264 892 299 858 q 229 985 229 926 q 264 1078 229 1045 q 362 1112 299 1112 q 460 1078 424 1112 q 495 985 495 1044 q 460 892 495 926 q 362 858 424 858 m 120 1262 l 239 1477 l 499 1477 l 344 1262 l 120 1262 z "},"ị":{"ha":385,"x_min":40,"x_max":345,"o":"m 67 0 l 67 762 l 318 762 l 318 0 l 67 0 m 193 853 q 78 888 116 853 q 40 985 40 922 q 78 1083 40 1049 q 193 1117 116 1117 q 308 1083 270 1117 q 345 985 345 1049 q 308 888 345 922 q 193 853 270 853 m 192 -330 q 94 -297 130 -330 q 59 -205 59 -263 q 94 -113 59 -147 q 192 -79 130 -79 q 290 -113 255 -79 q 325 -205 325 -147 q 290 -297 325 -263 q 192 -330 255 -330 z "},"ì":{"ha":385,"x_min":-105,"x_max":318,"o":"m 67 0 l 67 762 l 318 762 l 318 0 l 67 0 m 81 851 l -105 1122 l 153 1122 l 303 851 l 81 851 z "},"ỉ":{"ha":385,"x_min":56,"x_max":360,"o":"m 67 0 l 67 762 l 318 762 l 318 0 l 67 0 m 131 851 q 149 916 133 892 q 195 961 166 939 q 219 983 212 974 q 227 1003 227 992 q 213 1027 227 1019 q 168 1034 198 1034 q 56 1017 113 1034 l 56 1113 q 119 1126 83 1121 q 188 1131 156 1131 q 317 1104 275 1131 q 360 1021 360 1077 q 345 965 360 985 q 303 922 331 944 q 268 889 280 903 q 253 851 256 874 l 131 851 z "},"ȋ":{"ha":385,"x_min":-59,"x_max":444,"o":"m 67 0 l 67 762 l 318 762 l 318 0 l 67 0 m -59 871 q 13 1058 -52 996 q 192 1120 77 1120 q 370 1058 304 1120 q 444 871 437 995 l 293 871 q 264 966 289 935 q 192 996 238 996 q 119 966 143 996 q 92 871 95 937 l -59 871 z "},"ī":{"ha":385,"x_min":-56,"x_max":440,"o":"m 67 0 l 67 762 l 318 762 l 318 0 l 67 0 m -56 908 l -56 1063 l 440 1063 l 440 908 l -56 908 z "},"į":{"ha":385,"x_min":24,"x_max":344,"o":"m 192 853 q 77 888 115 853 q 40 985 40 922 q 77 1083 40 1049 q 192 1117 115 1117 q 307 1083 269 1117 q 344 985 344 1049 q 307 888 344 922 q 192 853 269 853 m 165 -149 q 186 -197 165 -180 q 245 -215 206 -215 q 330 -195 284 -215 l 330 -292 q 275 -308 303 -303 q 211 -314 247 -314 q 72 -274 120 -314 q 24 -164 24 -234 q 48 -74 24 -114 q 128 0 72 -34 l 67 0 l 67 762 l 318 762 l 318 0 q 199 -70 232 -34 q 165 -149 165 -106 z "},"ĩ":{"ha":385,"x_min":-56,"x_max":440,"o":"m 67 0 l 67 762 l 318 762 l 318 0 l 67 0 m 302 878 q 245 887 272 878 q 180 913 219 896 q 125 936 148 928 q 78 944 102 944 q 8 929 40 944 q -56 883 -24 915 l -56 1042 q 5 1084 -28 1071 q 82 1097 38 1097 q 140 1088 113 1097 q 205 1062 167 1079 q 260 1039 238 1047 q 306 1032 283 1032 q 376 1047 344 1032 q 440 1093 408 1061 l 440 934 q 380 892 413 905 q 302 878 346 878 z "},"j":{"ha":385,"x_min":-34,"x_max":344,"o":"m -34 -221 q 45 -65 23 -142 q 67 124 67 13 l 67 762 l 318 762 l 318 134 q 275 -110 318 -1 q 129 -329 232 -219 l -34 -221 m 192 854 q 77 888 115 854 q 39 986 39 922 q 77 1084 39 1049 q 192 1118 115 1118 q 306 1084 269 1118 q 344 986 344 1050 q 306 888 344 922 q 192 854 269 854 z "},"ȷ":{"ha":385,"x_min":-34,"x_max":318,"o":"m -34 -221 q 45 -65 23 -142 q 67 124 67 13 l 67 762 l 318 762 l 318 134 q 275 -110 318 -1 q 129 -329 232 -219 l -34 -221 z "},"ĵ":{"ha":385,"x_min":-60,"x_max":443,"o":"m -34 -221 q 45 -65 23 -142 q 67 124 67 13 l 67 762 l 318 762 l 318 134 q 275 -110 318 -1 q 129 -329 232 -219 l -34 -221 m 443 852 l 272 852 l 192 1010 l 112 852 l -60 852 l 88 1123 l 295 1123 l 443 852 z "},"k":{"ha":793,"x_min":67,"x_max":820,"o":"m 551 0 l 372 293 l 317 293 l 317 0 l 67 0 l 67 1122 l 317 1122 l 317 490 l 371 490 l 532 762 l 795 762 l 581 397 l 820 0 l 551 0 z "},"ķ":{"ha":793,"x_min":67,"x_max":820,"o":"m 551 0 l 372 293 l 317 293 l 317 0 l 67 0 l 67 1122 l 317 1122 l 317 490 l 371 490 l 532 762 l 795 762 l 581 397 l 820 0 l 551 0 m 422 -79 q 559 -193 559 -79 q 542 -276 559 -232 q 501 -353 526 -321 l 344 -353 q 385 -250 377 -291 q 310 -223 334 -244 q 285 -165 285 -201 q 319 -101 285 -124 q 422 -79 352 -79 z "},"ĸ":{"ha":793,"x_min":67,"x_max":820,"o":"m 551 0 l 372 293 l 317 293 l 317 0 l 67 0 l 67 762 l 317 762 l 317 490 l 371 490 l 532 762 l 795 762 l 581 397 l 820 0 l 551 0 z "},"l":{"ha":385,"x_min":67,"x_max":317,"o":"m 67 0 l 67 1122 l 317 1122 l 317 0 l 67 0 z "},"ĺ":{"ha":385,"x_min":67,"x_max":459,"o":"m 67 0 l 67 1122 l 317 1122 l 317 0 l 67 0 m 80 1171 l 199 1386 l 459 1386 l 303 1171 l 80 1171 z "},"ľ":{"ha":385,"x_min":67,"x_max":546,"o":"m 67 0 l 67 1122 l 317 1122 l 317 0 l 67 0 m 358 819 q 374 967 369 897 q 379 1122 379 1038 l 546 1122 q 532 959 546 1038 q 494 819 518 880 l 358 819 z "},"ļ":{"ha":385,"x_min":56,"x_max":329,"o":"m 67 0 l 67 1122 l 317 1122 l 317 0 l 67 0 m 192 -79 q 329 -193 329 -79 q 313 -276 329 -232 q 271 -353 296 -321 l 115 -353 q 156 -250 147 -291 q 80 -223 104 -244 q 56 -165 56 -201 q 89 -101 56 -124 q 192 -79 122 -79 z "},"ŀ":{"ha":644,"x_min":67,"x_max":665,"o":"m 67 0 l 67 1122 l 317 1122 l 317 0 l 67 0 m 513 419 q 398 453 436 419 q 360 551 360 488 q 398 649 360 615 q 513 683 436 683 q 628 649 590 683 q 665 551 665 615 q 628 453 665 488 q 513 419 590 419 z "},"ḷ":{"ha":385,"x_min":59,"x_max":325,"o":"m 67 0 l 67 1122 l 317 1122 l 317 0 l 67 0 m 192 -330 q 94 -297 130 -330 q 59 -205 59 -263 q 94 -113 59 -147 q 192 -79 130 -79 q 290 -113 255 -79 q 325 -205 325 -147 q 290 -297 325 -263 q 192 -330 255 -330 z "},"ǉ":{"ha":770,"x_min":67,"x_max":728,"o":"m 67 0 l 67 1122 l 317 1122 l 317 0 l 67 0 m 351 -221 q 430 -65 408 -142 q 452 124 452 13 l 452 762 l 703 762 l 703 134 q 660 -110 703 -1 q 514 -329 617 -219 l 351 -221 m 576 854 q 461 888 499 854 q 424 986 424 922 q 461 1084 424 1049 q 576 1118 499 1118 q 691 1084 653 1118 q 728 986 728 1050 q 691 888 728 922 q 576 854 653 854 z "},"ḻ":{"ha":385,"x_min":-53,"x_max":438,"o":"m 67 0 l 67 1122 l 317 1122 l 317 0 l 67 0 m -53 -279 l -53 -126 l 438 -126 l 438 -279 l -53 -279 z "},"ł":{"ha":385,"x_min":-55,"x_max":440,"o":"m 440 533 l 317 471 l 317 0 l 67 0 l 67 344 l 17 318 l -55 459 l 67 521 l 67 1122 l 317 1122 l 317 648 l 368 674 l 440 533 z "},"m":{"ha":1196,"x_min":67,"x_max":1133,"o":"m 892 774 q 1068 703 1003 774 q 1133 479 1133 633 l 1133 0 l 883 0 l 883 465 q 863 535 883 515 q 808 556 843 556 q 764 548 786 556 q 724 523 741 539 q 724 492 724 513 l 724 0 l 479 0 l 479 465 q 461 535 479 515 q 408 556 443 556 q 358 545 383 556 q 317 513 333 533 l 317 0 l 67 0 l 67 762 l 274 762 l 292 685 l 302 685 q 501 774 378 774 q 607 751 560 774 q 683 679 653 728 q 778 750 724 726 q 892 774 833 774 z "},"ṃ":{"ha":1196,"x_min":67,"x_max":1133,"o":"m 892 774 q 1068 703 1003 774 q 1133 479 1133 633 l 1133 0 l 883 0 l 883 465 q 863 535 883 515 q 808 556 843 556 q 764 548 786 556 q 724 523 741 539 q 724 492 724 513 l 724 0 l 479 0 l 479 465 q 461 535 479 515 q 408 556 443 556 q 358 545 383 556 q 317 513 333 533 l 317 0 l 67 0 l 67 762 l 274 762 l 292 685 l 302 685 q 501 774 378 774 q 607 751 560 774 q 683 679 653 728 q 778 750 724 726 q 892 774 833 774 m 602 -330 q 504 -297 540 -330 q 469 -205 469 -263 q 504 -113 469 -147 q 602 -79 540 -79 q 700 -113 665 -79 q 735 -205 735 -147 q 700 -297 735 -263 q 602 -330 665 -330 z "},"n":{"ha":808,"x_min":67,"x_max":746,"o":"m 67 762 l 274 762 l 292 685 l 302 685 q 391 752 340 729 q 505 774 442 774 q 681 704 615 774 q 746 481 746 633 l 746 0 l 496 0 l 496 464 q 476 535 496 514 q 417 556 456 556 q 362 545 389 556 q 317 513 335 533 l 317 0 l 67 0 l 67 762 z "},"ń":{"ha":808,"x_min":67,"x_max":746,"o":"m 67 762 l 274 762 l 292 685 l 302 685 q 391 752 340 729 q 505 774 442 774 q 681 704 615 774 q 746 481 746 633 l 746 0 l 496 0 l 496 464 q 476 535 496 514 q 417 556 456 556 q 362 545 389 556 q 317 513 335 533 l 317 0 l 67 0 l 67 762 m 295 851 l 446 1122 l 703 1122 l 518 851 l 295 851 z "},"ŉ":{"ha":808,"x_min":8,"x_max":746,"o":"m 67 762 l 274 762 l 292 685 l 302 685 q 391 752 340 729 q 505 774 442 774 q 681 704 615 774 q 746 481 746 633 l 746 0 l 496 0 l 496 464 q 476 535 496 514 q 417 556 456 556 q 362 545 389 556 q 317 513 335 533 l 317 0 l 67 0 l 67 762 m 144 1128 q 281 1015 281 1128 q 264 931 281 976 q 223 855 248 887 l 66 855 q 108 958 99 916 q 32 985 56 963 q 8 1042 8 1007 q 41 1106 8 1084 q 144 1128 74 1128 z "},"ň":{"ha":808,"x_min":67,"x_max":746,"o":"m 67 762 l 274 762 l 292 685 l 302 685 q 391 752 340 729 q 505 774 442 774 q 681 704 615 774 q 746 481 746 633 l 746 0 l 496 0 l 496 464 q 476 535 496 514 q 417 556 456 556 q 362 545 389 556 q 317 513 335 533 l 317 0 l 67 0 l 67 762 m 487 1122 l 658 1122 l 510 851 l 303 851 l 155 1122 l 326 1122 l 407 965 l 487 1122 z "},"ņ":{"ha":808,"x_min":67,"x_max":746,"o":"m 67 762 l 274 762 l 292 685 l 302 685 q 391 752 340 729 q 505 774 442 774 q 681 704 615 774 q 746 481 746 633 l 746 0 l 496 0 l 496 464 q 476 535 496 514 q 417 556 456 556 q 362 545 389 556 q 317 513 335 533 l 317 0 l 67 0 l 67 762 m 406 -79 q 544 -193 544 -79 q 527 -276 544 -232 q 485 -353 510 -321 l 329 -353 q 370 -250 362 -291 q 294 -223 319 -244 q 270 -165 270 -201 q 303 -101 270 -124 q 406 -79 337 -79 z "},"ṅ":{"ha":808,"x_min":67,"x_max":746,"o":"m 67 762 l 274 762 l 292 685 l 302 685 q 391 752 340 729 q 505 774 442 774 q 681 704 615 774 q 746 481 746 633 l 746 0 l 496 0 l 496 464 q 476 535 496 514 q 417 556 456 556 q 362 545 389 556 q 317 513 335 533 l 317 0 l 67 0 l 67 762 m 407 853 q 292 888 330 853 q 254 985 254 922 q 292 1083 254 1049 q 407 1117 330 1117 q 522 1083 484 1117 q 559 985 559 1049 q 522 888 559 922 q 407 853 484 853 z "},"ṇ":{"ha":808,"x_min":67,"x_max":746,"o":"m 67 762 l 274 762 l 292 685 l 302 685 q 391 752 340 729 q 505 774 442 774 q 681 704 615 774 q 746 481 746 633 l 746 0 l 496 0 l 496 464 q 476 535 496 514 q 417 556 456 556 q 362 545 389 556 q 317 513 335 533 l 317 0 l 67 0 l 67 762 m 407 -330 q 309 -297 344 -330 q 274 -205 274 -263 q 309 -113 274 -147 q 407 -79 344 -79 q 505 -113 469 -79 q 540 -205 540 -147 q 505 -297 540 -263 q 407 -330 469 -330 z "},"ŋ":{"ha":808,"x_min":67,"x_max":746,"o":"m 394 -221 q 474 -65 451 -142 q 496 124 496 13 l 496 466 q 476 539 496 517 q 417 560 456 560 q 362 549 390 560 q 317 517 335 538 l 317 0 l 67 0 l 67 762 l 274 762 l 292 685 l 302 685 q 505 774 381 774 q 681 704 615 774 q 746 481 746 633 l 746 131 q 702 -112 744 -3 q 558 -329 660 -220 l 394 -221 z "},"ǌ":{"ha":1194,"x_min":67,"x_max":1152,"o":"m 67 762 l 274 762 l 292 685 l 302 685 q 391 752 340 729 q 505 774 442 774 q 681 704 615 774 q 746 481 746 633 l 746 0 l 496 0 l 496 464 q 476 535 496 514 q 417 556 456 556 q 362 545 389 556 q 317 513 335 533 l 317 0 l 67 0 l 67 762 m 774 -221 q 853 -65 831 -142 q 876 124 876 13 l 876 762 l 1126 762 l 1126 134 q 1083 -110 1126 -1 q 938 -329 1040 -219 l 774 -221 m 1000 854 q 885 888 923 854 q 847 986 847 922 q 885 1084 847 1049 q 1000 1118 923 1118 q 1115 1084 1077 1118 q 1152 986 1152 1050 q 1115 888 1152 922 q 1000 854 1077 854 z "},"ṉ":{"ha":808,"x_min":67,"x_max":746,"o":"m 67 762 l 274 762 l 292 685 l 302 685 q 391 752 340 729 q 505 774 442 774 q 681 704 615 774 q 746 481 746 633 l 746 0 l 496 0 l 496 464 q 476 535 496 514 q 417 556 456 556 q 362 545 389 556 q 317 513 335 533 l 317 0 l 67 0 l 67 762 m 161 -279 l 161 -126 l 652 -126 l 652 -279 l 161 -279 z "},"ñ":{"ha":808,"x_min":67,"x_max":746,"o":"m 67 762 l 274 762 l 292 685 l 302 685 q 391 752 340 729 q 505 774 442 774 q 681 704 615 774 q 746 481 746 633 l 746 0 l 496 0 l 496 464 q 476 535 496 514 q 417 556 456 556 q 362 545 389 556 q 317 513 335 533 l 317 0 l 67 0 l 67 762 m 517 878 q 460 887 487 878 q 394 913 433 896 q 340 936 363 928 q 293 944 317 944 q 223 929 254 944 q 158 883 191 915 l 158 1042 q 219 1084 186 1071 q 297 1097 253 1097 q 355 1088 327 1097 q 419 1062 382 1079 q 475 1039 453 1047 q 520 1032 497 1032 q 591 1047 559 1032 q 655 1093 622 1061 l 655 934 q 594 892 628 905 q 517 878 560 878 z "},"o":{"ha":792,"x_min":37,"x_max":755,"o":"m 396 -15 q 131 84 224 -15 q 37 377 37 182 q 130 675 37 576 q 396 774 222 774 q 662 674 569 774 q 755 379 755 574 q 661 84 755 183 q 396 -15 568 -15 m 396 172 q 456 189 433 172 q 490 251 478 206 q 502 377 502 296 q 490 506 502 460 q 455 570 478 552 q 396 588 432 588 q 338 570 360 588 q 302 507 315 553 q 290 379 290 461 q 302 251 290 297 q 336 189 314 206 q 396 172 359 172 z "},"ó":{"ha":792,"x_min":37,"x_max":755,"o":"m 396 -15 q 131 84 224 -15 q 37 377 37 182 q 130 675 37 576 q 396 774 222 774 q 662 674 569 774 q 755 379 755 574 q 661 84 755 183 q 396 -15 568 -15 m 396 172 q 456 189 433 172 q 490 251 478 206 q 502 377 502 296 q 490 506 502 460 q 455 570 478 552 q 396 588 432 588 q 338 570 360 588 q 302 507 315 553 q 290 379 290 461 q 302 251 290 297 q 336 189 314 206 q 396 172 359 172 m 284 851 l 435 1122 l 692 1122 l 507 851 l 284 851 z "},"ŏ":{"ha":792,"x_min":37,"x_max":755,"o":"m 396 -15 q 131 84 224 -15 q 37 377 37 182 q 130 675 37 576 q 396 774 222 774 q 662 674 569 774 q 755 379 755 574 q 661 84 755 183 q 396 -15 568 -15 m 396 172 q 456 189 433 172 q 490 251 478 206 q 502 377 502 296 q 490 506 502 460 q 455 570 478 552 q 396 588 432 588 q 338 570 360 588 q 302 507 315 553 q 290 379 290 461 q 302 251 290 297 q 336 189 314 206 q 396 172 359 172 m 396 858 q 217 920 283 858 q 144 1108 151 983 l 295 1108 q 324 1015 299 1044 q 396 985 349 985 q 467 1015 442 985 q 497 1108 492 1044 l 647 1108 q 575 920 640 983 q 396 858 509 858 z "},"ô":{"ha":792,"x_min":37,"x_max":755,"o":"m 396 -15 q 131 84 224 -15 q 37 377 37 182 q 130 675 37 576 q 396 774 222 774 q 662 674 569 774 q 755 379 755 574 q 661 84 755 183 q 396 -15 568 -15 m 396 172 q 456 189 433 172 q 490 251 478 206 q 502 377 502 296 q 490 506 502 460 q 455 570 478 552 q 396 588 432 588 q 338 570 360 588 q 302 507 315 553 q 290 379 290 461 q 302 251 290 297 q 336 189 314 206 q 396 172 359 172 m 647 851 l 476 851 l 396 1009 l 316 851 l 144 851 l 292 1122 l 499 1122 l 647 851 z "},"ố":{"ha":792,"x_min":37,"x_max":882,"o":"m 396 -15 q 131 84 224 -15 q 37 377 37 182 q 130 675 37 576 q 396 774 222 774 q 662 674 569 774 q 755 379 755 574 q 661 84 755 183 q 396 -15 568 -15 m 396 172 q 456 189 433 172 q 490 251 478 206 q 502 377 502 296 q 490 506 502 460 q 455 570 478 552 q 396 588 432 588 q 338 570 360 588 q 302 507 315 553 q 290 379 290 461 q 302 251 290 297 q 336 189 314 206 q 396 172 359 172 m 674 1297 l 882 1297 l 726 1110 l 555 1110 l 674 1297 m 292 1122 l 499 1122 l 647 851 l 476 851 l 396 1009 l 316 851 l 144 851 l 292 1122 z "},"ộ":{"ha":792,"x_min":37,"x_max":755,"o":"m 396 -15 q 131 84 224 -15 q 37 377 37 182 q 130 675 37 576 q 396 774 222 774 q 662 674 569 774 q 755 379 755 574 q 661 84 755 183 q 396 -15 568 -15 m 396 172 q 456 189 433 172 q 490 251 478 206 q 502 377 502 296 q 490 506 502 460 q 455 570 478 552 q 396 588 432 588 q 338 570 360 588 q 302 507 315 553 q 290 379 290 461 q 302 251 290 297 q 336 189 314 206 q 396 172 359 172 m 396 -330 q 298 -297 333 -330 q 263 -205 263 -263 q 298 -113 263 -147 q 396 -79 333 -79 q 493 -113 458 -79 q 528 -205 528 -147 q 493 -297 528 -263 q 396 -330 458 -330 m 647 851 l 476 851 l 396 1009 l 316 851 l 144 851 l 292 1122 l 499 1122 l 647 851 z "},"ồ":{"ha":792,"x_min":37,"x_max":755,"o":"m 396 -15 q 131 84 224 -15 q 37 377 37 182 q 130 675 37 576 q 396 774 222 774 q 662 674 569 774 q 755 379 755 574 q 661 84 755 183 q 396 -15 568 -15 m 396 172 q 456 189 433 172 q 490 251 478 206 q 502 377 502 296 q 490 506 502 460 q 455 570 478 552 q 396 588 432 588 q 338 570 360 588 q 302 507 315 553 q 290 379 290 461 q 302 251 290 297 q 336 189 314 206 q 396 172 359 172 m 751 1110 l 581 1110 l 425 1297 l 633 1297 l 751 1110 m 292 1122 l 499 1122 l 647 851 l 476 851 l 396 1009 l 316 851 l 144 851 l 292 1122 z "},"ổ":{"ha":792,"x_min":37,"x_max":788,"o":"m 396 -15 q 131 84 224 -15 q 37 377 37 182 q 130 675 37 576 q 396 774 222 774 q 662 674 569 774 q 755 379 755 574 q 661 84 755 183 q 396 -15 568 -15 m 396 172 q 456 189 433 172 q 490 251 478 206 q 502 377 502 296 q 490 506 502 460 q 455 570 478 552 q 396 588 432 588 q 338 570 360 588 q 302 507 315 553 q 290 379 290 461 q 302 251 290 297 q 336 189 314 206 q 396 172 359 172 m 610 1313 q 745 1293 703 1313 q 788 1227 788 1272 q 773 1191 788 1204 q 729 1163 758 1178 q 690 1138 703 1149 q 673 1110 676 1127 l 553 1110 q 575 1157 556 1140 q 626 1188 594 1173 q 650 1199 643 1194 q 658 1210 658 1204 q 642 1227 658 1222 q 590 1232 626 1232 q 466 1219 525 1232 l 466 1298 q 534 1309 492 1305 q 610 1313 576 1313 m 292 1122 l 499 1122 l 647 851 l 476 851 l 396 1009 l 316 851 l 144 851 l 292 1122 z "},"ỗ":{"ha":792,"x_min":37,"x_max":755,"o":"m 396 -15 q 131 84 224 -15 q 37 377 37 182 q 130 675 37 576 q 396 774 222 774 q 662 674 569 774 q 755 379 755 574 q 661 84 755 183 q 396 -15 568 -15 m 396 172 q 456 189 433 172 q 490 251 478 206 q 502 377 502 296 q 490 506 502 460 q 455 570 478 552 q 396 588 432 588 q 338 570 360 588 q 302 507 315 553 q 290 379 290 461 q 302 251 290 297 q 336 189 314 206 q 396 172 359 172 m 517 1243 q 591 1254 559 1243 q 657 1288 623 1265 l 657 1160 q 595 1126 629 1137 q 514 1115 561 1115 q 452 1122 481 1115 q 383 1141 424 1128 q 323 1158 346 1152 q 274 1163 299 1163 q 200 1152 232 1163 q 134 1118 168 1142 l 134 1246 q 197 1281 163 1269 q 277 1292 231 1292 q 339 1285 310 1292 q 408 1266 368 1278 q 468 1249 444 1254 q 517 1243 492 1243 m 290 1075 l 501 1075 l 655 852 l 479 852 l 396 983 l 312 852 l 136 852 l 290 1075 z "},"ȍ":{"ha":792,"x_min":37,"x_max":755,"o":"m 396 -15 q 131 84 224 -15 q 37 377 37 182 q 130 675 37 576 q 396 774 222 774 q 662 674 569 774 q 755 379 755 574 q 661 84 755 183 q 396 -15 568 -15 m 396 172 q 456 189 433 172 q 490 251 478 206 q 502 377 502 296 q 490 506 502 460 q 455 570 478 552 q 396 588 432 588 q 338 570 360 588 q 302 507 315 553 q 290 379 290 461 q 302 251 290 297 q 336 189 314 206 q 396 172 359 172 m 155 851 l 44 1122 l 244 1122 l 343 851 l 155 851 m 448 851 l 337 1122 l 537 1122 l 636 851 l 448 851 z "},"ö":{"ha":792,"x_min":37,"x_max":755,"o":"m 396 -15 q 131 84 224 -15 q 37 377 37 182 q 130 675 37 576 q 396 774 222 774 q 662 674 569 774 q 755 379 755 574 q 661 84 755 183 q 396 -15 568 -15 m 396 172 q 456 189 433 172 q 490 251 478 206 q 502 377 502 296 q 490 506 502 460 q 455 570 478 552 q 396 588 432 588 q 338 570 360 588 q 302 507 315 553 q 290 379 290 461 q 302 251 290 297 q 336 189 314 206 q 396 172 359 172 m 226 858 q 128 892 163 858 q 93 985 93 926 q 128 1078 93 1045 q 226 1112 163 1112 q 324 1078 288 1112 q 359 985 359 1044 q 324 892 359 926 q 226 858 288 858 m 565 858 q 468 892 503 858 q 433 985 433 926 q 468 1078 433 1045 q 565 1112 503 1112 q 663 1078 628 1112 q 699 985 699 1044 q 663 892 699 926 q 565 858 628 858 z "},"ȫ":{"ha":792,"x_min":37,"x_max":755,"o":"m 396 -15 q 131 84 224 -15 q 37 377 37 182 q 130 675 37 576 q 396 774 222 774 q 662 674 569 774 q 755 379 755 574 q 661 84 755 183 q 396 -15 568 -15 m 396 172 q 456 189 433 172 q 490 251 478 206 q 502 377 502 296 q 490 506 502 460 q 455 570 478 552 q 396 588 432 588 q 338 570 360 588 q 302 507 315 553 q 290 379 290 461 q 302 251 290 297 q 336 189 314 206 q 396 172 359 172 m 226 858 q 128 892 163 858 q 93 985 93 926 q 128 1078 93 1045 q 226 1112 163 1112 q 324 1078 288 1112 q 359 985 359 1044 q 324 892 359 926 q 226 858 288 858 m 565 858 q 468 892 503 858 q 433 985 433 926 q 468 1078 433 1045 q 565 1112 503 1112 q 663 1078 628 1112 q 699 985 699 1044 q 663 892 699 926 q 565 858 628 858 m 147 1183 l 147 1338 l 644 1338 l 644 1183 l 147 1183 z "},"ȱ":{"ha":792,"x_min":37,"x_max":755,"o":"m 396 -15 q 131 84 224 -15 q 37 377 37 182 q 130 675 37 576 q 396 774 222 774 q 662 674 569 774 q 755 379 755 574 q 661 84 755 183 q 396 -15 568 -15 m 396 172 q 456 189 433 172 q 490 251 478 206 q 502 377 502 296 q 490 506 502 460 q 455 570 478 552 q 396 588 432 588 q 338 570 360 588 q 302 507 315 553 q 290 379 290 461 q 302 251 290 297 q 336 189 314 206 q 396 172 359 172 m 396 853 q 281 888 319 853 q 243 985 243 922 q 281 1083 243 1049 q 396 1117 319 1117 q 510 1083 473 1117 q 548 985 548 1049 q 510 888 548 922 q 396 853 473 853 m 147 1186 l 147 1341 l 644 1341 l 644 1186 l 147 1186 z "},"ọ":{"ha":792,"x_min":37,"x_max":755,"o":"m 396 -15 q 131 84 224 -15 q 37 377 37 182 q 130 675 37 576 q 396 774 222 774 q 662 674 569 774 q 755 379 755 574 q 661 84 755 183 q 396 -15 568 -15 m 396 172 q 456 189 433 172 q 490 251 478 206 q 502 377 502 296 q 490 506 502 460 q 455 570 478 552 q 396 588 432 588 q 338 570 360 588 q 302 507 315 553 q 290 379 290 461 q 302 251 290 297 q 336 189 314 206 q 396 172 359 172 m 396 -330 q 298 -297 333 -330 q 263 -205 263 -263 q 298 -113 263 -147 q 396 -79 333 -79 q 493 -113 458 -79 q 528 -205 528 -147 q 493 -297 528 -263 q 396 -330 458 -330 z "},"ò":{"ha":792,"x_min":37,"x_max":755,"o":"m 396 -15 q 131 84 224 -15 q 37 377 37 182 q 130 675 37 576 q 396 774 222 774 q 662 674 569 774 q 755 379 755 574 q 661 84 755 183 q 396 -15 568 -15 m 396 172 q 456 189 433 172 q 490 251 478 206 q 502 377 502 296 q 490 506 502 460 q 455 570 478 552 q 396 588 432 588 q 338 570 360 588 q 302 507 315 553 q 290 379 290 461 q 302 251 290 297 q 336 189 314 206 q 396 172 359 172 m 284 851 l 99 1122 l 356 1122 l 507 851 l 284 851 z "},"ỏ":{"ha":792,"x_min":37,"x_max":755,"o":"m 396 -15 q 131 84 224 -15 q 37 377 37 182 q 130 675 37 576 q 396 774 222 774 q 662 674 569 774 q 755 379 755 574 q 661 84 755 183 q 396 -15 568 -15 m 396 172 q 456 189 433 172 q 490 251 478 206 q 502 377 502 296 q 490 506 502 460 q 455 570 478 552 q 396 588 432 588 q 338 570 360 588 q 302 507 315 553 q 290 379 290 461 q 302 251 290 297 q 336 189 314 206 q 396 172 359 172 m 334 851 q 353 916 336 892 q 399 961 369 939 q 423 983 415 974 q 431 1003 431 992 q 416 1027 431 1019 q 372 1034 401 1034 q 260 1017 317 1034 l 260 1113 q 323 1126 286 1121 q 392 1131 360 1131 q 521 1104 478 1131 q 563 1021 563 1077 q 549 965 563 985 q 506 922 534 944 q 472 889 483 903 q 457 851 460 874 l 334 851 z "},"ơ":{"ha":792,"x_min":37,"x_max":788,"o":"m 788 861 q 666 668 788 711 q 755 379 755 569 q 661 84 755 183 q 396 -15 568 -15 q 131 84 224 -15 q 37 377 37 182 q 130 675 37 576 q 399 774 223 774 q 474 770 431 774 q 514 767 506 767 q 599 792 570 767 q 627 874 627 817 q 615 969 627 917 l 774 969 q 788 861 788 924 m 396 172 q 456 189 433 172 q 490 251 478 206 q 502 377 502 296 q 490 506 502 460 q 455 570 478 552 q 396 588 432 588 q 338 570 360 588 q 302 507 315 553 q 290 379 290 461 q 302 251 290 297 q 336 189 314 206 q 396 172 359 172 z "},"ớ":{"ha":792,"x_min":37,"x_max":788,"o":"m 653 1122 l 487 851 l 287 851 l 422 1122 l 653 1122 m 788 861 q 666 668 788 711 q 755 379 755 569 q 661 84 755 183 q 396 -15 568 -15 q 131 84 224 -15 q 37 377 37 182 q 130 675 37 576 q 399 774 223 774 q 474 770 431 774 q 514 767 506 767 q 599 792 570 767 q 627 874 627 817 q 615 969 627 917 l 774 969 q 788 861 788 924 m 396 172 q 456 189 433 172 q 490 251 478 206 q 502 377 502 296 q 490 506 502 460 q 455 570 478 552 q 396 588 432 588 q 338 570 360 588 q 302 507 315 553 q 290 379 290 461 q 302 251 290 297 q 336 189 314 206 q 396 172 359 172 z "},"ợ":{"ha":792,"x_min":37,"x_max":788,"o":"m 788 861 q 666 668 788 711 q 755 379 755 569 q 661 84 755 183 q 396 -15 568 -15 q 131 84 224 -15 q 37 377 37 182 q 130 675 37 576 q 399 774 223 774 q 474 770 431 774 q 514 767 506 767 q 599 792 570 767 q 627 874 627 817 q 615 969 627 917 l 774 969 q 788 861 788 924 m 396 172 q 456 189 433 172 q 490 251 478 206 q 502 377 502 296 q 490 506 502 460 q 455 570 478 552 q 396 588 432 588 q 338 570 360 588 q 302 507 315 553 q 290 379 290 461 q 302 251 290 297 q 336 189 314 206 q 396 172 359 172 m 396 -330 q 298 -297 333 -330 q 263 -205 263 -263 q 298 -113 263 -147 q 396 -79 333 -79 q 493 -113 458 -79 q 528 -205 528 -147 q 493 -297 528 -263 q 396 -330 458 -330 z "},"ờ":{"ha":792,"x_min":37,"x_max":788,"o":"m 788 861 q 666 668 788 711 q 755 379 755 569 q 661 84 755 183 q 396 -15 568 -15 q 131 84 224 -15 q 37 377 37 182 q 130 675 37 576 q 399 774 223 774 q 474 770 431 774 q 514 767 506 767 q 599 792 570 767 q 627 874 627 817 q 615 969 627 917 l 774 969 q 788 861 788 924 m 396 172 q 456 189 433 172 q 490 251 478 206 q 502 377 502 296 q 490 506 502 460 q 455 570 478 552 q 396 588 432 588 q 338 570 360 588 q 302 507 315 553 q 290 379 290 461 q 302 251 290 297 q 336 189 314 206 q 396 172 359 172 m 275 851 l 90 1122 l 347 1122 l 498 851 l 275 851 z "},"ở":{"ha":792,"x_min":37,"x_max":788,"o":"m 788 861 q 666 668 788 711 q 755 379 755 569 q 661 84 755 183 q 396 -15 568 -15 q 131 84 224 -15 q 37 377 37 182 q 130 675 37 576 q 399 774 223 774 q 474 770 431 774 q 514 767 506 767 q 599 792 570 767 q 627 874 627 817 q 615 969 627 917 l 774 969 q 788 861 788 924 m 396 172 q 456 189 433 172 q 490 251 478 206 q 502 377 502 296 q 490 506 502 460 q 455 570 478 552 q 396 588 432 588 q 338 570 360 588 q 302 507 315 553 q 290 379 290 461 q 302 251 290 297 q 336 189 314 206 q 396 172 359 172 m 325 851 q 344 916 327 892 q 390 961 360 939 q 414 983 406 974 q 422 1003 422 992 q 407 1027 422 1019 q 363 1034 392 1034 q 251 1017 308 1034 l 251 1113 q 314 1126 277 1121 q 383 1131 351 1131 q 512 1104 469 1131 q 554 1021 554 1077 q 540 965 554 985 q 497 922 525 944 q 463 889 474 903 q 448 851 451 874 l 325 851 z "},"ỡ":{"ha":792,"x_min":37,"x_max":788,"o":"m 467 878 q 413 887 438 878 q 356 913 389 896 q 308 936 328 928 q 265 944 288 944 q 203 929 233 944 q 141 883 173 915 l 141 1042 q 268 1097 194 1097 q 322 1089 298 1097 q 379 1063 347 1080 q 427 1040 407 1047 q 470 1032 447 1032 q 533 1047 503 1032 q 594 1093 563 1061 l 594 934 q 467 878 542 878 m 788 861 q 666 668 788 711 q 755 379 755 569 q 661 84 755 183 q 396 -15 568 -15 q 131 84 224 -15 q 37 377 37 182 q 130 675 37 576 q 399 774 223 774 q 474 770 431 774 q 514 767 506 767 q 599 792 570 767 q 627 874 627 817 q 615 969 627 917 l 774 969 q 788 861 788 924 m 396 172 q 456 189 433 172 q 490 251 478 206 q 502 377 502 296 q 490 506 502 460 q 455 570 478 552 q 396 588 432 588 q 338 570 360 588 q 302 507 315 553 q 290 379 290 461 q 302 251 290 297 q 336 189 314 206 q 396 172 359 172 z "},"ő":{"ha":792,"x_min":37,"x_max":755,"o":"m 396 -15 q 131 84 224 -15 q 37 377 37 182 q 130 675 37 576 q 396 774 222 774 q 662 674 569 774 q 755 379 755 574 q 661 84 755 183 q 396 -15 568 -15 m 396 172 q 456 189 433 172 q 490 251 478 206 q 502 377 502 296 q 490 506 502 460 q 455 570 478 552 q 396 588 432 588 q 338 570 360 588 q 302 507 315 553 q 290 379 290 461 q 302 251 290 297 q 336 189 314 206 q 396 172 359 172 m 156 851 l 255 1122 l 454 1122 l 343 851 l 156 851 m 448 851 l 547 1122 l 747 1122 l 636 851 l 448 851 z "},"ȏ":{"ha":792,"x_min":37,"x_max":755,"o":"m 396 -15 q 131 84 224 -15 q 37 377 37 182 q 130 675 37 576 q 396 774 222 774 q 662 674 569 774 q 755 379 755 574 q 661 84 755 183 q 396 -15 568 -15 m 396 172 q 456 189 433 172 q 490 251 478 206 q 502 377 502 296 q 490 506 502 460 q 455 570 478 552 q 396 588 432 588 q 338 570 360 588 q 302 507 315 553 q 290 379 290 461 q 302 251 290 297 q 336 189 314 206 q 396 172 359 172 m 144 871 q 216 1058 151 996 q 395 1120 281 1120 q 574 1058 508 1120 q 647 871 640 995 l 497 871 q 467 966 492 935 q 395 996 442 996 q 323 966 347 996 q 295 871 299 937 l 144 871 z "},"ō":{"ha":792,"x_min":37,"x_max":755,"o":"m 396 -15 q 131 84 224 -15 q 37 377 37 182 q 130 675 37 576 q 396 774 222 774 q 662 674 569 774 q 755 379 755 574 q 661 84 755 183 q 396 -15 568 -15 m 396 172 q 456 189 433 172 q 490 251 478 206 q 502 377 502 296 q 490 506 502 460 q 455 570 478 552 q 396 588 432 588 q 338 570 360 588 q 302 507 315 553 q 290 379 290 461 q 302 251 290 297 q 336 189 314 206 q 396 172 359 172 m 147 908 l 147 1063 l 644 1063 l 644 908 l 147 908 z "},"ṓ":{"ha":792,"x_min":37,"x_max":755,"o":"m 396 -15 q 131 84 224 -15 q 37 377 37 182 q 130 675 37 576 q 396 774 222 774 q 662 674 569 774 q 755 379 755 574 q 661 84 755 183 q 396 -15 568 -15 m 396 172 q 456 189 433 172 q 490 251 478 206 q 502 377 502 296 q 490 506 502 460 q 455 570 478 552 q 396 588 432 588 q 338 570 360 588 q 302 507 315 553 q 290 379 290 461 q 302 251 290 297 q 336 189 314 206 q 396 172 359 172 m 147 908 l 147 1063 l 644 1063 l 644 908 l 147 908 m 283 1160 l 402 1376 l 663 1376 l 507 1160 l 283 1160 z "},"ṑ":{"ha":792,"x_min":37,"x_max":755,"o":"m 396 -15 q 131 84 224 -15 q 37 377 37 182 q 130 675 37 576 q 396 774 222 774 q 662 674 569 774 q 755 379 755 574 q 661 84 755 183 q 396 -15 568 -15 m 396 172 q 456 189 433 172 q 490 251 478 206 q 502 377 502 296 q 490 506 502 460 q 455 570 478 552 q 396 588 432 588 q 338 570 360 588 q 302 507 315 553 q 290 379 290 461 q 302 251 290 297 q 336 189 314 206 q 396 172 359 172 m 147 908 l 147 1063 l 644 1063 l 644 908 l 147 908 m 283 1160 l 128 1376 l 389 1376 l 508 1160 l 283 1160 z "},"ǫ":{"ha":792,"x_min":37,"x_max":755,"o":"m 550 10 q 422 -64 456 -27 q 388 -145 388 -101 q 408 -196 388 -177 q 467 -215 428 -215 q 550 -196 505 -215 l 552 -292 q 497 -308 524 -303 q 433 -314 469 -314 q 294 -274 342 -314 q 247 -164 247 -234 q 267 -79 247 -117 q 333 -11 288 -42 q 114 104 190 6 q 37 377 37 201 q 130 675 37 576 q 396 774 222 774 q 662 674 569 774 q 755 379 755 574 q 703 141 755 232 q 550 10 651 49 m 290 379 q 302 251 290 297 q 336 189 314 206 q 396 172 359 172 q 456 189 433 172 q 490 251 478 206 q 502 377 502 296 q 490 506 502 460 q 455 570 478 552 q 396 588 432 588 q 338 570 360 588 q 302 507 315 553 q 290 379 290 461 z "},"ø":{"ha":792,"x_min":37,"x_max":755,"o":"m 669 667 q 755 379 755 566 q 661 84 755 183 q 396 -15 568 -15 q 222 19 296 -15 l 178 -42 l 74 32 l 119 97 q 37 377 37 197 q 130 675 37 576 q 396 774 222 774 q 565 743 493 774 l 608 805 l 713 731 l 669 667 m 396 592 q 332 574 357 592 q 293 509 307 556 q 280 379 280 462 q 283 309 280 337 l 463 572 q 396 592 439 592 m 396 167 q 461 185 436 167 q 499 249 486 203 q 513 377 513 294 q 508 459 513 424 l 324 192 q 396 167 349 167 z "},"ǿ":{"ha":792,"x_min":37,"x_max":755,"o":"m 669 667 q 755 379 755 566 q 661 84 755 183 q 396 -15 568 -15 q 222 19 296 -15 l 178 -42 l 74 32 l 119 97 q 37 377 37 197 q 130 675 37 576 q 396 774 222 774 q 565 743 493 774 l 608 805 l 713 731 l 669 667 m 396 592 q 332 574 357 592 q 293 509 307 556 q 280 379 280 462 q 283 309 280 337 l 463 572 q 396 592 439 592 m 396 167 q 461 185 436 167 q 499 249 486 203 q 513 377 513 294 q 508 459 513 424 l 324 192 q 396 167 349 167 m 283 851 l 434 1122 l 692 1122 l 506 851 l 283 851 z "},"õ":{"ha":792,"x_min":37,"x_max":755,"o":"m 396 -15 q 131 84 224 -15 q 37 377 37 182 q 130 675 37 576 q 396 774 222 774 q 662 674 569 774 q 755 379 755 574 q 661 84 755 183 q 396 -15 568 -15 m 396 172 q 456 189 433 172 q 490 251 478 206 q 502 377 502 296 q 490 506 502 460 q 455 570 478 552 q 396 588 432 588 q 338 570 360 588 q 302 507 315 553 q 290 379 290 461 q 302 251 290 297 q 336 189 314 206 q 396 172 359 172 m 506 878 q 449 887 476 878 q 383 913 422 896 q 328 936 351 928 q 282 944 306 944 q 211 929 243 944 q 147 883 180 915 l 147 1042 q 208 1084 175 1071 q 285 1097 242 1097 q 343 1088 316 1097 q 408 1062 371 1079 q 464 1039 442 1047 q 509 1032 486 1032 q 580 1047 548 1032 q 644 1093 611 1061 l 644 934 q 583 892 617 905 q 506 878 549 878 z "},"ṍ":{"ha":792,"x_min":37,"x_max":755,"o":"m 396 -15 q 131 84 224 -15 q 37 377 37 182 q 130 675 37 576 q 396 774 222 774 q 662 674 569 774 q 755 379 755 574 q 661 84 755 183 q 396 -15 568 -15 m 396 172 q 456 189 433 172 q 490 251 478 206 q 502 377 502 296 q 490 506 502 460 q 455 570 478 552 q 396 588 432 588 q 338 570 360 588 q 302 507 315 553 q 290 379 290 461 q 302 251 290 297 q 336 189 314 206 q 396 172 359 172 m 506 878 q 449 887 476 878 q 383 913 422 896 q 328 936 351 928 q 282 944 306 944 q 211 929 243 944 q 147 883 180 915 l 147 1042 q 208 1084 175 1071 q 285 1097 242 1097 q 343 1088 316 1097 q 408 1062 371 1079 q 464 1039 442 1047 q 509 1032 486 1032 q 580 1047 548 1032 q 644 1093 611 1061 l 644 934 q 583 892 617 905 q 506 878 549 878 m 324 1262 l 442 1477 l 703 1477 l 547 1262 l 324 1262 z "},"ṏ":{"ha":792,"x_min":37,"x_max":755,"o":"m 396 -15 q 131 84 224 -15 q 37 377 37 182 q 130 675 37 576 q 396 774 222 774 q 662 674 569 774 q 755 379 755 574 q 661 84 755 183 q 396 -15 568 -15 m 396 172 q 456 189 433 172 q 490 251 478 206 q 502 377 502 296 q 490 506 502 460 q 455 570 478 552 q 396 588 432 588 q 338 570 360 588 q 302 507 315 553 q 290 379 290 461 q 302 251 290 297 q 336 189 314 206 q 396 172 359 172 m 506 878 q 449 887 476 878 q 383 913 422 896 q 328 936 351 928 q 282 944 306 944 q 211 929 243 944 q 147 883 180 915 l 147 1042 q 208 1084 175 1071 q 285 1097 242 1097 q 343 1088 316 1097 q 408 1062 371 1079 q 464 1039 442 1047 q 509 1032 486 1032 q 580 1047 548 1032 q 644 1093 611 1061 l 644 934 q 583 892 617 905 q 506 878 549 878 m 226 1133 q 128 1167 163 1133 q 93 1260 93 1201 q 128 1353 93 1320 q 226 1387 163 1387 q 324 1353 288 1387 q 359 1260 359 1319 q 324 1167 359 1201 q 226 1133 288 1133 m 565 1133 q 468 1167 503 1133 q 433 1260 433 1201 q 468 1353 433 1320 q 565 1387 503 1387 q 663 1353 628 1387 q 699 1260 699 1319 q 663 1167 699 1201 q 565 1133 628 1133 z "},"ȭ":{"ha":792,"x_min":37,"x_max":755,"o":"m 396 -15 q 131 84 224 -15 q 37 377 37 182 q 130 675 37 576 q 396 774 222 774 q 662 674 569 774 q 755 379 755 574 q 661 84 755 183 q 396 -15 568 -15 m 396 172 q 456 189 433 172 q 490 251 478 206 q 502 377 502 296 q 490 506 502 460 q 455 570 478 552 q 396 588 432 588 q 338 570 360 588 q 302 507 315 553 q 290 379 290 461 q 302 251 290 297 q 336 189 314 206 q 396 172 359 172 m 506 878 q 449 887 476 878 q 383 913 422 896 q 328 936 351 928 q 282 944 306 944 q 211 929 243 944 q 147 883 180 915 l 147 1042 q 208 1084 175 1071 q 285 1097 242 1097 q 343 1088 316 1097 q 408 1062 371 1079 q 464 1039 442 1047 q 509 1032 486 1032 q 580 1047 548 1032 q 644 1093 611 1061 l 644 934 q 583 892 617 905 q 506 878 549 878 m 147 1183 l 147 1338 l 644 1338 l 644 1183 l 147 1183 z "},"œ":{"ha":1195,"x_min":37,"x_max":1165,"o":"m 1165 308 l 755 308 q 777 231 758 258 q 835 191 795 203 q 943 178 874 178 q 1125 202 1025 178 l 1125 10 q 911 -15 1012 -15 q 734 8 806 -15 q 617 79 662 31 q 384 -15 534 -15 q 199 29 276 -15 q 79 160 121 72 q 37 377 37 247 q 127 675 37 575 q 384 774 218 774 q 629 664 546 774 q 726 746 668 717 q 859 774 784 774 q 1023 729 954 774 q 1128 595 1092 684 q 1165 376 1165 506 l 1165 308 m 845 615 q 795 601 815 615 q 765 551 776 586 q 754 453 755 515 l 933 453 q 923 551 933 515 q 894 601 913 586 q 845 615 875 615 m 396 172 q 455 189 433 172 q 490 251 478 206 q 501 377 501 296 q 489 506 501 460 q 454 570 477 552 q 396 588 431 588 q 338 570 360 588 q 302 507 315 553 q 290 379 290 461 q 302 251 290 297 q 336 189 314 206 q 396 172 359 172 z "},"p":{"ha":814,"x_min":67,"x_max":776,"o":"m 67 762 l 278 762 l 294 678 l 305 678 q 378 749 332 724 q 485 774 424 774 q 632 734 566 774 q 737 608 697 693 q 776 394 776 523 q 674 90 776 194 q 365 -14 572 -14 q 317 -11 347 -14 l 317 -306 l 67 -306 l 67 762 m 376 175 q 459 194 426 175 q 507 257 491 213 q 524 374 524 300 q 509 491 524 449 q 468 551 494 534 q 404 568 442 568 q 357 560 380 568 q 317 538 334 552 l 317 181 q 376 175 352 175 z "},"þ":{"ha":814,"x_min":67,"x_max":776,"o":"m 67 1122 l 317 1122 l 317 686 l 329 686 q 401 751 356 728 q 503 774 445 774 q 641 733 579 774 q 740 606 703 692 q 776 394 776 521 q 674 90 776 194 q 365 -14 572 -14 q 317 -11 347 -14 l 317 -306 l 67 -306 l 67 1122 m 376 175 q 459 194 426 175 q 507 257 491 213 q 524 374 524 300 q 509 491 524 449 q 467 550 494 533 q 399 567 440 567 q 354 560 376 567 q 317 540 333 553 l 317 181 q 376 175 352 175 z "},"q":{"ha":814,"x_min":37,"x_max":747,"o":"m 497 74 l 485 74 q 413 9 458 31 q 311 -14 369 -14 q 173 27 235 -14 q 74 154 110 69 q 37 366 37 240 q 140 671 37 567 q 458 774 244 774 q 609 763 532 774 q 747 730 685 751 l 747 -306 l 497 -306 l 497 74 m 415 193 q 459 199 438 193 q 497 218 481 206 l 497 579 q 435 585 465 585 q 326 540 363 585 q 290 387 290 495 q 305 269 290 312 q 347 210 319 227 q 415 193 374 193 z "},"r":{"ha":554,"x_min":67,"x_max":547,"o":"m 67 762 l 272 762 l 291 660 l 302 660 q 376 746 328 719 q 488 774 424 774 q 547 768 515 774 l 547 539 q 471 546 517 546 q 382 530 425 546 q 317 485 340 513 l 317 0 l 67 0 l 67 762 z "},"ŕ":{"ha":554,"x_min":67,"x_max":603,"o":"m 67 762 l 272 762 l 291 660 l 302 660 q 376 746 328 719 q 488 774 424 774 q 547 768 515 774 l 547 539 q 471 546 517 546 q 382 530 425 546 q 317 485 340 513 l 317 0 l 67 0 l 67 762 m 194 851 l 345 1122 l 603 1122 l 417 851 l 194 851 z "},"ř":{"ha":554,"x_min":54,"x_max":558,"o":"m 67 762 l 272 762 l 291 660 l 302 660 q 376 746 328 719 q 488 774 424 774 q 547 768 515 774 l 547 539 q 471 546 517 546 q 382 530 425 546 q 317 485 340 513 l 317 0 l 67 0 l 67 762 m 386 1122 l 558 1122 l 410 851 l 203 851 l 54 1122 l 226 1122 l 306 965 l 386 1122 z "},"ŗ":{"ha":554,"x_min":56,"x_max":547,"o":"m 67 762 l 272 762 l 291 660 l 302 660 q 376 746 328 719 q 488 774 424 774 q 547 768 515 774 l 547 539 q 471 546 517 546 q 382 530 425 546 q 317 485 340 513 l 317 0 l 67 0 l 67 762 m 192 -79 q 329 -193 329 -79 q 313 -276 329 -232 q 271 -353 296 -321 l 115 -353 q 156 -250 147 -291 q 80 -223 104 -244 q 56 -165 56 -201 q 89 -101 56 -124 q 192 -79 122 -79 z "},"ȑ":{"ha":554,"x_min":-45,"x_max":547,"o":"m 67 762 l 272 762 l 291 660 l 302 660 q 376 746 328 719 q 488 774 424 774 q 547 768 515 774 l 547 539 q 471 546 517 546 q 382 530 425 546 q 317 485 340 513 l 317 0 l 67 0 l 67 762 m 65 851 l -45 1122 l 154 1122 l 253 851 l 65 851 m 358 851 l 247 1122 l 447 1122 l 547 851 l 358 851 z "},"ṛ":{"ha":554,"x_min":59,"x_max":547,"o":"m 67 762 l 272 762 l 291 660 l 302 660 q 376 746 328 719 q 488 774 424 774 q 547 768 515 774 l 547 539 q 471 546 517 546 q 382 530 425 546 q 317 485 340 513 l 317 0 l 67 0 l 67 762 m 192 -330 q 94 -297 130 -330 q 59 -205 59 -263 q 94 -113 59 -147 q 192 -79 130 -79 q 290 -113 255 -79 q 325 -205 325 -147 q 290 -297 325 -263 q 192 -330 255 -330 z "},"ȓ":{"ha":554,"x_min":55,"x_max":558,"o":"m 67 762 l 272 762 l 291 660 l 302 660 q 376 746 328 719 q 488 774 424 774 q 547 768 515 774 l 547 539 q 471 546 517 546 q 382 530 425 546 q 317 485 340 513 l 317 0 l 67 0 l 67 762 m 55 871 q 126 1058 62 996 q 306 1120 191 1120 q 484 1058 418 1120 q 558 871 551 995 l 407 871 q 377 966 403 935 q 306 996 352 996 q 233 966 257 996 q 206 871 209 937 l 55 871 z "},"ṟ":{"ha":554,"x_min":-53,"x_max":547,"o":"m 67 762 l 272 762 l 291 660 l 302 660 q 376 746 328 719 q 488 774 424 774 q 547 768 515 774 l 547 539 q 471 546 517 546 q 382 530 425 546 q 317 485 340 513 l 317 0 l 67 0 l 67 762 m -53 -279 l -53 -126 l 438 -126 l 438 -279 l -53 -279 z "},"s":{"ha":638,"x_min":30,"x_max":616,"o":"m 283 -15 q 53 19 155 -15 l 53 208 q 278 174 158 174 q 362 188 337 174 q 387 231 387 203 q 376 261 387 250 q 339 277 365 272 l 221 301 q 77 376 125 321 q 30 525 30 431 q 69 657 30 601 q 187 744 108 713 q 381 774 266 774 q 573 752 483 774 l 573 563 q 392 585 491 585 q 258 526 258 585 q 270 499 258 509 q 307 483 281 489 l 425 459 q 568 386 521 438 q 616 238 616 335 q 576 103 616 160 q 461 16 536 47 q 283 -15 386 -15 z "},"ś":{"ha":638,"x_min":30,"x_max":616,"o":"m 283 -15 q 53 19 155 -15 l 53 208 q 278 174 158 174 q 362 188 337 174 q 387 231 387 203 q 376 261 387 250 q 339 277 365 272 l 221 301 q 77 376 125 321 q 30 525 30 431 q 69 657 30 601 q 187 744 108 713 q 381 774 266 774 q 573 752 483 774 l 573 563 q 392 585 491 585 q 258 526 258 585 q 270 499 258 509 q 307 483 281 489 l 425 459 q 568 386 521 438 q 616 238 616 335 q 576 103 616 160 q 461 16 536 47 q 283 -15 386 -15 m 207 851 l 358 1122 l 615 1122 l 430 851 l 207 851 z "},"ṥ":{"ha":638,"x_min":30,"x_max":616,"o":"m 283 -15 q 53 19 155 -15 l 53 208 q 278 174 158 174 q 362 188 337 174 q 387 231 387 203 q 376 261 387 250 q 339 277 365 272 l 221 301 q 77 376 125 321 q 30 525 30 431 q 69 657 30 601 q 187 744 108 713 q 381 774 266 774 q 573 752 483 774 l 573 563 q 392 585 491 585 q 258 526 258 585 q 270 499 258 509 q 307 483 281 489 l 425 459 q 568 386 521 438 q 616 238 616 335 q 576 103 616 160 q 461 16 536 47 q 283 -15 386 -15 m 189 1094 q 98 1118 130 1094 q 66 1187 66 1142 q 98 1256 66 1233 q 189 1280 130 1280 q 280 1256 248 1280 q 311 1187 311 1233 q 280 1118 311 1142 q 189 1094 248 1094 m 207 851 l 358 1122 l 615 1122 l 430 851 l 207 851 z "},"š":{"ha":638,"x_min":30,"x_max":616,"o":"m 283 -15 q 53 19 155 -15 l 53 208 q 278 174 158 174 q 362 188 337 174 q 387 231 387 203 q 376 261 387 250 q 339 277 365 272 l 221 301 q 77 376 125 321 q 30 525 30 431 q 69 657 30 601 q 187 744 108 713 q 381 774 266 774 q 573 752 483 774 l 573 563 q 392 585 491 585 q 258 526 258 585 q 270 499 258 509 q 307 483 281 489 l 425 459 q 568 386 521 438 q 616 238 616 335 q 576 103 616 160 q 461 16 536 47 q 283 -15 386 -15 m 399 1122 l 570 1122 l 422 851 l 215 851 l 67 1122 l 238 1122 l 319 965 l 399 1122 z "},"ṧ":{"ha":638,"x_min":30,"x_max":616,"o":"m 283 -15 q 53 19 155 -15 l 53 208 q 278 174 158 174 q 362 188 337 174 q 387 231 387 203 q 376 261 387 250 q 339 277 365 272 l 221 301 q 77 376 125 321 q 30 525 30 431 q 69 657 30 601 q 187 744 108 713 q 381 774 266 774 q 573 752 483 774 l 573 563 q 392 585 491 585 q 258 526 258 585 q 270 499 258 509 q 307 483 281 489 l 425 459 q 568 386 521 438 q 616 238 616 335 q 576 103 616 160 q 461 16 536 47 q 283 -15 386 -15 m 319 1147 q 227 1170 259 1147 q 196 1239 196 1194 q 228 1308 196 1285 q 319 1332 260 1332 q 409 1308 378 1332 q 441 1239 441 1285 q 409 1170 441 1193 q 319 1147 378 1147 m 399 1122 l 570 1122 l 422 851 l 215 851 l 67 1122 l 238 1122 l 319 965 l 399 1122 z "}}}
